<?xml version="1.0" standalone="no"?>
<!DOCTYPE svg PUBLIC "-//W3C//DTD SVG 1.1//EN" "http://www.w3.org/Graphics/SVG/1.1/DTD/svg11.dtd" >
<svg xmlns="http://www.w3.org/2000/svg" xmlns:xlink="http://www.w3.org/1999/xlink" version="1.1">
<metadata>
Created by FontForge 20190801 at Mon Sep 25 08:36:06 2017
 By Jimmy Wärting
Copyright c 2017 NAVER Corporation. All rights reserved. Font designed by Sandoll Communications Inc.
</metadata>
<defs>
<font id="NanumSquareRoundL" horiz-adv-x="910" >
  <font-face 
    font-family="NanumSquareRound Light"
    font-weight="300"
    font-stretch="normal"
    units-per-em="1000"
    panose-1="2 11 6 0 0 1 1 1 1 1"
    ascent="800"
    descent="-200"
    x-height="517"
    cap-height="715"
    bbox="-71.96 -255 1145 871"
    underline-thickness="50"
    underline-position="-210"
    unicode-range="U+0001-FFE6"
  />
<missing-glyph 
d="M757 788q32 0 44 -12.5t12 -46.5v-782q0 -34 -12 -46.5t-44 -12.5h-604q-32 0 -44 12.5t-12 46.5v782q0 34 12 46.5t44 12.5h604zM154 -77h602l-301 386zM479 339l296 -383v766zM135 -44l296 383l-296 383v-766zM455 368l299 385h-598z" />
    <glyph glyph-name=".notdef" 
d="M757 788q32 0 44 -12.5t12 -46.5v-782q0 -34 -12 -46.5t-44 -12.5h-604q-32 0 -44 12.5t-12 46.5v782q0 34 12 46.5t44 12.5h604zM154 -77h602l-301 386zM479 339l296 -383v766zM135 -44l296 383l-296 383v-766zM455 368l299 385h-598z" />
    <glyph glyph-name="cid1" horiz-adv-x="250" 
 />
    <glyph glyph-name="cid1" unicode="&#xa0;" horiz-adv-x="250" 
 />
    <glyph glyph-name="cid1" unicode=" " horiz-adv-x="250" 
 />
    <glyph glyph-name="cid1" horiz-adv-x="250" 
 />
    <glyph glyph-name="cid1" horiz-adv-x="250" 
 />
    <glyph glyph-name="cid1" horiz-adv-x="250" 
 />
    <glyph glyph-name="cid1" horiz-adv-x="250" 
 />
    <glyph glyph-name="cid1" horiz-adv-x="250" 
 />
    <glyph glyph-name="cid1" horiz-adv-x="250" 
 />
    <glyph glyph-name="cid1" horiz-adv-x="250" 
 />
    <glyph glyph-name="cid1" horiz-adv-x="250" 
 />
    <glyph glyph-name="cid1" horiz-adv-x="250" 
 />
    <glyph glyph-name="cid1" horiz-adv-x="250" 
 />
    <glyph glyph-name="cid1" horiz-adv-x="250" 
 />
    <glyph glyph-name="cid1" horiz-adv-x="250" 
 />
    <glyph glyph-name="cid1" horiz-adv-x="250" 
 />
    <glyph glyph-name="cid1" horiz-adv-x="250" 
 />
    <glyph glyph-name="cid1" horiz-adv-x="250" 
 />
    <glyph glyph-name="cid1" horiz-adv-x="250" 
 />
    <glyph glyph-name="cid1" horiz-adv-x="250" 
 />
    <glyph glyph-name="cid1" horiz-adv-x="250" 
 />
    <glyph glyph-name="cid1" unicode="&#xd;" horiz-adv-x="250" 
 />
    <glyph glyph-name="cid1" horiz-adv-x="250" 
 />
    <glyph glyph-name="cid1" horiz-adv-x="250" 
 />
    <glyph glyph-name="cid1" unicode="&#xa;" horiz-adv-x="250" 
 />
    <glyph glyph-name="cid1" unicode="&#x9;" horiz-adv-x="250" 
 />
    <glyph glyph-name="cid1" horiz-adv-x="250" 
 />
    <glyph glyph-name="cid1" horiz-adv-x="250" 
 />
    <glyph glyph-name="cid1" horiz-adv-x="250" 
 />
    <glyph glyph-name="cid1" horiz-adv-x="250" 
 />
    <glyph glyph-name="cid1" horiz-adv-x="250" 
 />
    <glyph glyph-name="cid1" horiz-adv-x="250" 
 />
    <glyph glyph-name="cid1" horiz-adv-x="250" 
 />
    <glyph glyph-name="cid1" horiz-adv-x="250" 
 />
    <glyph glyph-name="cid2" unicode="!" horiz-adv-x="268" 
d="M134 74q20 0 33 -13t13 -32t-13 -32t-33 -13t-33 13t-13 32t13 32t33 13zM134 729q25 0 25 -22l-5 -502q0 -20 -20 -20t-20 20l-5 502q0 22 25 22z" />
    <glyph glyph-name="cid3" unicode="&#x22;" horiz-adv-x="364" 
d="M120 729q11 0 19 -5.5t7 -16.5l-8 -205q0 -17 -18 -17t-18 17l-8 205q-1 11 7 16.5t19 5.5zM244 729q11 0 19 -5.5t7 -16.5l-8 -205q0 -17 -18 -17t-18 17l-8 205q-1 11 7 16.5t19 5.5z" />
    <glyph glyph-name="cid4" unicode="#" horiz-adv-x="572" 
d="M235 718q20 -2 17 -20l-27 -190h163l28 194q3 18 22 16q20 -2 17 -20l-27 -190h99q16 0 16 -20q0 -8 -4 -13t-12 -5h-105l-30 -217h102q16 0 16 -20q0 -8 -4 -13t-12 -5h-108l-27 -194q-3 -18 -22 -16q-20 2 -17 20l27 190h-164l-27 -194q-3 -18 -22 -16q-20 2 -17 20
l27 190h-100q-8 0 -11.5 5t-3.5 13q0 20 15 20h105l31 217h-103q-8 0 -11.5 5t-3.5 13q0 20 15 20h108l28 194q3 18 22 16zM189 253h163l31 217h-164z" />
    <glyph glyph-name="cid5" unicode="$" horiz-adv-x="588" 
d="M315 57q82 5 128 42t46 91v14q0 26 -6.5 45t-25.5 34.5t-53 29t-89 28.5v-284zM278 662q-75 -5 -121 -37.5t-46 -87.5v-13q0 -23 6.5 -41.5t24.5 -33.5t50.5 -28.5t85.5 -26.5v268zM297 774q8 0 13 -3.5t5 -12.5v-55q49 -2 95 -15t81 -35q8 -5 9 -13t-4 -16
q-10 -16 -27 -6q-35 20 -75 31t-79 13v-277q67 -17 109 -34t66 -37.5t33 -46t9 -59.5v-21q0 -33 -14.5 -63t-42.5 -53t-68.5 -37.5t-91.5 -17.5v-66q0 -9 -5 -12.5t-13 -3.5q-19 0 -19 16v65q-60 2 -114 19t-97 46q-8 5 -10 13.5t3 16.5q11 19 30 7q42 -29 89.5 -44.5
t98.5 -16.5v294q-65 14 -106 32t-64 39.5t-31.5 47t-8.5 54.5v16q0 71 56 115t154 49v55q0 16 19 16z" />
    <glyph glyph-name="cid6" unicode="%" horiz-adv-x="862" 
d="M224 726q77 0 113.5 -45.5t36.5 -127.5v-23q0 -82 -36.5 -127.5t-113.5 -45.5t-113.5 45.5t-36.5 127.5v23q0 82 36.5 127.5t113.5 45.5zM224 689q-55 0 -82.5 -33t-27.5 -105v-19q0 -72 27.5 -105t82.5 -33t82.5 33t27.5 105v19q0 72 -27.5 105t-82.5 33zM651 715
q16 -8 7 -24l-419 -680q-9 -15 -26 -6q-16 8 -7 24l419 680q9 15 26 6zM638 363q77 0 113.5 -45.5t36.5 -127.5v-23q0 -82 -36.5 -127.5t-113.5 -45.5t-113.5 45.5t-36.5 127.5v23q0 82 36.5 127.5t113.5 45.5zM638 326q-55 0 -82.5 -33t-27.5 -105v-19q0 -72 27.5 -105
t82.5 -33t82.5 33t27.5 105v19q0 72 -27.5 105t-82.5 33z" />
    <glyph glyph-name="cid7" unicode="&#x26;" horiz-adv-x="641" 
d="M294 726q39 0 70 -11.5t52.5 -30.5t32.5 -42.5t11 -47.5v-14q0 -25 -8 -48.5t-27 -47t-50.5 -47.5t-77.5 -50l198 -229q26 42 40 92t16 102q0 9 6.5 13.5t14.5 3.5q20 -2 20 -19q-2 -60 -19.5 -117.5t-50.5 -105.5l82 -93q7 -8 6 -15.5t-8 -12.5q-8 -6 -15.5 -5t-12.5 7
l-76 87q-42 -47 -100.5 -74.5t-136.5 -27.5q-44 0 -84.5 12t-71.5 34t-49.5 53.5t-18.5 70.5v13q0 34 8.5 61t30.5 51.5t60 50.5t97 58l-20 24q-15 18 -30.5 36.5t-28 38.5t-20 41.5t-7.5 44.5v10q0 29 12 53.5t34 42.5t52.5 28t68.5 10zM266 33q69 0 119.5 25t85.5 67
l-211 242q-58 -32 -93 -56.5t-53.5 -46.5t-24.5 -43.5t-6 -46.5v-9q0 -29 14 -53t39 -41.5t58.5 -27.5t71.5 -10zM170 584q0 -38 23 -71.5t61 -76.5l16 -19q41 23 69 43.5t45.5 40.5t25.5 40.5t8 42.5v5q0 41 -32 69t-92 28q-57 0 -90.5 -27t-33.5 -70v-5z" />
    <glyph glyph-name="cid8" unicode="'" horiz-adv-x="240" 
d="M120 729q11 0 19 -5.5t7 -16.5l-8 -205q0 -17 -18 -17t-18 17l-8 205q-1 11 7 16.5t19 5.5z" />
    <glyph glyph-name="cid9" unicode="(" horiz-adv-x="297" 
d="M235 796q14 -9 5 -23q-63 -93 -93 -198.5t-30 -222.5v-28q0 -117 30 -222.5t93 -198.5q9 -14 -5 -23q-13 -8 -24 4q-72 87 -107.5 202.5t-35.5 242.5v18q0 127 35.5 242.5t107.5 202.5q11 12 24 4z" />
    <glyph glyph-name="cid10" unicode=")" horiz-adv-x="297" 
d="M62 796q13 8 24 -4q72 -87 107.5 -202.5t35.5 -242.5v-18q0 -127 -35.5 -242.5t-107.5 -202.5q-11 -12 -24 -4q-14 9 -5 23q63 93 93 198.5t30 222.5v28q0 117 -30 222.5t-93 198.5q-9 14 5 23z" />
    <glyph glyph-name="cid11" unicode="*" horiz-adv-x="453" 
d="M226 742q11 0 17.5 -5.5t5.5 -14.5l-8 -152l129 81q7 5 14.5 2.5t12.5 -11.5q5 -8 3 -16t-10 -12l-137 -71l137 -70q8 -4 10 -12t-3 -16q-5 -9 -12.5 -11.5t-14.5 2.5l-128 80l7 -150q1 -9 -5.5 -14.5t-17.5 -5.5t-17.5 5.5t-5.5 14.5l7 150l-127 -80q-7 -5 -14.5 -2.5
t-12.5 11.5q-10 19 7 28l136 70l-136 71q-17 9 -7 28q5 9 12.5 11.5t14.5 -2.5l127 -80l-7 151q-1 9 5.5 14.5t17.5 5.5z" />
    <glyph glyph-name="cid12" unicode="+" horiz-adv-x="593" 
d="M297 608q9 0 15.5 -4t6.5 -14v-209h204q8 0 12 -6t4 -15q0 -8 -4 -14t-12 -6h-204v-224q0 -10 -6.5 -14t-15.5 -4t-16 4t-7 14v224h-204q-8 0 -12 6t-4 14q0 9 4 15t12 6h204v209q0 10 7 14t16 4z" />
    <glyph glyph-name="cid13" unicode="," horiz-adv-x="212" 
d="M117 74q32 -3 23 -38l-48 -175q-6 -21 -26 -18q-11 2 -14 8t-1 17l28 178q2 17 12.5 23.5t25.5 4.5z" />
    <glyph glyph-name="cid14" unicode="-" horiz-adv-x="412" 
d="M341 382q17 0 17 -22q0 -9 -4 -15t-13 -6h-270q-9 0 -13 6t-4 15q0 22 17 22h270z" />
    <glyph glyph-name="cid15" unicode="." horiz-adv-x="212" 
d="M106 74q20 0 33 -13t13 -32t-13 -32t-33 -13t-33 13t-13 32t13 32t33 13z" />
    <glyph glyph-name="cid16" unicode="/" horiz-adv-x="388" 
d="M346 798q18 -7 13 -24l-290 -885q-3 -9 -11 -11.5t-16 0.5q-18 7 -13 24l290 885q3 9 11 11.5t16 -0.5z" />
    <glyph glyph-name="cid17" unicode="0" horiz-adv-x="590" 
d="M295 726q128 0 182 -84.5t54 -251.5v-61q0 -167 -54 -251.5t-182 -84.5t-182 84.5t-54 251.5v61q0 167 54 251.5t182 84.5zM295 684q-54 0 -90.5 -18.5t-59 -55.5t-32 -93.5t-9.5 -132.5v-49q0 -76 9.5 -132.5t32 -93.5t59 -55.5t90.5 -18.5t90.5 18.5t59 55.5t32 93.5
t9.5 132.5v49q0 76 -9.5 132.5t-32 93.5t-59 55.5t-90.5 18.5z" />
    <glyph glyph-name="cid18" unicode="1" horiz-adv-x="590" 
d="M356 718q25 0 25 -20v-679q0 -10 -7 -14t-17 -4q-8 0 -15 4t-7 14v642l-191 -125q-8 -5 -15 -2t-12 11q-4 7 -4 14.5t8 12.5l199 131q9 6 18.5 10.5t17.5 4.5z" />
    <glyph glyph-name="cid19" unicode="2" horiz-adv-x="590" 
d="M300 726q48 0 85.5 -13t63.5 -36t39.5 -54.5t13.5 -69.5v-8q0 -27 -5 -50t-15.5 -45.5t-27.5 -46t-42 -51.5l-268 -306h371q9 0 13 -6t4 -15t-4 -15t-13 -6h-393q-22 0 -30 6t-8 18q0 7 4 15t20 26l267 304q24 28 40 50t25.5 41.5t13 38.5t3.5 40v6q0 63 -39.5 99
t-115.5 36q-61 0 -102 -27.5t-71 -76.5q-5 -8 -13 -9.5t-16 3.5q-18 12 -8 29q31 52 81.5 87.5t126.5 35.5z" />
    <glyph glyph-name="cid20" unicode="3" horiz-adv-x="590" 
d="M290 726q48 0 86.5 -13t65.5 -36.5t42 -57t15 -73.5v-5q0 -21 -6 -44.5t-21 -46t-40 -41.5t-64 -32q76 -13 117.5 -58t41.5 -109v-10q0 -40 -13.5 -77t-41.5 -66t-71.5 -46.5t-104.5 -17.5t-117.5 19.5t-97.5 49.5q-18 13 -6 32q13 19 31 6q40 -29 88.5 -47t102.5 -18
q47 0 82 14.5t58 38t34 52.5t11 59v8q0 47 -19.5 76t-48 44.5t-60 21t-56.5 5.5h-66q-9 0 -13 6t-4 15t4 15t13 6h64q24 0 51.5 8t51.5 25.5t39.5 45.5t15.5 69v3q0 60 -42.5 98.5t-120.5 38.5q-54 0 -93 -22t-67 -60q-12 -17 -29 -4q-18 13 -6 30q26 39 76 68.5t118 29.5z
" />
    <glyph glyph-name="cid21" unicode="4" horiz-adv-x="590" 
d="M424 713q8 -5 10.5 -13t-4.5 -18l-328 -471h312v220q0 10 7 14t15 4q10 0 17 -4t7 -14v-220h97q9 0 13 -6t4 -15t-4 -15t-13 -6h-97v-150q0 -10 -7 -14t-17 -4q-8 0 -15 4t-7 14v150h-331q-22 0 -30 6t-8 18q0 7 3.5 14t17.5 27l329 475q12 16 29 4z" />
    <glyph glyph-name="cid22" unicode="5" horiz-adv-x="590" 
d="M477 715q9 0 13 -6t4 -15t-4 -15t-13 -6h-303l-20 -299q26 26 69 44.5t94 18.5q103 0 161 -57.5t58 -158.5v-12q0 -38 -12 -76.5t-40 -69.5t-74 -50.5t-113 -19.5q-61 0 -117.5 19t-97.5 48q-18 13 -6 32q12 18 31 6q40 -28 88.5 -45.5t101.5 -17.5q54 0 90.5 16t59.5 41
t33 56.5t10 61.5v8q0 93 -46.5 135t-131.5 42q-48 0 -83 -16t-62 -41q-8 -8 -15 -12t-18 -4q-10 0 -18 5.5t-7 16.5l19 314q2 32 14 44.5t45 12.5h290z" />
    <glyph glyph-name="cid23" unicode="6" horiz-adv-x="590" 
d="M309 414q-42 0 -76.5 -14t-59 -37.5t-38 -55t-13.5 -67.5v-3q0 -45 14.5 -82.5t39 -64t58.5 -41t73 -14.5q38 0 71.5 11.5t58 35t38.5 58t14 79.5v8q0 90 -46 138.5t-134 48.5zM332 726q50 0 92.5 -12t71.5 -29q17 -10 7 -29q-9 -17 -28 -7q-29 16 -62.5 25.5t-77.5 9.5
q-60 0 -100.5 -25.5t-66 -71.5t-38.5 -110t-17 -140q12 28 32 49.5t46.5 36.5t57 23t63.5 8q50 0 91 -15t70.5 -43.5t45.5 -69t16 -91.5v-17q0 -55 -18 -97t-49 -70.5t-72.5 -43t-88.5 -14.5q-46 0 -89 16.5t-76 52.5t-52.5 92.5t-19.5 136.5v13q0 112 17.5 192t51 131
t82.5 75t111 24z" />
    <glyph glyph-name="cid24" unicode="7" horiz-adv-x="590" 
d="M502 715q22 0 30 -6t8 -18q0 -13 -17 -50l-286 -628q-5 -9 -13.5 -11t-16.5 2q-8 3 -12 10t0 16l294 643h-408q-9 0 -13 6t-4 15t4 15t13 6h421z" />
    <glyph glyph-name="cid25" unicode="8" horiz-adv-x="590" 
d="M295 684q-40 0 -70.5 -11t-51.5 -30t-31.5 -44.5t-10.5 -54.5v-8q0 -31 11.5 -58t32.5 -47t51.5 -31.5t69.5 -11.5q38 0 68.5 11.5t51.5 31.5t32 47t11 58v8q0 29 -11 54.5t-32 44.5t-51.5 30t-69.5 11zM295 347q-40 0 -74 -11t-58.5 -31t-38.5 -49.5t-14 -65.5v-8
q0 -30 12.5 -56.5t36 -46.5t58 -32t78.5 -12q45 0 79.5 12t58 32t35.5 46.5t12 56.5v8q0 35 -13.5 64t-38 49.5t-58.5 32t-75 11.5zM295 726q44 0 82 -13t65.5 -36.5t43 -55.5t15.5 -71v-13q0 -65 -35 -107t-88 -63q72 -19 109 -65.5t37 -106.5v-12q0 -43 -17 -78t-47.5 -60
t-72.5 -38.5t-92 -13.5t-92 13.5t-72.5 38.5t-47.5 60t-17 78v12q0 60 37 107t107 65q-52 23 -86.5 64t-34.5 106v13q0 39 15.5 71t43 55.5t65.5 36.5t82 13z" />
    <glyph glyph-name="cid26" unicode="9" horiz-adv-x="590" 
d="M289 726q48 0 91 -16.5t75.5 -52t51.5 -91.5t19 -136v-15q0 -120 -17.5 -201t-51 -130t-82 -70t-111.5 -21q-49 0 -90.5 11.5t-72.5 30.5q-18 12 -7 31t29 8q29 -18 63.5 -28.5t78.5 -10.5q54 0 94 19.5t66.5 61t40.5 106.5t17 157q-12 -28 -32 -49.5t-46.5 -36.5
t-57 -23t-63.5 -8q-50 0 -91.5 15t-70.5 43.5t-45 69t-16 91.5v20q0 55 18 97t49 70.5t72.5 43t88.5 14.5zM289 684q-38 0 -71.5 -11.5t-58 -35t-38.5 -58t-14 -79.5v-11q0 -90 46 -138.5t134 -48.5q42 0 76.5 14t59 37.5t38 55.5t13.5 68v4q0 46 -13.5 84t-38.5 64
t-59 40.5t-74 14.5z" />
    <glyph glyph-name="cid27" unicode=":" horiz-adv-x="264" 
d="M132 570q20 0 33 -13t13 -32t-13 -32t-33 -13t-33 13t-13 32t13 32t33 13zM132 192q20 0 33 -13t13 -32t-13 -32t-33 -13t-33 13t-13 32t13 32t33 13z" />
    <glyph glyph-name="cid28" unicode=";" horiz-adv-x="264" 
d="M144 192q32 -3 23 -38l-48 -175q-6 -21 -26 -18q-11 2 -14 8t-1 17l28 178q2 17 12.5 23.5t25.5 4.5zM132 570q20 0 33 -13t13 -32t-13 -32t-33 -13t-33 13t-13 32t13 32t33 13z" />
    <glyph glyph-name="cid29" unicode="&#x3c;" horiz-adv-x="626" 
d="M542 610q10 -20 -6 -29l-418 -220v-1l418 -220q16 -9 6 -29q-10 -18 -28 -8l-421 227q-15 8 -18.5 14t-3.5 17q0 10 3.5 16t18.5 14l421 227q18 10 28 -8z" />
    <glyph glyph-name="cid30" unicode="=" horiz-adv-x="598" 
d="M506 486q9 0 13 -6t4 -15t-4 -15t-13 -6h-414q-9 0 -13 6t-4 15t4 15t13 6h414zM506 276q9 0 13 -6t4 -15t-4 -15t-13 -6h-414q-9 0 -13 6t-4 15t4 15t13 6h414z" />
    <glyph glyph-name="cid31" unicode="&#x3e;" horiz-adv-x="626" 
d="M533 391q15 -8 18.5 -14t3.5 -16q0 -11 -3.5 -17t-18.5 -14l-421 -227q-18 -10 -28 8q-10 20 6 29l418 220v1l-418 220q-16 9 -6 29q10 18 28 8z" />
    <glyph glyph-name="cid32" unicode="?" horiz-adv-x="506" 
d="M248 726q94 0 148.5 -48t54.5 -130v-10q0 -52 -26.5 -90.5t-69.5 -76.5q-35 -32 -55.5 -54.5t-31 -41t-13.5 -35.5t-3 -37q0 -10 -7.5 -14t-15.5 -4t-15.5 4t-7.5 14q0 25 3.5 45t14.5 40.5t31 44t54 53.5q50 46 73 79.5t23 72.5v10q0 63 -42.5 99.5t-111.5 36.5
q-56 0 -94 -19.5t-68 -49.5q-7 -7 -15.5 -7t-15.5 7q-15 15 0 30q14 15 34 30t44.5 26t53 18t58.5 7zM229 74q20 0 33 -13t13 -32t-13 -32t-33 -13t-33 13t-13 32t13 32t33 13z" />
    <glyph glyph-name="cid33" unicode="@" horiz-adv-x="981" 
d="M479 489q-67 0 -103.5 -41t-36.5 -122v-40q0 -79 31.5 -122t108.5 -43q68 0 105 41t37 102v116q0 20 -10.5 39.5t-29.5 35t-45 25t-57 9.5zM481 753q109 0 192 -31t138.5 -87t84 -133.5t28.5 -170.5v-4q0 -41 -7.5 -84.5t-27 -80.5t-52.5 -60.5t-85 -23.5q-40 0 -74.5 21
t-48.5 66h-1q-11 -24 -30 -40.5t-41 -26t-44.5 -14t-40.5 -4.5q-46 0 -79.5 15t-55 41.5t-32 63.5t-10.5 81v50q0 49 13.5 86.5t37.5 62.5t57 37.5t72 12.5q51 0 90 -19.5t55 -49.5v46q0 10 7 14t16 4q8 0 15 -4t7 -14v-305q0 -21 7.5 -36.5t20 -26t28 -15.5t31.5 -5
q62 0 95.5 53t33.5 152v4q0 86 -24.5 156.5t-74 121t-124.5 78.5t-177 28q-86 0 -156.5 -28t-120.5 -79.5t-77.5 -125t-27.5 -163.5v-7q0 -93 26 -168.5t76.5 -129.5t125.5 -83.5t173 -29.5q81 0 150 15.5t127 43.5q8 4 15.5 2t12.5 -10t3 -16.5t-10 -12.5
q-60 -29 -133.5 -46t-161.5 -17q-102 0 -185 31t-141 89t-89.5 142t-31.5 189v9q0 94 29 174t84 138.5t134 91t178 32.5z" />
    <glyph glyph-name="cid34" unicode="A" horiz-adv-x="645" 
d="M324 718q20 0 28 -18l259 -670q4 -10 0 -17t-13 -10q-22 -8 -30 11l-83 218h-325l-84 -218q-8 -19 -30 -11q-20 7 -12 27l262 670q7 18 28 18zM324 667q-12 -39 -27 -80t-33 -88l-88 -227h294l-85 227q-17 44 -33 87t-28 81z" />
    <glyph glyph-name="cid35" unicode="B" horiz-adv-x="629" 
d="M324 715q114 0 167 -43t53 -132v-18q0 -24 -6.5 -46.5t-20.5 -41.5t-36.5 -33.5t-54.5 -22.5q72 -10 111.5 -49t39.5 -114v-22q0 -89 -51.5 -139t-168.5 -50h-201q-33 0 -46 12.5t-13 44.5v597q0 32 13 44.5t46 12.5h168zM142 45h219q170 0 170 148v19q0 70 -45 107
t-152 37h-192v-311zM142 397h191q75 0 120.5 30.5t45.5 97.5v15q0 63 -38.5 98.5t-132.5 35.5h-186v-277z" />
    <glyph glyph-name="cid36" unicode="C" horiz-adv-x="639" 
d="M347 726q66 0 116 -14.5t88 -38.5q17 -11 6 -30q-11 -18 -28 -7q-19 12 -38 20.5t-41 14.5t-47.5 9t-56.5 3q-119 0 -175 -77.5t-56 -221.5v-49q0 -143 56.5 -220.5t176.5 -77.5q66 0 115 16.5t87 47.5q7 5 15.5 4t14.5 -9q15 -20 -3 -33q-40 -32 -95.5 -51t-133.5 -19
q-143 0 -211 88.5t-68 247.5v61q0 160 68.5 248t209.5 88z" />
    <glyph glyph-name="cid37" unicode="D" horiz-adv-x="674" 
d="M315 715q147 0 219.5 -82t72.5 -227v-93q0 -72 -20 -129.5t-57.5 -97.5t-91.5 -61t-123 -21h-159q-33 0 -46 12.5t-13 44.5v597q0 32 13 44.5t46 12.5h159zM143 46h169q118 0 183.5 70.5t65.5 196.5v88q0 64 -14.5 114.5t-44.5 85.5t-77.5 53.5t-113.5 18.5h-168v-627z
" />
    <glyph glyph-name="cid38" unicode="E" horiz-adv-x="604" 
d="M505 715q9 0 13 -6t4 -15t-4 -15t-13 -6h-362v-283h342q8 0 12 -6t4 -14q0 -9 -4 -15t-12 -6h-342v-303h369q9 0 13 -6t4 -15t-4 -15t-13 -6h-356q-33 0 -46 12.5t-13 44.5v597q0 32 13 44.5t46 12.5h349z" />
    <glyph glyph-name="cid39" unicode="F" horiz-adv-x="572" 
d="M495 715q9 0 13 -6t4 -15t-4 -15t-13 -6h-352v-294h332q8 0 12 -6t4 -14q0 -9 -4 -15t-12 -6h-332v-319q0 -10 -7 -14t-17 -4q-8 0 -15 4t-7 14v639q0 32 13 44.5t46 12.5h339z" />
    <glyph glyph-name="cid40" unicode="G" horiz-adv-x="666" 
d="M356 726q69 0 119 -14.5t88 -38.5q17 -11 6 -30q-11 -18 -28 -7q-38 23 -79.5 35t-106.5 12q-126 0 -183 -78t-57 -221v-49q0 -145 57.5 -222.5t183.5 -77.5q124 0 193 45v253h-181q-9 0 -13 6t-4 15t4 15t13 6h164q35 0 48 -12.5t13 -46.5v-219q0 -24 -7.5 -37.5
t-27.5 -24.5q-31 -17 -81 -29.5t-123 -12.5q-146 0 -215.5 88t-69.5 248v61q0 80 17 142.5t52 105.5t89.5 65.5t128.5 22.5z" />
    <glyph glyph-name="cid41" unicode="H" horiz-adv-x="691" 
d="M119 718q10 0 17 -4t7 -14v-302h405v302q0 10 7 14t15 4q10 0 17 -4t7 -14v-681q0 -10 -7 -14t-17 -4q-8 0 -15 4t-7 14v338h-405v-338q0 -10 -7 -14t-17 -4q-8 0 -15 4t-7 14v681q0 10 7 14t15 4z" />
    <glyph glyph-name="cid42" unicode="I" horiz-adv-x="240" 
d="M119 718q10 0 17 -4t7 -14v-681q0 -10 -7 -14t-17 -4q-8 0 -15 4t-7 14v681q0 10 7 14t15 4z" />
    <glyph glyph-name="cid43" unicode="J" horiz-adv-x="458" 
d="M338 718q10 0 17 -4t7 -14v-517q0 -94 -45 -142t-133 -48q-44 0 -81.5 11t-66.5 31q-8 5 -9.5 14t3.5 18q5 8 13 10.5t17 -3.5q26 -17 55.5 -27.5t67.5 -10.5q133 0 133 152v512q0 10 7 14t15 4z" />
    <glyph glyph-name="cid44" unicode="K" horiz-adv-x="645" 
d="M119 718q10 0 17 -4t7 -14v-374l379 385q7 8 16.5 7.5t15.5 -6.5t7.5 -14.5t-6.5 -16.5l-267 -268l292 -377q13 -18 -5 -31q-17 -13 -32 7l-288 370l-112 -113v-250q0 -10 -7 -14t-17 -4q-8 0 -15 4t-7 14v681q0 10 7 14t15 4z" />
    <glyph glyph-name="cid45" unicode="L" horiz-adv-x="548" 
d="M119 718q10 0 17 -4t7 -14v-654h358q9 0 13 -6t4 -15t-4 -15t-13 -6h-345q-33 0 -46 12.5t-13 44.5v639q0 10 7 14t15 4z" />
    <glyph glyph-name="cid46" unicode="M" horiz-adv-x="836" 
d="M130 716q11 0 17.5 -5.5t14.5 -19.5l258 -519l254 519q7 14 14 19.5t18 5.5h2q31 0 31 -47v-650q0 -10 -7 -14t-15 -4q-9 0 -15.5 4t-6.5 14v626q-14 -31 -26 -57.5t-27 -57.5l-196 -394q-9 -17 -27 -17q-19 0 -27 17l-197 394q-15 31 -27.5 57.5t-26.5 57.5v-626
q0 -10 -6.5 -14t-15.5 -4q-8 0 -15 4t-7 14v650q0 47 31 47h2z" />
    <glyph glyph-name="cid47" unicode="N" horiz-adv-x="689" 
d="M569 718q9 0 16 -4t7 -14v-644q0 -29 -10.5 -41t-28.5 -12q-12 0 -20 5.5t-18 21.5l-345 577q-7 11 -14.5 26.5t-13.5 30.5v-645q0 -10 -7 -14t-16 -4q-8 0 -15 4t-7 14v644q0 29 10.5 41t28.5 12q12 0 20 -5.5t18 -21.5l345 -577q7 -11 14.5 -26.5t13.5 -30.5v645
q0 10 7 14t15 4z" />
    <glyph glyph-name="cid48" unicode="O" horiz-adv-x="696" 
d="M348 726q142 0 210.5 -88t68.5 -248v-61q0 -160 -68.5 -248t-210.5 -88t-210.5 88t-68.5 248v61q0 160 68.5 248t210.5 88zM348 684q-122 0 -177.5 -77t-55.5 -223v-49q0 -146 55.5 -223t177.5 -77t177.5 77t55.5 223v49q0 146 -55.5 223t-177.5 77z" />
    <glyph glyph-name="cid49" unicode="P" horiz-adv-x="597" 
d="M322 715q114 0 173 -52t59 -152v-17q0 -102 -60.5 -153.5t-174.5 -51.5h-176v-270q0 -10 -7 -14t-17 -4q-8 0 -15 4t-7 14v639q0 32 13 44.5t46 12.5h166zM143 331h171q54 0 91 11.5t60 33t33 51.5t10 68v14q0 37 -10 67t-32.5 51.5t-57.5 33.5t-86 12h-179v-342z" />
    <glyph glyph-name="cid50" unicode="Q" horiz-adv-x="696" 
d="M348 726q142 0 210.5 -88t68.5 -248v-61q0 -166 -71 -251l74 -74q7 -7 6 -15.5t-7 -14.5t-14 -7t-15 6l-74 75q-32 -26 -75.5 -40.5t-102.5 -14.5q-142 0 -210.5 88t-68.5 248v61q0 160 68.5 248t210.5 88zM348 684q-122 0 -177.5 -77t-55.5 -223v-49q0 -146 55.5 -223
t177.5 -77q92 0 146 45l-99 99q-7 7 -6 15.5t7 14.5t14 7t15 -6l99 -99q57 75 57 224v49q0 146 -55.5 223t-177.5 77z" />
    <glyph glyph-name="cid51" unicode="R" horiz-adv-x="629" 
d="M316 715q54 0 98 -10.5t75 -33t47.5 -57.5t16.5 -85v-17q0 -73 -36 -119t-104 -64l145 -297q9 -19 -10 -28q-20 -10 -30 10l-151 306q-26 -3 -54 -3h-170v-298q0 -10 -7 -14t-17 -4q-8 0 -15 4t-7 14v639q0 32 13 44.5t46 12.5h160zM143 359h166q103 0 150.5 39.5
t47.5 114.5v14q0 146 -190 146h-174v-314z" />
    <glyph glyph-name="cid52" unicode="S" horiz-adv-x="600" 
d="M304 726q61 0 112 -13t86 -36q8 -5 10 -13.5t-3 -16.5q-12 -18 -29 -7q-33 20 -78.5 32t-96.5 12q-38 0 -71 -9.5t-57 -27t-37.5 -42.5t-13.5 -55v-16q0 -29 9 -51t29.5 -38.5t53.5 -29t81 -22.5q73 -16 120 -33t74.5 -39.5t38 -52t10.5 -70.5v-23q0 -39 -17 -72.5
t-48.5 -57.5t-75.5 -38t-98 -14q-68 0 -125.5 18.5t-101.5 48.5q-18 12 -7 31t29 8q45 -29 94.5 -46.5t112.5 -17.5q42 0 77 10.5t60.5 29.5t39.5 44.5t14 55.5v19q0 33 -8.5 56t-31.5 40.5t-64.5 31t-107.5 28.5q-51 11 -89 25.5t-63.5 35.5t-38.5 50t-13 69v22
q0 40 17 72.5t47 55t71 34.5t89 12z" />
    <glyph glyph-name="cid53" unicode="T" horiz-adv-x="592" 
d="M547 715q9 0 13 -6t4 -15t-4 -15t-13 -6h-228v-654q0 -10 -7 -14t-17 -4q-8 0 -15 4t-7 14v654h-228q-9 0 -13 6t-4 15t4 15t13 6h502z" />
    <glyph glyph-name="cid54" unicode="U" horiz-adv-x="684" 
d="M113 718q10 0 17 -4t7 -14v-414q0 -126 48 -187.5t157 -61.5t157 61.5t48 187.5v414q0 10 7 14t17 4q8 0 15 -4t7 -14v-414q0 -151 -61 -222t-190 -71t-190 71t-61 222v414q0 10 7 14t15 4z" />
    <glyph glyph-name="cid55" unicode="V" horiz-adv-x="632" 
d="M584 716q9 -3 13.5 -9.5t0.5 -17.5l-252 -669q-7 -19 -29 -19q-23 0 -30 19l-253 668q-4 11 0.5 18t13.5 10q23 8 30 -11l239 -644l238 644q8 19 29 11z" />
    <glyph glyph-name="cid56" unicode="W" horiz-adv-x="968" 
d="M484 718q25 0 32 -25l180 -628l177 636q6 21 28 16t16 -26l-189 -665q-8 -25 -33 -25t-33 25l-178 631l-178 -631q-8 -25 -33 -25t-33 25l-189 664q-6 22 17 27q22 5 28 -16l177 -637l179 629q7 25 32 25z" />
    <glyph glyph-name="cid57" unicode="X" horiz-adv-x="621" 
d="M549 714q8 -5 10.5 -12.5t-4.5 -17.5l-211 -312l225 -337q12 -18 -5 -30q-20 -12 -34 8l-216 329l-224 -329q-13 -19 -31 -8q-8 5 -10.5 12.5t4.5 17.5l233 337l-220 312q-12 18 5 30q20 12 34 -8l212 -303l201 303q13 19 31 8z" />
    <glyph glyph-name="cid58" unicode="Y" horiz-adv-x="602" 
d="M546 715q8 -5 11.5 -12t-1.5 -15l-229 -389v-280q0 -10 -7 -14t-17 -4q-8 0 -15 4t-7 14v280l-233 386q-11 18 5 29q8 5 17 4t14 -10l221 -367l212 367q11 17 29 7z" />
    <glyph glyph-name="cid59" unicode="Z" horiz-adv-x="612" 
d="M507 715q22 0 30 -6t8 -18q0 -7 -3.5 -14t-17.5 -27l-428 -605h453q9 0 13 -6t4 -14q0 -9 -4 -15t-13 -6h-471q-22 0 -30 6t-8 18q0 7 3.5 14t17.5 27l428 605h-409q-9 0 -13 6t-4 15q0 8 4 14t13 6h427z" />
    <glyph glyph-name="cid60" unicode="[" horiz-adv-x="331" 
d="M277 796q8 0 12 -6t4 -15q0 -8 -4 -14t-12 -6h-149v-834h149q8 0 12 -6t4 -15q0 -8 -4 -14t-12 -6h-134q-33 0 -46 12.5t-13 44.5v802q0 32 13 44.5t46 12.5h134z" />
    <glyph glyph-name="cid61" unicode="\" horiz-adv-x="943" 
d="M478 718q23 0 29 -25l72 -282h175l73 290q6 21 25 16q22 -5 16 -27l-72 -279h102q15 0 15 -19t-15 -19h-111l-89 -347q-3 -12 -11.5 -18.5t-18.5 -6.5q-11 0 -19 6.5t-11 18.5l-88 347h-144l-88 -347q-3 -12 -11 -18.5t-19 -6.5q-10 0 -18.5 6.5t-11.5 18.5l-89 347h-108
q-15 0 -15 19t15 19h98l-71 279q-6 22 16 27q19 5 25 -16l72 -290h175l73 282q6 25 29 25zM288 64l79 309h-156zM668 64l77 309h-156zM415 411h125l-62 246z" />
    <glyph glyph-name="cid62" unicode="]" horiz-adv-x="331" 
d="M188 796q33 0 46 -12.5t13 -44.5v-802q0 -32 -13 -44.5t-46 -12.5h-134q-8 0 -12 6t-4 15q0 8 4 14t12 6h149v834h-149q-8 0 -12 6t-4 15q0 8 4 14t12 6h134z" />
    <glyph glyph-name="cid63" unicode="^" horiz-adv-x="532" 
d="M266 737q11 0 17 -4t14 -17l162 -278q5 -9 2.5 -15.5t-9.5 -10.5q-19 -10 -28 5l-158 274l-158 -274q-9 -15 -28 -5q-7 4 -9.5 10.5t2.5 15.5l163 278q8 13 13.5 17t16.5 4z" />
    <glyph glyph-name="cid64" unicode="_" horiz-adv-x="468" 
d="M447 -46q17 0 17 -21q0 -19 -17 -19h-427q-16 0 -16 19q0 21 16 21h427z" />
    <glyph glyph-name="cid65" unicode="`" horiz-adv-x="330" 
d="M115 754q8 8 18 8t17 -9l86 -115q9 -13 -3 -23q-14 -10 -24 0l-97 106q-15 17 3 33z" />
    <glyph glyph-name="cid66" unicode="a" horiz-adv-x="542" 
d="M248 262q-75 0 -107 -30t-32 -75v-8q0 -51 34 -82t99 -31q29 0 53 5t46 16q29 15 49.5 42.5t20.5 63.5v99h-163zM271 528q90 0 137 -46.5t47 -124.5v-338q0 -10 -7 -14t-15 -4t-15 4t-7 14v61h-1q-8 -16 -23 -31.5t-33 -25.5q-22 -12 -49.5 -19.5t-65.5 -7.5
q-80 0 -127.5 40.5t-47.5 112.5v7q0 31 10.5 57.5t33 46t57 30.5t81.5 11h164v48q0 69 -34 103.5t-108 34.5q-40 0 -76.5 -12.5t-68.5 -33.5q-8 -5 -15.5 -2.5t-12.5 9.5t-4 14.5t9 13.5q29 21 74 36.5t97 15.5z" />
    <glyph glyph-name="cid67" unicode="b" horiz-adv-x="582" 
d="M115 743q9 0 16 -4t7 -14v-294q20 41 64.5 69t106.5 28q101 0 153.5 -60.5t52.5 -180.5v-50q0 -122 -57.5 -181.5t-155.5 -59.5q-51 0 -96.5 20t-67.5 58h-1v-55q0 -10 -7 -14t-15 -4t-15 4t-7 14v706q0 10 7 14t15 4zM305 487q-29 0 -59 -11t-54 -31.5t-39.5 -50.5
t-15.5 -69v-160q0 -26 12 -49t34 -40.5t53 -28t68 -10.5q75 0 120.5 48t45.5 157v40q0 106 -40.5 155.5t-124.5 49.5z" />
    <glyph glyph-name="cid68" unicode="c" horiz-adv-x="513" 
d="M282 528q50 0 89.5 -11.5t68.5 -29.5q8 -5 9.5 -13t-3.5 -16q-10 -18 -28 -7q-26 17 -60.5 26.5t-75.5 9.5q-76 0 -123 -49t-47 -156v-40q0 -107 47 -156t126 -49q48 0 84.5 11.5t65.5 31.5q9 6 16 4t12 -9q13 -17 -5 -30q-32 -22 -74 -35.5t-100 -13.5q-99 0 -158 60
t-59 181v50q0 60 15.5 105.5t43.5 75.5t68 45t88 15z" />
    <glyph glyph-name="cid69" unicode="d" horiz-adv-x="582" 
d="M278 487q-75 0 -120.5 -48t-45.5 -157v-40q0 -106 40.5 -155.5t124.5 -49.5q29 0 59 11t54 31.5t39.5 50.5t15.5 69v161q0 25 -12.5 48.5t-34.5 40.5t-52.5 27.5t-67.5 10.5zM467 743q8 0 15 -4t7 -14v-706q0 -10 -7 -14t-15 -4t-15 4t-7 14v74h-1q-20 -41 -64.5 -69
t-106.5 -28q-101 0 -153.5 60.5t-52.5 180.5v50q0 122 57.5 181.5t155.5 59.5q51 0 96 -20t68 -57v274q0 10 7 14t16 4z" />
    <glyph glyph-name="cid70" unicode="e" horiz-adv-x="559" 
d="M281 488q-76 0 -122.5 -50t-46.5 -146v-5h336v7q0 96 -45 145t-122 49zM281 528q100 0 156 -62t56 -174v-2q0 -41 -44 -41h-337v-7q0 -107 47.5 -156.5t129.5 -49.5q49 0 87.5 11.5t68.5 31.5q19 12 29 -5t-6 -29q-32 -22 -78 -35.5t-104 -13.5q-100 0 -159.5 60.5
t-59.5 180.5v50q0 120 59 180.5t155 60.5z" />
    <glyph glyph-name="cid71" unicode="f" horiz-adv-x="355" 
d="M259 746q37 0 63 -10q17 -6 12 -23q-5 -18 -22 -13q-13 4 -24.5 5.5t-26.5 1.5q-50 0 -71.5 -27.5t-21.5 -84.5v-78h138q8 0 11.5 -5t3.5 -13q0 -19 -15 -19h-138v-461q0 -10 -7 -14t-16 -4q-8 0 -15 4t-7 14v461h-80q-15 0 -15 19q0 8 3.5 13t11.5 5h80v80
q0 76 35 112.5t101 36.5z" />
    <glyph glyph-name="cid72" unicode="g" horiz-adv-x="582" 
d="M280 528q51 0 96.5 -20t67.5 -58h1v52q0 10 7 14t15 4t15 -4t7 -14v-482q0 -58 -15 -99t-41.5 -67.5t-63 -38.5t-79.5 -12q-54 0 -92.5 11.5t-71.5 33.5q-9 6 -10 14.5t4 16.5q12 17 29 6q29 -20 62.5 -31t75.5 -11q73 0 115 42t42 135v87h-1q-20 -42 -64 -69.5
t-106 -27.5q-101 0 -153.5 60t-52.5 177v44q0 120 57 178.5t156 58.5zM278 487q-75 0 -120.5 -47.5t-45.5 -153.5v-34q0 -103 40.5 -152t124.5 -49q29 0 59 11t54 31.5t39.5 50.5t15.5 69v146q0 25 -12 48.5t-34 41t-53 28t-68 10.5z" />
    <glyph glyph-name="cid73" unicode="h" horiz-adv-x="585" 
d="M115 743q9 0 16 -4t7 -14v-290h1q5 13 18.5 29t35 30.5t51 24t68.5 9.5q93 0 139.5 -49.5t46.5 -127.5v-332q0 -10 -7 -14t-16 -4q-8 0 -15 4t-7 14v319q0 72 -34 110.5t-114 38.5q-43 0 -74.5 -15t-52 -37t-30.5 -46.5t-10 -42.5v-327q0 -10 -7 -14t-16 -4q-8 0 -15 4
t-7 14v706q0 10 7 14t15 4z" />
    <glyph glyph-name="cid74" unicode="i" horiz-adv-x="235" 
d="M117 520q9 0 16 -4t7 -14v-483q0 -10 -7 -14t-16 -4q-8 0 -15 4t-7 14v483q0 10 7 14t15 4zM117 701q17 0 28.5 -11t11.5 -28t-11.5 -28t-28.5 -11t-28.5 11t-11.5 28t11.5 28t28.5 11z" />
    <glyph glyph-name="cid75" unicode="j" horiz-adv-x="232" 
d="M114 701q17 0 28.5 -11t11.5 -28t-11.5 -28t-28.5 -11t-28.5 11t-11.5 28t11.5 28t28.5 11zM114 520q9 0 16 -4t7 -14v-545q0 -45 -8 -74t-24 -46t-39.5 -23.5t-54.5 -6.5q-42 0 -70 13q-18 9 -11 27q8 18 26 10q24 -11 54 -11q22 0 38 5t25.5 17.5t14 34t4.5 53.5v546
q0 10 7 14t15 4z" />
    <glyph glyph-name="cid76" unicode="k" horiz-adv-x="530" 
d="M115 743q9 0 16 -4t7 -14v-473l282 262q8 7 16.5 6.5t13.5 -6.5q5 -5 6.5 -13.5t-7.5 -16.5l-180 -164l215 -285q7 -8 4.5 -16t-9.5 -13t-14.5 -4.5t-14.5 8.5l-212 281l-100 -91v-181q0 -10 -7 -14t-16 -4q-8 0 -15 4t-7 14v706q0 10 7 14t15 4z" />
    <glyph glyph-name="cid77" unicode="l" horiz-adv-x="231" 
d="M115 743q9 0 16 -4t7 -14v-706q0 -10 -7 -14t-16 -4q-8 0 -15 4t-7 14v706q0 10 7 14t15 4z" />
    <glyph glyph-name="cid78" unicode="m" horiz-adv-x="889" 
d="M297 528q70 0 108 -29.5t52 -73.5q20 42 63.5 72.5t110.5 30.5q48 0 81 -15t53 -39.5t28.5 -56.5t8.5 -66v-332q0 -10 -7 -14t-16 -4q-8 0 -15 4t-7 14v320q0 34 -6.5 61.5t-22 46.5t-41 29.5t-63.5 10.5q-41 0 -70.5 -15t-48 -36.5t-27 -46t-8.5 -42.5v-328
q0 -10 -7 -14t-16 -4q-8 0 -15 4t-7 14v319q0 34 -6.5 62t-22 47t-41.5 29.5t-65 10.5q-41 0 -69.5 -15t-47 -37t-27 -46t-8.5 -43v-327q0 -10 -7 -14t-16 -4q-8 0 -15 4t-7 14v483q0 10 7 14t15 4t15 -4t7 -14v-67q8 16 21.5 32.5t33 30t45.5 22t60 8.5z" />
    <glyph glyph-name="cid79" unicode="n" horiz-adv-x="585" 
d="M312 528q93 0 139.5 -49.5t46.5 -127.5v-332q0 -10 -7 -14t-16 -4q-8 0 -15 4t-7 14v319q0 72 -34 110.5t-114 38.5q-43 0 -74.5 -15t-52 -37t-30.5 -46.5t-10 -42.5v-327q0 -10 -7 -14t-16 -4q-8 0 -15 4t-7 14v483q0 10 7 14t15 4t15 -4t7 -14v-68h1q5 13 18.5 29.5
t35 30.5t51.5 24t69 10z" />
    <glyph glyph-name="cid80" unicode="o" horiz-adv-x="580" 
d="M290 528q102 0 162.5 -61t60.5 -180v-50q0 -119 -60.5 -180t-162.5 -61t-162.5 61t-60.5 180v50q0 119 60.5 180t162.5 61zM290 487q-82 0 -130 -49.5t-48 -155.5v-40q0 -106 48 -155.5t130 -49.5t130 49.5t48 155.5v40q0 106 -48 155.5t-130 49.5z" />
    <glyph glyph-name="cid81" unicode="p" horiz-adv-x="582" 
d="M309 528q101 0 153.5 -60.5t52.5 -180.5v-50q0 -122 -57.5 -181.5t-155.5 -59.5q-51 0 -96.5 20t-67.5 58v-249q0 -10 -7 -14t-16 -4q-8 0 -15 4t-7 14v677q0 10 7 14t15 4t15 -4t7 -14v-73q20 42 64.5 70.5t107.5 28.5zM305 487q-29 0 -59 -11t-54 -31.5t-39.5 -50.5
t-15.5 -69v-160q0 -26 12 -49t34 -40.5t53 -28t68 -10.5q75 0 120.5 48t45.5 157v40q0 106 -40.5 155.5t-124.5 49.5z" />
    <glyph glyph-name="cid82" unicode="q" horiz-adv-x="582" 
d="M280 528q51 0 96.5 -20t67.5 -58h1v52q0 10 7 14t15 4t15 -4t7 -14v-677q0 -10 -7 -14t-15 -4q-9 0 -16 4t-7 14v268h-1q-20 -42 -64 -69.5t-106 -27.5q-101 0 -153.5 60.5t-52.5 180.5v50q0 122 57.5 181.5t155.5 59.5zM278 487q-75 0 -120.5 -48t-45.5 -157v-40
q0 -106 40.5 -155.5t124.5 -49.5q29 0 59 11t54 31.5t39.5 50.5t15.5 69v161q0 25 -12.5 48.5t-34.5 40.5t-52.5 27.5t-67.5 10.5z" />
    <glyph glyph-name="cid83" unicode="r" horiz-adv-x="387" 
d="M292 528q34 0 61 -9q17 -6 11 -27q-7 -20 -25 -15q-11 3 -24 5t-27 2q-37 0 -65 -15t-47 -41.5t-28.5 -63t-9.5 -79.5v-266q0 -10 -7 -14t-16 -4q-8 0 -15 4t-7 14v483q0 10 7 14t15 4t15 -4t7 -14v-88h1q5 19 17.5 39t32 36.5t45.5 27.5t59 11z" />
    <glyph glyph-name="cid84" unicode="s" horiz-adv-x="507" 
d="M259 528q51 0 92.5 -12t70.5 -30q8 -5 9.5 -12.5t-3.5 -15.5q-10 -17 -27 -8q-29 17 -64 27.5t-82 10.5q-71 0 -105 -26.5t-34 -66.5v-3q0 -20 7.5 -35.5t24.5 -27.5t46 -21t71 -17q53 -10 89 -21.5t57.5 -28.5t30.5 -41t9 -57v-8q0 -30 -13.5 -55t-38.5 -44t-61 -29.5
t-81 -10.5q-57 0 -106 16.5t-78 36.5q-16 12 -6 29q12 18 30 6q28 -19 70 -33.5t91 -14.5q72 0 111 28.5t39 72.5v3q0 24 -6 41t-23 29.5t-49.5 22t-84.5 19.5q-85 16 -128.5 47t-43.5 89v8q0 27 11 51t34 42t58 28.5t83 10.5z" />
    <glyph glyph-name="cid85" unicode="t" horiz-adv-x="378" 
d="M145 658q9 0 16 -4t7 -14v-123h138q8 0 11.5 -5t3.5 -13q0 -19 -15 -19h-138v-327q0 -35 4 -57.5t14 -36t26.5 -19t41.5 -5.5q30 0 54 11q18 8 26 -10q7 -18 -11 -27q-28 -13 -70 -13q-32 0 -56 6.5t-40.5 23t-25 45t-8.5 71.5v338h-80q-15 0 -15 19q0 8 3.5 13t11.5 5
h80v123q0 10 7 14t15 4z" />
    <glyph glyph-name="cid86" unicode="u" horiz-adv-x="583" 
d="M110 520q8 0 15 -4t7 -14v-316q0 -73 32.5 -111t107.5 -38q45 0 77.5 15.5t54 37t31.5 44.5t10 38v330q0 10 7 14t16 4q8 0 15 -4t7 -14v-483q0 -10 -7 -14t-15 -4t-15 4t-7 14v69h-1q-6 -13 -20.5 -29t-36.5 -30t-51 -23.5t-63 -9.5q-96 0 -141.5 48.5t-45.5 129.5v328
q0 10 7 14t16 4z" />
    <glyph glyph-name="cid87" unicode="v" horiz-adv-x="500" 
d="M46 518q8 3 16 1t12 -11l178 -449h1l174 449q4 9 11.5 11t15.5 -1t13 -9.5t0 -17.5l-188 -471q-8 -19 -28 -19q-19 0 -26 18l-192 472q-5 11 0 17.5t13 9.5z" />
    <glyph glyph-name="cid88" unicode="w" horiz-adv-x="760" 
d="M380 520q23 0 29 -21l148 -442h1l124 447q5 20 27 15q21 -5 15 -26l-138 -469q-6 -23 -29 -23q-12 0 -18.5 6t-10.5 17l-146 440h-2l-143 -441q-8 -22 -30 -22q-24 0 -30 22l-141 470q-6 21 15 26q23 5 28 -15l128 -447h1l143 442q6 21 29 21z" />
    <glyph glyph-name="cid89" unicode="x" horiz-adv-x="499" 
d="M66 516q8 5 16.5 4t15.5 -11l154 -215l152 215q13 19 32 6q7 -5 9 -12t-5 -17l-159 -218l172 -233q12 -18 -5 -30q-8 -5 -17 -4t-16 11l-165 227l-167 -227q-13 -19 -32 -6q-7 5 -9 12t5 17l174 230l-161 221q-7 10 -4.5 17.5t10.5 12.5z" />
    <glyph glyph-name="cid90" unicode="y" horiz-adv-x="496" 
d="M449 518q8 -3 12.5 -9.5t0.5 -16.5l-265 -675q-3 -8 -11.5 -10.5t-16.5 0.5t-12.5 9.5t-0.5 16.5l72 177l-194 482q-4 10 0.5 16.5t12.5 9.5t16.5 1t11.5 -10l175 -447h1l171 446q3 8 11 10.5t16 -0.5z" />
    <glyph glyph-name="cid91" unicode="z" horiz-adv-x="505" 
d="M409 517q19 0 26 -4.5t7 -15.5q0 -6 -3 -12.5t-17 -23.5l-322 -420h342q8 0 11.5 -5t3.5 -13q0 -19 -15 -19h-364q-19 0 -26 4.5t-7 15.5q0 6 3 12.5t17 23.5l322 420h-309q-15 0 -15 19q0 8 3.5 13t11.5 5h331z" />
    <glyph glyph-name="cid92" unicode="{" horiz-adv-x="398" 
d="M344 796q8 0 12 -6t4 -15q0 -8 -4 -14t-12 -6h-66q-48 0 -68 -19t-20 -60v-209q0 -40 -19.5 -72.5t-71.5 -44.5q52 -12 71.5 -44.5t19.5 -72.5v-233q0 -41 20 -60t68 -19h66q8 0 12 -6t4 -14q0 -9 -4 -15t-12 -6h-66q-67 0 -99.5 29.5t-32.5 95.5v236q0 42 -25 62t-72 23
q-20 1 -20 24t20 24q47 3 72 23t25 62v212q0 66 32.5 95.5t99.5 29.5h66z" />
    <glyph glyph-name="cid93" unicode="|" horiz-adv-x="276" 
d="M138 799q8 0 14.5 -4t6.5 -14v-886q0 -10 -6.5 -14t-14.5 -4t-14.5 4t-6.5 14v886q0 10 6.5 14t14.5 4z" />
    <glyph glyph-name="cid94" unicode="}" horiz-adv-x="398" 
d="M120 796q67 0 99.5 -29.5t32.5 -95.5v-212q0 -42 25 -62t72 -23q20 -1 20 -24t-20 -24q-47 -3 -72 -23t-25 -62v-236q0 -66 -32.5 -95.5t-99.5 -29.5h-66q-8 0 -12 6t-4 15q0 8 4 14t12 6h66q48 0 68 19t20 60v233q0 20 4.5 38.5t15 34t28 27t43.5 17.5q-26 6 -43.5 17.5
t-28 27t-15 34t-4.5 38.5v209q0 41 -20 60t-68 19h-66q-8 0 -12 6t-4 14q0 9 4 15t12 6h66z" />
    <glyph glyph-name="cid95" unicode="~" horiz-adv-x="608" 
d="M520 439q20 -3 17 -24q-4 -24 -13.5 -47.5t-26 -42.5t-40 -30.5t-55.5 -11.5q-35 0 -59.5 17.5t-45.5 38.5t-42 38.5t-50 17.5q-38 0 -60 -29.5t-30 -69.5q-2 -10 -9 -13.5t-16 -1.5t-14 7.5t-3 16.5q11 58 45 95t88 37q37 0 62 -17.5t46 -38.5t41 -38.5t47 -17.5
q23 0 39 8.5t27 22.5t17 31t9 35q2 11 9 15t17 2z" />
    <glyph glyph-name="cid96" unicode="&#x20a9;" horiz-adv-x="943" 
d="M478 718q23 0 29 -25l72 -282h175l73 290q6 21 25 16q22 -5 16 -27l-72 -279h102q15 0 15 -19t-15 -19h-111l-89 -347q-3 -12 -11.5 -18.5t-18.5 -6.5q-11 0 -19 6.5t-11 18.5l-88 347h-144l-88 -347q-3 -12 -11 -18.5t-19 -6.5q-10 0 -18.5 6.5t-11.5 18.5l-89 347h-108
q-15 0 -15 19t15 19h98l-71 279q-6 22 16 27q19 5 25 -16l72 -290h175l73 282q6 25 29 25zM288 64l79 309h-156zM668 64l77 309h-156zM415 411h125l-62 246z" />
    <glyph glyph-name="cid97" unicode="&#x2010;" horiz-adv-x="417" 
d="M362 385q20 0 20 -25q0 -11 -4.5 -17.5t-15.5 -6.5h-307q-11 0 -15.5 6.5t-4.5 17.5q0 25 20 25h307z" />
    <glyph glyph-name="cid98" unicode="&#xa9;" horiz-adv-x="850" 
d="M425 678q-72 0 -130.5 -24.5t-100 -67.5t-64.5 -101.5t-23 -125.5q0 -68 23 -126t64.5 -101t100 -67.5t130.5 -24.5t130.5 24.5t100 67.5t64.5 101t23 126q0 67 -23 125.5t-64.5 101.5t-100 67.5t-130.5 24.5zM425 720q82 0 148.5 -28t114 -77t73 -114.5t25.5 -141.5
t-25.5 -142t-73 -114.5t-114 -76.5t-148.5 -28t-148.5 28t-114 76.5t-73 114.5t-25.5 142t25.5 141.5t73 114.5t114 77t148.5 28zM430 548q34 0 63 -8.5t48 -21.5q7 -5 9 -12t-3 -15q-10 -17 -27 -7q-17 11 -40.5 17.5t-49.5 6.5q-51 0 -81 -31.5t-30 -102.5v-28
q0 -71 30 -103t83 -32q60 0 99 28q16 11 27 -5q11 -15 -5 -28q-48 -34 -121 -34q-70 0 -111.5 42.5t-41.5 128.5v34q0 86 41.5 128.5t109.5 42.5z" />
    <glyph glyph-name="cid99" horiz-adv-x="728" 
d="M372 716q14 0 22.5 -7t16.5 -25l91 -192l90 192q8 18 16.5 25t22.5 7h2q29 -1 29 -45v-269q0 -8 -5.5 -11.5t-13.5 -3.5q-7 0 -12.5 3.5t-5.5 11.5v273l-40 -86l-48 -100q-9 -18 -15.5 -26t-19.5 -8t-20 8t-16 26l-48 100l-40 86v-273q0 -8 -5.5 -11.5t-12.5 -3.5
q-8 0 -13.5 3.5t-5.5 11.5v269q0 44 29 45h2zM281 715q8 0 11.5 -5.5t3.5 -13.5q0 -6 -3.5 -12t-11.5 -6h-99v-275q0 -9 -5.5 -12.5t-13.5 -3.5t-14 3.5t-6 12.5v275h-100q-8 0 -11.5 6t-3.5 12q0 8 3.5 13.5t11.5 5.5h238z" />
    <glyph glyph-name="cid100" 
d="M189 74q20 0 33 -13t13 -32t-13 -32t-33 -13t-33 13t-13 32t13 32t33 13zM455 74q20 0 33 -13t13 -32t-13 -32t-33 -13t-33 13t-13 32t13 32t33 13zM721 74q20 0 33 -13t13 -32t-13 -32t-33 -13t-33 13t-13 32t13 32t33 13z" />
    <glyph glyph-name="cid101" unicode="&#x3000;" 
 />
    <glyph glyph-name="cid101" unicode="&#x3164;" 
 />
    <glyph glyph-name="cid102" unicode="&#x3001;" 
d="M122 124q45 -32 90 -75.5t80 -88.5q11 -14 7.5 -26t-14.5 -21q-14 -11 -25.5 -9t-18.5 11q-38 50 -75 89.5t-85 79.5q-6 5 -5 15t9 18t18 10.5t19 -3.5z" />
    <glyph glyph-name="cid103" unicode="&#x3002;" 
d="M184 134q-49 0 -72.5 -29.5t-23.5 -68.5q0 -41 23.5 -70t72.5 -29t72.5 29t23.5 70q0 39 -23.5 68.5t-72.5 29.5zM184 173q29 0 54 -10t43.5 -28t29 -43.5t10.5 -55.5t-10.5 -55.5t-29 -43.5t-43.5 -28.5t-54 -10.5t-54 10.5t-43.5 28.5t-29 43.5t-10.5 55.5t10.5 55.5
t29 43.5t43.5 28t54 10z" />
    <glyph glyph-name="cid104" unicode="&#xb7;" horiz-adv-x="455" 
d="M227 405q20 0 33 -13t13 -32t-13 -32t-33 -13t-33 13t-13 32t13 32t33 13z" />
    <glyph glyph-name="cid104" unicode="&#x30fb;" horiz-adv-x="455" 
d="M227 405q20 0 33 -13t13 -32t-13 -32t-33 -13t-33 13t-13 32t13 32t33 13z" />
    <glyph glyph-name="cid105" unicode="&#x2025;" 
d="M309 405q20 0 33 -13t13 -32t-13 -32t-33 -13t-33 13t-13 32t13 32t33 13zM600 405q20 0 33 -13t13 -32t-13 -32t-33 -13t-33 13t-13 32t13 32t33 13z" />
    <glyph glyph-name="cid106" unicode="&#x2026;" 
d="M174 405q20 0 33 -13t13 -32t-13 -32t-33 -13t-33 13t-13 32t13 32t33 13zM455 405q20 0 33 -13t13 -32t-13 -32t-33 -13t-33 13t-13 32t13 32t33 13zM736 405q20 0 33 -13t13 -32t-13 -32t-33 -13t-33 13t-13 32t13 32t33 13z" />
    <glyph glyph-name="cid106" unicode="&#x22ef;" 
d="M174 405q20 0 33 -13t13 -32t-13 -32t-33 -13t-33 13t-13 32t13 32t33 13zM455 405q20 0 33 -13t13 -32t-13 -32t-33 -13t-33 13t-13 32t13 32t33 13zM736 405q20 0 33 -13t13 -32t-13 -32t-33 -13t-33 13t-13 32t13 32t33 13z" />
    <glyph glyph-name="cid107" unicode="&#xa8;" horiz-adv-x="341" 
d="M94 696q17 0 27.5 -10.5t10.5 -26.5t-10.5 -26.5t-27.5 -10.5t-27.5 10.5t-10.5 26.5t10.5 26.5t27.5 10.5zM247 696q17 0 27.5 -10.5t10.5 -26.5t-10.5 -26.5t-27.5 -10.5t-27.5 10.5t-10.5 26.5t10.5 26.5t27.5 10.5z" />
    <glyph glyph-name="cid108" unicode="&#x3003;" 
d="M431 496q11 -3 16 -10.5t0 -17.5l-133 -270q-8 -17 -26 -10q-16 6 -9 22l121 273q8 20 31 13zM606 496q11 -3 16 -10.5t0 -17.5l-133 -270q-8 -17 -26 -10q-16 6 -9 22l121 273q8 20 31 13z" />
    <glyph glyph-name="cid109" unicode="&#xad;" horiz-adv-x="399" 
d="M380 383q19 0 19 -24q0 -22 -19 -22h-361q-19 0 -19 22q0 24 19 24h361z" />
    <glyph glyph-name="cid109" unicode="&#x2013;" horiz-adv-x="399" 
d="M380 383q19 0 19 -24q0 -22 -19 -22h-361q-19 0 -19 22q0 24 19 24h361z" />
    <glyph glyph-name="cid110" unicode="&#x2014;" horiz-adv-x="798" 
d="M779 383q19 0 19 -24q0 -22 -19 -22h-760q-19 0 -19 22q0 24 19 24h760z" />
    <glyph glyph-name="cid110" unicode="&#x2015;" horiz-adv-x="798" 
d="M779 383q19 0 19 -24q0 -22 -19 -22h-760q-19 0 -19 22q0 24 19 24h760z" />
    <glyph glyph-name="cid111" unicode="&#x2016;" 
d="M571 818v-960h-57v960h57zM395 818v-960h-56v960h56z" />
    <glyph glyph-name="cid112" unicode="&#xff3c;" 
d="M868 -87l-31 -31l-795 879l30 33z" />
    <glyph glyph-name="cid113" unicode="&#x223c;" 
d="M319 427q43 0 73.5 -9t62.5 -26t64 -29t72 -12q37 0 64 17.5t46 45.5l41 -27q-11 -18 -28 -35t-37 -30t-42 -21t-44 -8q-43 0 -73.5 9t-62.5 26q-26 14 -61 27.5t-75 13.5q-37 0 -64 -17.5t-46 -45.5l-41 27q11 18 28 35t37 30t42 21t44 8z" />
    <glyph glyph-name="cid113" unicode="&#xff5e;" 
d="M319 427q43 0 73.5 -9t62.5 -26t64 -29t72 -12q37 0 64 17.5t46 45.5l41 -27q-11 -18 -28 -35t-37 -30t-42 -21t-44 -8q-43 0 -73.5 9t-62.5 26q-26 14 -61 27.5t-75 13.5q-37 0 -64 -17.5t-46 -45.5l-41 27q11 18 28 35t37 30t42 21t44 8z" />
    <glyph glyph-name="cid113" unicode="&#x301c;" 
d="M319 427q43 0 73.5 -9t62.5 -26t64 -29t72 -12q37 0 64 17.5t46 45.5l41 -27q-11 -18 -28 -35t-37 -30t-42 -21t-44 -8q-43 0 -73.5 9t-62.5 26q-26 14 -61 27.5t-75 13.5q-37 0 -64 -17.5t-46 -45.5l-41 27q11 18 28 35t37 30t42 21t44 8z" />
    <glyph glyph-name="cid114" unicode="&#x2018;" horiz-adv-x="200" 
d="M146 771q16 -3 13 -18l-37 -190q-2 -11 -11.5 -15t-20.5 -2t-17.5 9t-2.5 19l55 185q4 15 21 12z" />
    <glyph glyph-name="cid115" unicode="&#x2019;" horiz-adv-x="200" 
d="M110 759q11 -2 17.5 -9t2.5 -19l-55 -185q-5 -15 -21 -12t-13 18l37 190q2 11 11.5 15t20.5 2z" />
    <glyph glyph-name="cid116" unicode="&#x201c;" horiz-adv-x="350" 
d="M287 772q18 -2 15 -19l-36 -190q-2 -11 -11.5 -15t-22.5 -2q-11 2 -18 7.5t-4 16.5l56 189q4 15 21 13zM151 772q18 -2 15 -19l-36 -190q-2 -11 -11.5 -15t-22.5 -2q-11 2 -18 7.5t-4 16.5l56 189q4 15 21 13z" />
    <glyph glyph-name="cid117" unicode="&#x201d;" horiz-adv-x="350" 
d="M118 759q11 -2 18 -7.5t4 -16.5l-56 -189q-4 -15 -21 -13q-18 2 -15 19l36 190q2 11 11.5 15t22.5 2zM254 759q11 -2 18 -7.5t4 -16.5l-56 -189q-4 -15 -21 -13q-18 2 -15 19l36 190q2 11 11.5 15t22.5 2z" />
    <glyph glyph-name="cid118" unicode="&#x3014;" horiz-adv-x="344" 
d="M303 742l-207 -116v-574l207 -117l-24 -43l-236 132v630l236 131z" />
    <glyph glyph-name="cid119" unicode="&#x3015;" horiz-adv-x="358" 
d="M309 654v-630l-237 -132l-24 43l208 118v573l-208 116l24 43z" />
    <glyph glyph-name="cid120" unicode="&#x3008;" horiz-adv-x="467" 
d="M421 744l-321 -406l321 -407l-33 -25l-341 432l340 432z" />
    <glyph glyph-name="cid121" unicode="&#x3009;" horiz-adv-x="477" 
d="M425 338l-340 -432l-33 25l321 407l-321 406l32 26z" />
    <glyph glyph-name="cid122" unicode="&#x300a;" horiz-adv-x="459" 
d="M423 769l-249 -431l249 -431l-35 -21l-260 452l260 451zM324 769l-250 -431l250 -431l-34 -21l-261 452l261 451z" />
    <glyph glyph-name="cid123" unicode="&#x300b;" horiz-adv-x="458" 
d="M421 338l-260 -452l-35 21l250 431l-250 431l35 20zM323 338l-261 -452l-34 21l248 431l-248 431l34 20z" />
    <glyph glyph-name="cid124" unicode="&#x300c;" horiz-adv-x="351" 
d="M322 789v-54h-226v-375h-67v429h293z" />
    <glyph glyph-name="cid125" unicode="&#x300d;" horiz-adv-x="351" 
d="M322 282v-429h-293v54h226v375h67z" />
    <glyph glyph-name="cid126" unicode="&#x300e;" horiz-adv-x="341" 
d="M68 391h39v342h169v26h-208v-368zM314 789v-87h-172v-342h-110v429h282z" />
    <glyph glyph-name="cid127" unicode="&#x300f;" horiz-adv-x="346" 
d="M239 -92h-169v-26h208v368h-39v-342zM314 281v-429h-282v87h172v342h110z" />
    <glyph glyph-name="cid128" unicode="&#x3010;" horiz-adv-x="469" 
d="M443 767q-56 -37 -102 -84.5t-78.5 -103t-50.5 -117t-18 -125.5q0 -65 18 -126t50.5 -116t78.5 -102.5t103 -83.5h-357v858h356z" />
    <glyph glyph-name="cid129" unicode="&#x3011;" horiz-adv-x="470" 
d="M383 768v-859h-358q57 36 103.5 83.5t79 102.5t50.5 116.5t18 125.5t-18 126t-50.5 117.5t-78.5 103t-103 84.5h357z" />
    <glyph glyph-name="cid130" unicode="&#xb1;" horiz-adv-x="615" 
d="M308 684q9 0 15.5 -4t6.5 -14v-189h204q8 0 12 -6t4 -15q0 -8 -4 -14t-12 -6h-204v-204q0 -10 -6.5 -14t-15.5 -4t-16 4t-7 14v204h-204q-8 0 -12 6t-4 14q0 9 4 15t12 6h204v189q0 10 7 14t16 4zM528 144q9 0 13 -6t4 -15t-4 -15t-13 -6h-439q-9 0 -13 6t-4 15t4 15
t13 6h439z" />
    <glyph glyph-name="cid131" unicode="&#xd7;" horiz-adv-x="600" 
d="M477 574q12 12 26 -1q15 -15 3 -27l-178 -186l176 -184q12 -12 -3 -27q-6 -6 -13 -6.5t-13 5.5l-175 183l-175 -183q-13 -13 -26 1q-15 15 -3 27l176 184l-178 186q-12 12 3 27q13 13 26 1l177 -185l177 185v0z" />
    <glyph glyph-name="cid132" unicode="&#xf7;" horiz-adv-x="590" 
d="M526 382q9 0 13 -6t4 -15q0 -22 -17 -22h-452q-17 0 -17 22q0 9 4 15t13 6h452zM300 223q20 0 33 -13t13 -32t-13 -32t-33 -13t-33 13t-13 32t13 32t33 13zM300 588q20 0 33 -13t13 -32t-13 -32t-33 -13t-33 13t-13 32t13 32t33 13z" />
    <glyph glyph-name="cid133" unicode="&#x2260;" horiz-adv-x="590" 
d="M474 632q12 -9 4 -22l-81 -124h109q9 0 13 -6t4 -15t-4 -15t-13 -6h-136l-110 -168h246q9 0 13 -6t4 -15t-4 -15t-13 -6h-273l-90 -138q-9 -13 -25 -3q-12 9 -4 22l77 119h-99q-9 0 -13 6t-4 15t4 15t13 6h127l109 168h-236q-9 0 -13 6t-4 15t4 15t13 6h264l93 143
q9 13 25 3z" />
    <glyph glyph-name="cid134" unicode="&#x2264;" horiz-adv-x="614" 
d="M510 656q20 9 28 -9q8 -20 -10 -28l-407 -170v-1l407 -170q18 -8 10 -28q-8 -18 -28 -9l-417 177q-14 6 -19 13t-5 18q0 10 5 17t19 13zM524 144q9 0 13 -6t4 -15t-4 -15t-13 -6h-440q-9 0 -13 6t-4 15t4 15t13 6h440z" />
    <glyph glyph-name="cid135" unicode="&#x2265;" horiz-adv-x="614" 
d="M521 479q14 -6 19 -13t5 -17q0 -11 -5 -18t-19 -13l-417 -177q-20 -9 -28 9q-8 20 10 28l407 170v1l-407 170q-18 8 -10 28q8 18 28 9zM530 144q9 0 13 -6t4 -15t-4 -15t-13 -6h-440q-9 0 -13 6t-4 15t4 15t13 6h440z" />
    <glyph glyph-name="cid136" unicode="&#x221e;" horiz-adv-x="590" 
d="M137 498q27 0 50.5 -12.5t43 -30.5t35 -38t27.5 -35q19 23 36 44t35.5 37t41 25.5t52.5 9.5q58 0 92.5 -36t34.5 -102q0 -32 -10.5 -57.5t-29 -44t-43 -28.5t-52.5 -10q-32 0 -54.5 11.5t-40 28.5t-32 37.5t-28.5 38.5q-19 -24 -36.5 -45t-37 -36.5t-42 -25t-50.5 -9.5
q-56 0 -89.5 36t-33.5 104q0 30 10 55.5t27.5 44t41.5 28.5t52 10zM455 463q-24 0 -42.5 -9.5t-35 -24.5t-30.5 -33.5t-29 -37.5q11 -15 23.5 -33t28 -33t35.5 -25.5t45 -10.5q44 0 71 28.5t27 75.5q0 50 -26 76.5t-67 26.5zM136 463q-42 0 -67 -28.5t-25 -74.5
q0 -53 23 -78.5t65 -25.5q41 0 72.5 28t66.5 75q-12 16 -27 34.5t-32 34t-36 25.5t-40 10z" />
    <glyph glyph-name="cid137" unicode="&#x2234;" horiz-adv-x="590" 
d="M99 202q19 0 33 -13t14 -33t-14 -33.5t-33 -13.5q-21 0 -34 13.5t-13 33.5t13 33t34 13zM491 202q20 0 33.5 -13t13.5 -33t-13.5 -33.5t-33.5 -13.5t-33.5 13.5t-13.5 33.5t13.5 33t33.5 13zM300 611q21 0 33.5 -14t12.5 -32q0 -21 -12.5 -34.5t-33.5 -13.5t-34.5 13.5
t-13.5 34.5q0 18 13.5 32t34.5 14z" />
    <glyph glyph-name="cid138" unicode="&#xb0;" horiz-adv-x="292" 
d="M146 717q49 0 78.5 -31.5t29.5 -76.5t-29.5 -76.5t-78.5 -31.5t-78.5 31.5t-29.5 76.5t29.5 76.5t78.5 31.5zM146 681q-32 0 -50.5 -21t-18.5 -51t18.5 -51t50.5 -21t50.5 21t18.5 51t-18.5 51t-50.5 21z" />
    <glyph glyph-name="cid139" unicode="&#x2032;" horiz-adv-x="486" 
d="M294 727q11 -5 15.5 -13t-1.5 -19l-110 -199q-6 -12 -21 -7t-9 20l90 208q5 11 15 13t21 -3z" />
    <glyph glyph-name="cid140" unicode="&#x2033;" horiz-adv-x="630" 
d="M294 727q11 -5 15.5 -13t-1.5 -19l-110 -199q-6 -12 -21 -7t-9 20l90 208q5 11 15 13t21 -3zM438 727q11 -5 15.5 -13t-1.5 -19l-110 -199q-6 -12 -21 -7t-9 20l90 208q5 11 15 13t21 -3z" />
    <glyph glyph-name="cid141" unicode="&#x2103;" horiz-adv-x="820" 
d="M528 726q66 0 116 -14.5t88 -38.5q17 -11 6 -30q-11 -18 -28 -7q-19 12 -38 20.5t-41 14.5t-47.5 9t-56.5 3q-119 0 -175 -77.5t-56 -221.5v-49q0 -143 56.5 -220.5t176.5 -77.5q66 0 115 16.5t87 47.5q7 5 15.5 4t14.5 -9q15 -20 -3 -33q-40 -32 -95.5 -51t-133.5 -19
q-143 0 -211 88.5t-68 247.5v61q0 160 68.5 248t209.5 88zM145 729q42 0 65.5 -25t23.5 -62t-23.5 -62t-65.5 -25t-65.5 25t-23.5 62t23.5 62t65.5 25zM145 695q-24 0 -38 -15.5t-14 -37.5t14 -37.5t38 -15.5t38 15.5t14 37.5t-14 37.5t-38 15.5z" />
    <glyph glyph-name="cid142" unicode="&#x212b;" horiz-adv-x="645" 
d="M324 847q42 0 65.5 -25t23.5 -62q0 -29 -14 -50t-39 -31l251 -649q4 -10 0 -17t-13 -10q-22 -8 -30 11l-83 218h-325l-84 -218q-8 -19 -30 -11q-20 7 -12 27l254 649q-26 9 -39.5 30.5t-13.5 50.5q0 37 23.5 62t65.5 25zM324 667q-12 -39 -27 -80t-33 -88l-88 -227h294
l-85 227q-17 44 -33 87t-28 81zM324 813q-24 0 -38 -15.5t-14 -37.5t14 -37.5t38 -15.5t38 15.5t14 37.5t-14 37.5t-38 15.5z" />
    <glyph glyph-name="cid143" unicode="&#xa2;" horiz-adv-x="487" 
d="M286 628q8 0 14 -4t6 -13v-84q42 -2 75 -13t59 -27q8 -5 9.5 -13t-3.5 -16q-10 -18 -28 -7q-22 14 -50.5 23.5t-61.5 11.5v-449q42 3 72.5 14t56.5 29q9 6 16 4t12 -9q13 -17 -5 -30q-29 -20 -66 -33t-86 -16v-84q0 -9 -6 -13t-14 -4t-14 4t-6 13v84q-92 5 -145.5 65
t-53.5 176v50q0 115 54.5 175t144.5 65v84q0 9 6 13t14 4zM266 486q-69 -5 -111.5 -53.5t-42.5 -150.5v-40q0 -101 41.5 -150.5t112.5 -54.5v449z" />
    <glyph glyph-name="cid143" unicode="&#xffe0;" horiz-adv-x="487" 
d="M286 628q8 0 14 -4t6 -13v-84q42 -2 75 -13t59 -27q8 -5 9.5 -13t-3.5 -16q-10 -18 -28 -7q-22 14 -50.5 23.5t-61.5 11.5v-449q42 3 72.5 14t56.5 29q9 6 16 4t12 -9q13 -17 -5 -30q-29 -20 -66 -33t-86 -16v-84q0 -9 -6 -13t-14 -4t-14 4t-6 13v84q-92 5 -145.5 65
t-53.5 176v50q0 115 54.5 175t144.5 65v84q0 9 6 13t14 4zM266 486q-69 -5 -111.5 -53.5t-42.5 -150.5v-40q0 -101 41.5 -150.5t112.5 -54.5v449z" />
    <glyph glyph-name="cid144" unicode="&#xa3;" horiz-adv-x="569" 
d="M358 726q37 0 69 -7t55 -18q17 -8 9 -26t-26 -10q-46 19 -102 19q-67 0 -107 -41t-40 -129v-120h192q9 0 13 -6t4 -15t-4 -15t-13 -6h-192v-122q0 -73 -17 -116.5t-49 -66.5v-1h362q9 0 13 -6t4 -15t-4 -15t-13 -6h-413q-9 0 -13 6t-4 15t4.5 16t16.5 15q39 28 53 70
t14 105v121h-88q-9 0 -13 6t-4 15t4 15t13 6h88v122q0 105 51.5 157.5t136.5 52.5z" />
    <glyph glyph-name="cid144" unicode="&#xffe1;" horiz-adv-x="569" 
d="M358 726q37 0 69 -7t55 -18q17 -8 9 -26t-26 -10q-46 19 -102 19q-67 0 -107 -41t-40 -129v-120h192q9 0 13 -6t4 -15t-4 -15t-13 -6h-192v-122q0 -73 -17 -116.5t-49 -66.5v-1h362q9 0 13 -6t4 -15t-4 -15t-13 -6h-413q-9 0 -13 6t-4 15t4.5 16t16.5 15q39 28 53 70
t14 105v121h-88q-9 0 -13 6t-4 15t4 15t13 6h88v122q0 105 51.5 157.5t136.5 52.5z" />
    <glyph glyph-name="cid145" unicode="&#xa5;" horiz-adv-x="604" 
d="M537 715q8 -5 11.5 -12t-1.5 -15l-198 -347h147q16 0 16 -20q0 -19 -16 -19h-168v-97h168q16 0 16 -20q0 -19 -16 -19h-168v-147q0 -10 -7 -14t-17 -4q-8 0 -15 4t-7 14v147h-164q-16 0 -16 19q0 20 16 20h164v97h-164q-16 0 -16 19q0 20 16 20h142l-201 344q-11 17 6 29
q8 5 16.5 4t13.5 -10l211 -367l202 367q5 8 13 10t16 -3z" />
    <glyph glyph-name="cid145" unicode="&#xffe5;" horiz-adv-x="604" 
d="M537 715q8 -5 11.5 -12t-1.5 -15l-198 -347h147q16 0 16 -20q0 -19 -16 -19h-168v-97h168q16 0 16 -20q0 -19 -16 -19h-168v-147q0 -10 -7 -14t-17 -4q-8 0 -15 4t-7 14v147h-164q-16 0 -16 19q0 20 16 20h164v97h-164q-16 0 -16 19q0 20 16 20h142l-201 344q-11 17 6 29
q8 5 16.5 4t13.5 -10l211 -367l202 367q5 8 13 10t16 -3z" />
    <glyph glyph-name="cid146" unicode="&#x2642;" 
d="M736 693q33 0 46 -12.5t13 -44.5v-140q0 -10 -7 -14t-15 -4t-14.5 4t-6.5 14v125l-146 -151q30 -36 47 -81.5t17 -96.5q0 -57 -21 -107t-58 -88t-87.5 -60t-110.5 -22t-110.5 22t-87.5 60t-58 88t-21 107t21 107t58 88t87.5 60t110.5 22q52 0 97 -17t80 -46l149 144h-129
q-9 0 -13 6t-4 15q0 22 17 22h146zM393 526q-50 0 -92 -18.5t-72.5 -50t-47.5 -74.5t-17 -91t17 -91t47.5 -74.5t72.5 -50t92 -18.5t92 18.5t72.5 50t47.5 74.5t17 91t-17 91t-47.5 74.5t-72.5 50t-92 18.5z" />
    <glyph glyph-name="cid147" unicode="&#x2640;" 
d="M455 769q60 0 110.5 -22t87.5 -60t58 -88t21 -107q0 -54 -19 -102.5t-53 -85.5t-80.5 -60.5t-101.5 -27.5v-138h139q9 0 13 -6t4 -15t-4 -15t-13 -6h-139v-140q0 -10 -7 -14t-17 -4q-8 0 -15 4t-7 14v140h-139q-9 0 -13 6t-4 15t4 15t13 6h139v138q-55 4 -101.5 27.5
t-80.5 60.5t-53 85.5t-19 102.5q0 57 21 107t58 88t87.5 60t110.5 22zM455 726q-50 0 -92 -18.5t-72.5 -50t-47.5 -74.5t-17 -91t17 -91t47.5 -74.5t72.5 -50t92 -18.5t92 18.5t72.5 50t47.5 74.5t17 91t-17 91t-47.5 74.5t-72.5 50t-92 18.5z" />
    <glyph glyph-name="cid148" unicode="&#x2220;" 
d="M670 559l-431 -499h521v-56h-609v41l473 551z" />
    <glyph glyph-name="cid149" unicode="&#x22a5;" 
d="M485 577v-514h289v-59h-638v59h290v514h59z" />
    <glyph glyph-name="cid150" unicode="&#x2312;" 
d="M454 756q95 0 157 -44t101 -116h-60q-13 23 -32 44t-43.5 37t-54.5 25.5t-66 9.5t-66.5 -9.5t-55.5 -25.5t-43.5 -37t-31.5 -44h-62q40 72 101.5 116t155.5 44z" />
    <glyph glyph-name="cid151" unicode="&#x2202;" horiz-adv-x="500" 
d="M245 395q-35 0 -65.5 -14t-53.5 -39.5t-36.5 -62t-13.5 -81.5q0 -78 37.5 -121t102.5 -43q40 0 73.5 20t59 54t42.5 79.5t23 96.5q-18 46 -63 78.5t-106 32.5zM223 726q49 0 93 -20t77.5 -62t53.5 -108t20 -159q0 -97 -21 -169t-56 -120t-81.5 -72t-97.5 -24
q-47 0 -81 16t-56.5 44t-33.5 65t-11 78q0 54 17.5 99t47 76.5t68.5 49t82 17.5q33 0 61.5 -9t51 -23.5t39 -31.5t25.5 -33h1q1 11 1 22v22q0 80 -17 137t-44.5 93.5t-64 53.5t-75.5 17q-46 0 -80.5 -12.5t-61.5 -29.5l-16 33q29 20 70 35t89 15z" />
    <glyph glyph-name="cid152" unicode="&#x2207;" 
d="M841 613l-386 -612l-386 612h772zM455 89l300 481h-599z" />
    <glyph glyph-name="cid153" unicode="&#x2261;" horiz-adv-x="590" 
d="M516 240q17 0 17 -21q0 -8 -4 -14t-13 -6h-442q-9 0 -13 6t-4 14q0 21 17 21h442zM516 381q17 0 17 -21q0 -8 -4 -14t-13 -6h-442q-9 0 -13 6t-4 14q0 21 17 21h442zM516 522q17 0 17 -21q0 -8 -4 -14t-13 -6h-442q-9 0 -13 6t-4 14q0 21 17 21h442z" />
    <glyph glyph-name="cid154" unicode="&#x2252;" horiz-adv-x="598" 
d="M506 459q9 0 13 -6t4 -15t-4 -15t-13 -6h-414q-9 0 -13 6t-4 15t4 15t13 6h414zM200 642q20 0 33 -13t13 -32t-13 -32t-33 -13t-33 13t-13 32t13 32t33 13zM506 303q9 0 13 -6t4 -15t-4 -15t-13 -6h-414q-9 0 -13 6t-4 15t4 15t13 6h414zM398 168q20 0 33 -13t13 -32
t-13 -32t-33 -13t-33 13t-13 32t13 32t33 13z" />
    <glyph glyph-name="cid155" unicode="&#xa7;" horiz-adv-x="510" 
d="M270 726q50 0 90 -12t69 -30q8 -5 9.5 -12.5t-3.5 -15.5q-10 -17 -27 -8q-26 16 -61 26.5t-80 10.5q-63 0 -96 -31.5t-33 -83.5v-9q0 -24 7 -44t25.5 -36.5t52 -31t86.5 -28.5q93 -24 133 -64t40 -100v-15q0 -22 -8.5 -43.5t-23.5 -40t-36 -33.5t-46 -24q38 -23 53 -53.5
t15 -71.5v-15q0 -31 -11.5 -59t-34 -49t-56 -33.5t-76.5 -12.5q-54 0 -97.5 14t-71.5 34q-16 11 -6 28q5 8 12.5 10.5t15.5 -2.5q26 -17 63 -30t87 -13q63 0 96 31.5t33 83.5v9q0 24 -7 44t-25.5 36.5t-52 31t-86.5 28.5q-93 24 -133 64t-40 100v15q0 45 31 84t82 57
q-37 23 -52 53.5t-15 71.5v15q0 31 11.5 59t34 49t55.5 33.5t77 12.5zM202 410q-21 -6 -41 -17t-35.5 -26.5t-24.5 -35.5t-9 -42v-9q0 -21 7.5 -39.5t25 -35t46.5 -30.5t72 -25q25 -7 45 -13t37 -14q22 6 42 17t35.5 26.5t24.5 35t9 42.5v9q0 42 -33 74.5t-118 55.5
q-23 6 -44.5 13t-38.5 14z" />
    <glyph glyph-name="cid156" unicode="&#x203b;" 
d="M704 643q7 7 14.5 5.5t13.5 -7.5q15 -13 3 -27l-250 -255l250 -254q12 -14 -3 -27q-6 -6 -13.5 -7.5t-14.5 5.5l-248 253l-248 -253q-7 -7 -14.5 -5.5t-13.5 7.5q-15 13 -3 27l249 254l-249 255q-12 14 3 27q6 6 13.5 7.5t14.5 -5.5l248 -254zM455 699q20 0 33 -13
t13 -32t-13 -32t-33 -13t-33 13t-13 32t13 32t33 13zM455 109q20 0 33 -13t13 -32t-13 -32t-33 -13t-33 13t-13 32t13 32t33 13zM795 359q0 -20 -13 -33t-32 -13t-32 13t-13 33t13 33t32 13t32 -13t13 -33zM205 359q0 -20 -13 -33t-32 -13t-32 13t-13 33t13 33t32 13t32 -13
t13 -33z" />
    <glyph glyph-name="cid157" unicode="&#x2606;" 
d="M368 459h-283l227 -169l-89 -268l233 163l228 -163l-84 268l227 169h-280l-91 265zM564 484h334l-270 -201l100 -319l-271 194l-276 -194l104 319l-272 201h338l106 316z" />
    <glyph glyph-name="cid158" unicode="&#x2605;" 
d="M564 484h334l-270 -201l100 -319l-271 194l-276 -194l104 319l-272 201h338l106 316z" />
    <glyph glyph-name="cid159" unicode="&#x25cb;" 
d="M455 674q-65 0 -121 -25t-98 -68t-66 -100t-24 -121t24 -121t66 -99.5t98 -67t121 -24.5q64 0 120.5 24.5t98.5 67t66 99.5t24 121t-24 121t-66 100t-98.5 68t-120.5 25zM455 716q73 0 138 -28t113 -76.5t76 -113.5t28 -138q0 -74 -28 -138.5t-76 -112.5t-113 -76
t-138 -28q-74 0 -138.5 28t-112.5 76t-76 112.5t-28 138.5q0 73 28 138t76 113.5t112.5 76.5t138.5 28z" />
    <glyph glyph-name="cid160" unicode="&#x25cf;" 
d="M455 716q73 0 138 -28t113 -76.5t76 -113.5t28 -138q0 -74 -28 -138.5t-76 -112.5t-113 -76t-138 -28q-74 0 -138.5 28t-112.5 76t-76 112.5t-28 138.5q0 73 28 138t76 113.5t112.5 76.5t138.5 28z" />
    <glyph glyph-name="cid161" unicode="&#x25ce;" 
d="M453 530q-35 0 -65.5 -13.5t-53 -37t-36 -54.5t-13.5 -65q0 -35 13.5 -65.5t36 -53t53 -36t65.5 -13.5t66 13.5t54 36t36.5 53t13.5 65.5q0 34 -13.5 65t-36.5 54.5t-54 37t-66 13.5zM453 575q45 0 84 -17t68 -46.5t46 -68.5t17 -83q0 -45 -17 -84t-46 -68t-68 -46
t-84 -17t-84 17t-68 46t-46 68t-17 84q0 44 17 83t46 68.5t68 46.5t84 17zM453 676q-65 0 -122.5 -25t-100.5 -68t-67.5 -100.5t-24.5 -122.5t24.5 -122.5t67.5 -100.5t100.5 -67.5t122.5 -24.5q66 0 123.5 24.5t100.5 67.5t67.5 100.5t24.5 122.5t-24.5 122.5t-67.5 100.5
t-100.5 68t-123.5 25zM453 716q74 0 139 -28t113 -76.5t76 -113.5t28 -138q0 -74 -28 -138.5t-76 -112.5t-113 -76t-139 -28t-138.5 28t-112.5 76t-75.5 112.5t-27.5 138.5q0 73 27.5 138t75.5 113.5t112.5 76.5t138.5 28z" />
    <glyph glyph-name="cid162" unicode="&#x25c7;" 
d="M134 361l321 -322l321 321l-321 322zM839 360l-384 -385l-385 385l385 385z" />
    <glyph glyph-name="cid163" unicode="&#x25c6;" 
d="M840 360l-384 -385l-386 386l385 384z" />
    <glyph glyph-name="cid164" unicode="&#x25a1;" 
d="M153 59h603v602h-603v-602zM795 700v-680h-680v680h680z" />
    <glyph glyph-name="cid165" unicode="&#x25a0;" 
d="M795 700v-680h-680v680h680z" />
    <glyph glyph-name="cid166" unicode="&#x25b3;" 
d="M163 63h581l-291 582zM819 20h-727l363 724z" />
    <glyph glyph-name="cid167" unicode="&#x25b2;" 
d="M819 20h-727l363 724z" />
    <glyph glyph-name="cid168" unicode="&#x25bd;" 
d="M455 74l291 582h-581zM819 700l-364 -724l-363 724h727z" />
    <glyph glyph-name="cid169" unicode="&#x25bc;" 
d="M819 700l-364 -724l-363 724h727z" />
    <glyph glyph-name="cid170" unicode="&#x2192;" horiz-adv-x="850" 
d="M85 357q0 16 8 27.5t25 11.5h530q-20 13 -36 28l-106 102q-11 11 -9 24t13 24q10 11 24 13.5t25 -8.5l188 -188q13 -13 17 -20t4 -14t-4 -14t-17 -20l-188 -188q-11 -11 -25 -8.5t-24 13.5q-11 11 -13 24t9 24l106 102q16 15 36 28h-530q-17 0 -25 11.5t-8 27.5z" />
    <glyph glyph-name="cid171" unicode="&#x2190;" horiz-adv-x="850" 
d="M765 357q0 -16 -8 -27.5t-25 -11.5h-530q19 -13 36 -28l106 -102q11 -11 9 -24t-13 -24q-10 -11 -24 -13.5t-25 8.5l-188 188q-13 13 -17 20t-4 14t4 14t17 20l188 188q11 11 25 8.5t24 -13.5q11 -11 13 -24t-9 -24l-106 -102q-17 -15 -36 -28h530q17 0 25 -11.5t8 -27.5
z" />
    <glyph glyph-name="cid172" unicode="&#x2191;" horiz-adv-x="670" 
d="M335 11q-16 0 -27.5 8t-11.5 25v530q-13 -20 -28 -36l-102 -106q-11 -11 -24 -9t-24 13q-11 10 -13.5 24t8.5 25l188 188q13 13 20 17t14 4t14 -4t20 -17l188 -188q11 -11 8.5 -25t-13.5 -24q-11 -11 -24 -13t-24 9l-102 106q-15 16 -28 36v-530q0 -17 -11.5 -25
t-27.5 -8z" />
    <glyph glyph-name="cid173" unicode="&#x2193;" horiz-adv-x="670" 
d="M335 713q16 0 27.5 -8t11.5 -25v-530q13 19 28 36l102 106q11 11 24 9t24 -13q11 -10 13.5 -24t-8.5 -25l-188 -188q-13 -13 -20 -17t-14 -4t-14 4t-20 17l-188 188q-11 11 -8.5 25t13.5 24q11 11 24 13t24 -9l102 -106q15 -17 28 -36v530q0 17 11.5 25t27.5 8z" />
    <glyph glyph-name="cid174" unicode="&#x2194;" 
d="M702 396q-20 13 -36 28l-106 102q-11 11 -9 24t13 24q10 11 24 13.5t25 -8.5l188 -188q13 -13 17 -20t4 -14t-4 -14t-17 -20l-188 -188q-11 -11 -25 -8.5t-24 13.5q-11 11 -13 24t9 24l106 102q16 15 36 28h-494q19 -13 36 -28l106 -102q11 -11 9 -24t-13 -24
q-10 -11 -24 -13.5t-25 8.5l-188 188q-13 13 -17 20t-4 14t4 14t17 20l188 188q11 11 25 8.5t24 -13.5q11 -11 13 -24t-9 -24l-106 -102q-17 -15 -36 -28h494v0z" />
    <glyph glyph-name="cid175" unicode="&#x3013;" 
d="M779 477v-38h-648v38h648zM779 281v-38h-648v38h648z" />
    <glyph glyph-name="cid176" unicode="&#xab;" 
d="M812 655l-440 -299l444 -290l-29 -47l-482 314v45l474 322zM601 659l-440 -304l443 -292l-30 -48l-480 318v45l473 328z" />
    <glyph glyph-name="cid176" unicode="&#x226a;" 
d="M812 655l-440 -299l444 -290l-29 -47l-482 314v45l474 322zM601 659l-440 -304l443 -292l-30 -48l-480 318v45l473 328z" />
    <glyph glyph-name="cid177" unicode="&#xbb;" 
d="M604 378v-45l-482 -314l-28 47l444 291l-441 298l33 45zM816 378v-45l-480 -318l-31 48l444 292l-440 304l33 47z" />
    <glyph glyph-name="cid177" unicode="&#x226b;" 
d="M604 378v-45l-482 -314l-28 47l444 291l-441 298l33 45zM816 378v-45l-480 -318l-31 48l444 292l-440 304l33 47z" />
    <glyph glyph-name="cid178" unicode="&#x221a;" horiz-adv-x="538" 
d="M556 820l-232 -921h-36l-163 439l-71 -33l-15 34l112 46l152 -415h1l210 850h42z" />
    <glyph glyph-name="cid179" unicode="&#x223d;" 
d="M259 548q33 0 64 -12t59 -30l-31 -47q-21 11 -42.5 19t-42.5 8q-56 0 -89.5 -35t-33.5 -90q0 -57 32 -91.5t90 -34.5q38 0 66.5 16.5t49.5 41t36 52t26 49.5q15 30 34.5 58t44.5 49t56 34t69 13q40 0 73.5 -15.5t57.5 -41.5t37.5 -59.5t13.5 -70.5q0 -38 -13.5 -72
t-37.5 -59.5t-57 -41t-73 -15.5q-32 0 -62.5 11.5t-59.5 31.5l34 46q21 -17 41.5 -23.5t46.5 -6.5t48 10t38 27t25 41t9 51q0 24 -8.5 47t-24.5 40.5t-37.5 28.5t-48.5 11q-56 0 -93.5 -35.5t-70.5 -99.5q-12 -24 -30 -54.5t-45 -58.5t-63.5 -47t-86.5 -19q-33 0 -65 12
t-57.5 35.5t-41 58.5t-15.5 81q0 45 15 80t40 58.5t57 36t66 12.5z" />
    <glyph glyph-name="cid180" unicode="&#x221d;" 
d="M301 486q-57 0 -89.5 -35.5t-32.5 -89.5q0 -57 31 -91.5t91 -34.5q31 0 56 11.5t44.5 29.5t34 40t25.5 44q-11 21 -26 43.5t-35 40.5t-44.5 30t-54.5 12zM301 548q38 0 67 -12t51.5 -30.5t39.5 -42t31 -46.5q15 27 34 51t42.5 41.5t52 28t62.5 10.5q29 0 57.5 -11.5
t56.5 -31.5l-34 -49q-20 14 -40 23t-40 9q-56 0 -91.5 -33t-68.5 -95q17 -32 33.5 -55.5t35 -40t41 -24.5t50.5 -8q18 0 41.5 6t40.5 16l15 -56q-26 -14 -50 -19.5t-47 -5.5q-32 0 -60.5 11t-52.5 29t-43.5 41.5t-34.5 47.5q-13 -23 -29 -45.5t-38 -41t-51.5 -30
t-69.5 -11.5q-34 0 -67.5 12t-60.5 35t-43.5 58t-16.5 82q0 45 16.5 80t42.5 58.5t59.5 36t68.5 12.5z" />
    <glyph glyph-name="cid181" unicode="&#x2235;" horiz-adv-x="586" 
d="M498 591q18 0 33.5 -13.5t15.5 -35.5q0 -21 -15.5 -34t-33.5 -13q-22 0 -35 13t-13 34q0 22 13 35.5t35 13.5zM103 591q18 0 33 -13.5t15 -35.5q0 -21 -15 -34t-33 -13q-22 0 -35.5 13t-13.5 34q0 22 13.5 35.5t35.5 13.5zM300 182q19 0 33.5 -16t14.5 -34
q0 -21 -14.5 -34t-33.5 -13q-21 0 -35 13t-14 34q0 18 14 34t35 16z" />
    <glyph glyph-name="cid182" unicode="&#x222b;" horiz-adv-x="305" 
d="M251 800q12 0 21 -2t16 -5l-9 -37q-5 2 -11.5 3t-13.5 1q-20 0 -35.5 -8.5t-26 -29t-16 -54.5t-5.5 -86q0 -53 1.5 -117t3.5 -129t3.5 -128t1.5 -115q0 -116 -32.5 -166t-92.5 -50q-23 0 -39 7l9 37q5 -2 12.5 -3t14.5 -1q20 0 35.5 8.5t26 29t15.5 54.5t5 86t-1.5 115.5
t-3 129.5t-3 129.5t-1.5 114.5q0 116 33 166t92 50z" />
    <glyph glyph-name="cid183" unicode="&#x222c;" horiz-adv-x="524" 
d="M251 800q12 0 21 -2t16 -5l-9 -37q-5 2 -11.5 3t-13.5 1q-20 0 -35.5 -8.5t-26 -29t-16 -54.5t-5.5 -86q0 -53 1.5 -117t3.5 -129t3.5 -128t1.5 -115q0 -116 -32.5 -166t-92.5 -50q-23 0 -39 7l9 37q5 -2 12.5 -3t14.5 -1q20 0 35.5 8.5t26 29t15.5 54.5t5 86t-1.5 115.5
t-3 129.5t-3 129.5t-1.5 114.5q0 116 33 166t92 50zM470 800q12 0 21 -2t16 -5l-9 -37q-5 2 -11.5 3t-13.5 1q-20 0 -35.5 -8.5t-26 -29t-16 -54.5t-5.5 -86q0 -53 1.5 -117t3.5 -129t3.5 -128t1.5 -115q0 -116 -32.5 -166t-92.5 -50q-23 0 -39 7l9 37q5 -2 12.5 -3t14.5 -1
q20 0 35.5 8.5t26 29t15.5 54.5t5 86t-1.5 115.5t-3 129.5t-3 129.5t-1.5 114.5q0 116 33 166t92 50z" />
    <glyph glyph-name="cid184" unicode="&#x2208;" 
d="M797 595v-47h-406q-57 0 -98.5 -12.5t-68.5 -33.5t-41.5 -50t-18.5 -62h631v-47h-632q3 -37 18 -68.5t42.5 -54t69 -35t98.5 -12.5h406v-47h-400q-74 0 -127.5 19t-88.5 51.5t-52 76.5t-17 95q0 47 16 88.5t49.5 72t86.5 48.5t127 18h406z" />
    <glyph glyph-name="cid185" unicode="&#x220b;" 
d="M517 595q74 0 127 -18t87 -48.5t50 -72t16 -88.5q0 -51 -17 -95t-52 -77t-89 -51.5t-127 -18.5h-400v46h405q58 0 99.5 12.5t69 35.5t42 54t17.5 69h-631v47h630q-3 33 -17.5 62t-41.5 50.5t-68.5 34t-99.5 12.5h-405v46h405z" />
    <glyph glyph-name="cid186" unicode="&#x2286;" 
d="M795 77v-46h-645v46h645zM797 649v-46h-406q-63 0 -106.5 -14t-71 -38t-39.5 -56.5t-12 -69.5q0 -41 13 -76t40.5 -60t71 -39t104.5 -14h406v-46h-400q-74 0 -127.5 18t-88.5 49.5t-52 74.5t-17 93q0 47 16 88t49.5 71t86.5 47.5t127 17.5h406z" />
    <glyph glyph-name="cid187" unicode="&#x2287;" 
d="M518 649q74 0 127 -17.5t86.5 -47.5t49.5 -71t16 -88q0 -50 -17 -93t-52 -74.5t-89 -49.5t-127 -18h-400v46h406q61 0 104.5 14t71 39t40.5 60t13 76q0 37 -12 69.5t-39.5 56.5t-71 38t-106.5 14h-406v46h406zM759 77v-46h-645v46h645z" />
    <glyph glyph-name="cid188" unicode="&#x2282;" 
d="M797 598v-46h-406q-63 0 -106.5 -15t-70.5 -40.5t-39 -59.5t-12 -72q0 -42 12.5 -78t40 -62t71 -41t104.5 -15h406v-46h-400q-74 0 -127.5 19t-88.5 52.5t-52 78t-17 95.5q0 47 16 89t49.5 73.5t86.5 49.5t127 18h406z" />
    <glyph glyph-name="cid189" unicode="&#x2283;" 
d="M517 598q74 0 127 -18t87 -49.5t50 -73.5t16 -89q0 -51 -17 -95.5t-52 -78t-89 -52.5t-127 -19h-400v46h405q61 0 104.5 15t71.5 41t40.5 62t12.5 78q0 38 -12 72t-39.5 59.5t-71 40.5t-106.5 15h-405v46h405z" />
    <glyph glyph-name="cid190" unicode="&#x222a;" 
d="M264 674v-405q0 -63 15 -107.5t40.5 -72.5t59.5 -40.5t72 -12.5q42 0 78 13.5t62 41.5t41 72t15 106v405h50v-400q0 -74 -20 -127.5t-53.5 -88.5t-79 -52t-96.5 -17q-47 0 -89.5 16t-74.5 50t-51 87t-19 127v405h50z" />
    <glyph glyph-name="cid191" unicode="&#x2229;" 
d="M455 674q51 0 95.5 -17t76.5 -52t50.5 -89t18.5 -127v-400h-50v405q0 61 -14 106t-39.5 73.5t-60.5 42.5t-77 14t-76.5 -14t-60 -42.5t-39.5 -73.5t-14 -106v-405h-50v400q0 73 18.5 127t50.5 89t76 52t95 17z" />
    <glyph glyph-name="cid192" unicode="&#x2227;" 
d="M482 631l294 -570l-51 -24l-270 526l-269 -526l-51 24l294 570h53z" />
    <glyph glyph-name="cid193" unicode="&#x2228;" 
d="M455 111l270 526l51 -24l-294 -570h-53l-294 570l51 24z" />
    <glyph glyph-name="cid194" unicode="&#xac;" 
d="M884 382v-305h-45v264h-812v41h857z" />
    <glyph glyph-name="cid194" unicode="&#xffe2;" 
d="M884 382v-305h-45v264h-812v41h857z" />
    <glyph glyph-name="cid195" unicode="&#x21d2;" 
d="M882 360l-249 -250l-27 26l118 117h-652v36h687l72 71l-72 72h-687v36h651l-117 114l27 27z" />
    <glyph glyph-name="cid196" unicode="&#x21d4;" 
d="M79 360l72 -71h608l72 71l-72 72h-608zM304 582l-117 -114h536l-117 114l28 27l248 -249l-248 -250l-28 26l118 117h-538l118 -117l-28 -26l-248 250l248 249z" />
    <glyph glyph-name="cid197" unicode="&#x2200;" horiz-adv-x="645" 
d="M46 716q22 8 30 -11l84 -218h325l83 218q8 19 30 11q9 -3 13 -10t0 -17l-259 -670q-8 -18 -28 -18q-21 0 -28 18l-262 670q-8 20 12 27zM264 220q18 -47 33 -88t27 -80q12 38 28 81t33 87l85 227h-294z" />
    <glyph glyph-name="cid198" unicode="&#x2203;" horiz-adv-x="604" 
d="M448 715q33 0 46 -12.5t13 -44.5v-597q0 -32 -13 -44.5t-46 -12.5h-349q-9 0 -13 6t-4 15t4 15t13 6h362v283h-342q-8 0 -12 6t-4 14q0 9 4 15t12 6h342v303h-369q-9 0 -13 6t-4 15t4 15t13 6h356z" />
    <glyph glyph-name="cid199" unicode="&#xb4;" horiz-adv-x="330" 
d="M230 754q18 -16 3 -33l-97 -106q-10 -10 -24 0q-12 10 -3 23l86 115q7 9 17 9t18 -8z" />
    <glyph glyph-name="cid200" unicode="&#x2dc;" horiz-adv-x="600" 
d="M421 723q14 -3 11 -20q-6 -25 -25 -44.5t-47 -19.5q-19 0 -34.5 6.5t-30 14.5t-27.5 14.5t-27 6.5q-15 0 -25 -9.5t-15 -23.5q-4 -13 -21 -10q-14 3 -11 20q6 25 25 44.5t47 19.5q19 0 34.5 -6.5t30 -14.5t27.5 -14.5t27 -6.5q15 0 25 9.5t15 23.5q4 13 21 10z" />
    <glyph glyph-name="cid201" unicode="&#x2c7;" horiz-adv-x="600" 
d="M200 742q5 4 11 4t11 -5l79 -92l76 92q9 11 23 1q5 -4 7 -10.5t-3 -12.5l-68 -87q-9 -11 -17 -16.5t-19 -5.5t-19 5.5t-17 16.5l-68 88q-5 6 -3 12t7 10z" />
    <glyph glyph-name="cid202" unicode="&#x2d8;" horiz-adv-x="600" 
d="M407 739q8 -2 12.5 -7t2.5 -13q-7 -44 -39 -73.5t-83 -29.5t-83 29.5t-39 73.5q-2 8 2.5 13t12.5 7q18 3 20 -13q5 -30 28.5 -49.5t58.5 -19.5t58.5 19.5t28.5 49.5q2 16 20 13z" />
    <glyph glyph-name="cid203" unicode="&#x2dd;" horiz-adv-x="600" 
d="M272 755q20 -11 12 -29l-51 -96q-4 -8 -12 -9t-14 2q-16 7 -9 24l43 102q3 7 12.5 9t18.5 -3zM389 755q20 -11 12 -29l-51 -96q-4 -8 -12 -9t-14 2q-16 7 -9 24l43 102q3 7 12.5 9t18.5 -3z" />
    <glyph glyph-name="cid204" unicode="&#x2da;" horiz-adv-x="330" 
d="M165 738q-23 0 -36.5 -15.5t-13.5 -35.5t13.5 -35.5t36.5 -15.5t36.5 15.5t13.5 35.5t-13.5 35.5t-36.5 15.5zM165 772q42 0 64.5 -24.5t22.5 -60.5t-22.5 -60.5t-64.5 -24.5t-64.5 24.5t-22.5 60.5t22.5 60.5t64.5 24.5z" />
    <glyph glyph-name="cid205" unicode="&#x2d9;" horiz-adv-x="330" 
d="M166 734q20 0 33 -13t13 -32t-13 -32t-33 -13t-33 13t-13 32t13 32t33 13z" />
    <glyph glyph-name="cid206" unicode="&#xb8;" horiz-adv-x="330" 
d="M151 5v-46q20 -1 37.5 -4t30.5 -10t20.5 -18.5t7.5 -28.5q0 -42 -33.5 -64t-109.5 -27q-8 -1 -12.5 4.5t-4.5 13.5q0 16 15 18q49 4 75 15t26 34t-22.5 28.5t-69.5 5.5v79h40z" />
    <glyph glyph-name="cid207" unicode="&#x2db;" horiz-adv-x="330" 
d="M224 -15q-38 -27 -61.5 -48.5t-23.5 -54.5q0 -23 16 -34t43 -11q18 0 35 5q13 3 17 -9q5 -13 -10 -19q-8 -3 -19 -5t-22 -2q-48 0 -74.5 17.5t-26.5 52.5q0 19 7.5 35t19.5 29.5t27 24.5t30 19h42z" />
    <glyph glyph-name="cid208" unicode="&#xa1;" horiz-adv-x="268" 
d="M134 570q20 0 33 -13t13 -32t-13 -32t-33 -13t-33 13t-13 32t13 32t33 13zM134 369q20 0 20 -20l5 -499q0 -22 -25 -22t-25 22l5 499q0 20 20 20z" />
    <glyph glyph-name="cid209" unicode="&#xbf;" horiz-adv-x="506" 
d="M277 369q8 0 15.5 -4t7.5 -14q0 -25 -3.5 -45t-14.5 -40.5t-31 -44t-54 -53.5q-50 -46 -73 -79.5t-23 -72.5v-10q0 -63 42.5 -99.5t111.5 -36.5q56 0 94 19.5t68 49.5q7 7 15.5 7t15.5 -7q15 -15 0 -30q-14 -15 -34 -30t-44.5 -26t-53 -18t-58.5 -7q-94 0 -148.5 48
t-54.5 130v10q0 52 26.5 90.5t69.5 76.5q35 32 55.5 54.5t31 41t13.5 35.5t3 37q0 10 7.5 14t15.5 4zM277 570q20 0 33 -13t13 -32t-13 -32t-33 -13t-33 13t-13 32t13 32t33 13z" />
    <glyph glyph-name="cid210" unicode="&#x2d0;" 
d="M552 601l-97 -95l-97 95h194zM552 120h-194l97 95z" />
    <glyph glyph-name="cid210" unicode="&#x2236;" 
d="M552 601l-97 -95l-97 95h194zM552 120h-194l97 95z" />
    <glyph glyph-name="cid211" unicode="&#x222e;" 
d="M570 772q62 0 94 -63l-47 -21q-8 19 -20.5 29.5t-29.5 10.5q-22 0 -42 -58.5t-32 -165.5q25 -3 47.5 -13t39 -26.5t26 -39.5t9.5 -52q0 -35 -12 -62.5t-31.5 -47.5t-45 -32t-52.5 -16q-7 -56 -18 -104.5t-27.5 -84.5t-39 -57t-51.5 -21q-61 0 -92 59l44 26
q9 -19 21.5 -30t29.5 -11q22 0 42.5 58t31.5 166q-47 8 -80 40t-33 88q0 33 11 60t29 46.5t41.5 32t49.5 18.5q7 56 18.5 105.5t28 86t39 58t51.5 21.5zM490 474q-2 -26 -3.5 -55t-2.5 -59t-2.5 -59.5t-4.5 -55.5q37 9 61 39t28 75v12q0 38 -20 66.5t-56 36.5zM430 470
q-35 -13 -57 -45.5t-22 -79.5q0 -38 18 -64t49 -35q5 50 6 110.5t6 113.5z" />
    <glyph glyph-name="cid212" unicode="&#x2211;" horiz-adv-x="567" 
d="M475 715q9 0 13 -6t4 -15t-4 -15t-13 -6h-379l204 -253q23 -29 30.5 -40.5t7.5 -19.5q0 -9 -7.5 -20.5t-30.5 -40.5l-204 -253h379q9 0 13 -6t4 -15t-4 -15t-13 -6h-397q-22 0 -30 6t-8 18q0 7 3 14.5t18 26.5l232 291l-232 290q-15 19 -18 26.5t-3 14.5q0 12 8 18t30 6
h397z" />
    <glyph glyph-name="cid213" unicode="&#x220f;" horiz-adv-x="621" 
d="M571 715q9 0 13 -6t4 -15t-4 -15t-13 -6h-97v-689q0 -10 -7 -14t-16 -4q-8 0 -15 4t-7 14v689h-237v-689q0 -10 -7 -14t-16 -4q-8 0 -15 4t-7 14v689h-97q-9 0 -13 6t-4 15t4 15t13 6h521z" />
    <glyph glyph-name="cid214" unicode="&#xa4;" horiz-adv-x="600" 
d="M494 582q7 7 15 6t16 -8q7 -8 8 -16t-6 -15l-79 -76q19 -23 30 -53t11 -63q0 -66 -41 -116l79 -76q7 -7 6 -15t-8 -16q-8 -7 -16 -8t-15 6l-76 78q-23 -19 -53.5 -30t-64.5 -11t-63.5 10.5t-54.5 30.5l-76 -78q-7 -7 -15 -6t-16 8q-7 8 -8 16t6 15l78 76
q-19 24 -29.5 53.5t-10.5 62.5t10.5 62.5t29.5 53.5l-78 76q-7 7 -6 15t8 16q8 7 16 8t15 -6l76 -78q24 19 54 30t64 11t64.5 -11t53.5 -31zM300 506q-31 0 -57.5 -11.5t-46 -32t-31 -47.5t-11.5 -58t11.5 -58t31 -47.5t46 -32t57.5 -11.5t57.5 11.5t46 32t31 47.5t11.5 58
t-11.5 58t-31 47.5t-46 32t-57.5 11.5z" />
    <glyph glyph-name="cid215" unicode="&#x2109;" horiz-adv-x="791" 
d="M714 715q9 0 13 -6t4 -15t-4 -15t-13 -6h-352v-294h332q8 0 12 -6t4 -14q0 -9 -4 -15t-12 -6h-332v-319q0 -10 -7 -14t-17 -4q-8 0 -15 4t-7 14v639q0 32 13 44.5t46 12.5h339zM145 729q42 0 65.5 -25t23.5 -62t-23.5 -62t-65.5 -25t-65.5 25t-23.5 62t23.5 62t65.5 25z
M145 695q-24 0 -38 -15.5t-14 -37.5t14 -37.5t38 -15.5t38 15.5t14 37.5t-14 37.5t-38 15.5z" />
    <glyph glyph-name="cid216" unicode="&#x2030;" horiz-adv-x="1219" 
d="M224 726q77 0 113.5 -45.5t36.5 -127.5v-23q0 -82 -36.5 -127.5t-113.5 -45.5t-113.5 45.5t-36.5 127.5v23q0 82 36.5 127.5t113.5 45.5zM224 688q-54 0 -81.5 -32.5t-27.5 -104.5v-19q0 -72 27.5 -104.5t81.5 -32.5t81.5 32.5t27.5 104.5v19q0 72 -27.5 104.5
t-81.5 32.5zM651 715q16 -8 7 -24l-419 -680q-9 -15 -26 -6q-16 8 -7 24l419 680q9 15 26 6zM638 363q77 0 113.5 -45.5t36.5 -127.5v-23q0 -82 -36.5 -127.5t-113.5 -45.5t-113.5 45.5t-36.5 127.5v23q0 82 36.5 127.5t113.5 45.5zM638 325q-54 0 -81.5 -32.5t-27.5 -104.5
v-19q0 -72 27.5 -104.5t81.5 -32.5t81.5 32.5t27.5 104.5v19q0 72 -27.5 104.5t-81.5 32.5zM995 363q77 0 113.5 -45.5t36.5 -127.5v-23q0 -82 -36.5 -127.5t-113.5 -45.5t-113.5 45.5t-36.5 127.5v23q0 82 36.5 127.5t113.5 45.5zM995 325q-54 0 -81.5 -32.5t-27.5 -104.5
v-19q0 -72 27.5 -104.5t81.5 -32.5t81.5 32.5t27.5 104.5v19q0 72 -27.5 104.5t-81.5 32.5z" />
    <glyph glyph-name="cid217" unicode="&#x25c1;" 
d="M761 -25l-612 384l612 386v-770zM185 359l561 -351v704z" />
    <glyph glyph-name="cid218" unicode="&#x25c0;" 
d="M761 -25l-612 384l612 386v-770z" />
    <glyph glyph-name="cid219" unicode="&#x25b7;" 
d="M761 359l-612 -384v770zM165 8l561 351l-561 353v-704z" />
    <glyph glyph-name="cid220" unicode="&#x25b6;" 
d="M761 359l-612 -384v770z" />
    <glyph glyph-name="cid221" unicode="&#x2664;" 
d="M455 777q57 -71 115.5 -144.5t105.5 -142.5t76.5 -129.5t29.5 -103.5q0 -33 -10 -60.5t-28 -47.5t-44 -31.5t-57 -11.5q-29 0 -57 12.5t-66 34.5q1 -19 5.5 -43.5t11.5 -50t16 -50.5t19 -44q9 -19 -14 -22q-20 -2 -48.5 -3.5t-54.5 -1.5q-29 0 -55.5 1.5t-47.5 3.5
q-23 3 -14 22q10 21 18.5 45.5t15.5 49.5t11.5 49t6.5 44q-38 -22 -66 -34.5t-57 -12.5q-32 0 -57.5 11.5t-43.5 31.5t-28 47.5t-10 60.5q0 43 29.5 103.5t76.5 129.5t105.5 142.5t115.5 144.5zM455 713q-29 -35 -61.5 -75.5t-64 -82t-60 -83.5t-50 -80.5t-34.5 -72
t-13 -58.5q0 -18 5 -38t16.5 -37.5t29.5 -28.5t44 -11q22 0 42 8.5t37 19t30.5 19t22.5 8.5q20 0 26 -11t4 -36q-2 -33 -10.5 -70.5t-22.5 -82.5q-4 -16 19 -19q9 -1 19 -1.5t21 -0.5t21 0.5t19 1.5q23 3 19 19q-14 45 -22.5 82.5t-10.5 70.5q-2 25 4 36t26 11
q9 0 22.5 -8.5t30.5 -19t37 -19t42 -8.5q26 0 44 11t29.5 28.5t16.5 37.5t5 38q0 25 -13 58.5t-34.5 72t-50 80.5t-60 83.5t-64 82t-61.5 75.5z" />
    <glyph glyph-name="cid222" unicode="&#x2660;" 
d="M455 777q57 -71 115.5 -144.5t105.5 -142.5t76.5 -129.5t29.5 -103.5q0 -33 -10 -60.5t-28 -47.5t-44 -31.5t-57 -11.5q-29 0 -57 12.5t-66 34.5q1 -19 5.5 -43.5t11.5 -50t16 -50.5t19 -44q9 -19 -14 -22q-20 -2 -48.5 -3.5t-54.5 -1.5q-29 0 -55.5 1.5t-47.5 3.5
q-23 3 -14 22q10 21 18.5 45.5t15.5 49.5t11.5 49t6.5 44q-38 -22 -66 -34.5t-57 -12.5q-32 0 -57.5 11.5t-43.5 31.5t-28 47.5t-10 60.5q0 43 29.5 103.5t76.5 129.5t105.5 142.5t115.5 144.5z" />
    <glyph glyph-name="cid223" unicode="&#x2661;" 
d="M274 726q69 0 116 -35.5t64 -112.5h2q17 77 64 112.5t116 35.5q44 0 78 -16t57.5 -44.5t35.5 -68.5t12 -89q0 -63 -32.5 -133.5t-85 -140t-117.5 -134.5t-129 -118q-65 53 -129.5 118t-117 134.5t-85 140t-32.5 133.5q0 49 12 89t35.5 68.5t57.5 44.5t78 16zM281 684
q-69 0 -106.5 -47.5t-37.5 -128.5q0 -51 28.5 -113.5t74 -126t102.5 -123t113 -104.5q56 45 113 104.5t102.5 123t74 126t28.5 113.5q0 81 -37.5 128.5t-106.5 47.5q-26 0 -48 -8t-41 -27.5t-34 -51.5t-26 -79q-5 -21 -25 -21q-21 0 -25 21q-11 47 -26 79t-34 51.5
t-41.5 27.5t-47.5 8z" />
    <glyph glyph-name="cid224" unicode="&#x2665;" 
d="M274 726q69 0 116 -35.5t64 -112.5h2q17 77 64 112.5t116 35.5q44 0 78 -16t57.5 -44.5t35.5 -68.5t12 -89q0 -63 -32.5 -133.5t-85 -140t-117.5 -134.5t-129 -118q-65 53 -129.5 118t-117 134.5t-85 140t-32.5 133.5q0 49 12 89t35.5 68.5t57.5 44.5t78 16z" />
    <glyph glyph-name="cid225" unicode="&#x2667;" 
d="M455 730q-26 0 -50.5 -8t-43.5 -23.5t-31 -38.5t-12 -52q0 -47 16.5 -75t37 -47.5t37 -35.5t16.5 -39q0 -24 -13.5 -39.5t-38.5 -15.5q-14 0 -29.5 8t-34 18t-40 18t-47.5 8q-28 0 -50.5 -12.5t-38 -32.5t-24 -45t-8.5 -50q0 -27 8.5 -53t24.5 -46t39.5 -32t53.5 -12
q38 0 65 14.5t47 32.5t36 32.5t33 14.5q11 0 14 -6t3 -17q0 -21 -5 -41t-10.5 -44t-10.5 -53t-5 -67q0 -12 13 -13q22 -3 48 -3q25 0 48 3q13 1 13 13q0 38 -5 67t-10.5 53t-10.5 44t-5 41q0 11 3 17t14 6q16 0 32 -14.5t36.5 -32.5t47.5 -32.5t65 -14.5q30 0 53.5 12
t39.5 32t24.5 46t8.5 53q0 25 -8.5 50t-24 45t-38 32.5t-50.5 12.5q-26 0 -47.5 -8t-40 -18t-34 -18t-29.5 -8q-25 0 -38.5 15.5t-13.5 39.5q0 23 16.5 39t37 35.5t37 47.5t16.5 75q0 29 -11.5 52t-30.5 38.5t-44 23.5t-51 8zM455 770q36 0 68.5 -11.5t57.5 -32.5t40 -51
t15 -67q0 -27 -5 -48.5t-16 -41t-28 -38t-41 -39.5q-5 -5 -9 -13t1 -16q3 -5 12 -6t17 3q29 14 59 25.5t63 11.5q36 0 66.5 -15t52 -39.5t34 -57t12.5 -67.5q0 -36 -12 -70t-34.5 -59.5t-53.5 -41t-70 -15.5q-26 0 -50 8t-45 20.5t-37.5 27t-27.5 26.5q7 -17 14 -40.5
t12.5 -50.5t9 -56t3.5 -56q0 -7 -5.5 -11t-12.5 -5q-23 -2 -45 -3t-45 -1t-44 1t-46 3q-7 1 -12.5 5t-5.5 11q0 27 3 56t8.5 56t12.5 50.5t15 40.5q-11 -12 -27.5 -26.5t-37.5 -27t-45 -20.5t-50 -8q-39 0 -70 15.5t-53.5 41t-34.5 59.5t-12 70q0 35 12.5 67.5t34 57
t52 39.5t66.5 15q33 0 63 -11.5t59 -25.5q8 -4 17 -3t12 6q5 8 1 16t-9 13q-24 21 -41 39.5t-28 38t-16 41t-5 48.5q0 37 15 67t40 51t57.5 32.5t68.5 11.5z" />
    <glyph glyph-name="cid226" unicode="&#x2663;" 
d="M455 770q36 0 68.5 -11.5t57.5 -32.5t40 -51t15 -67q0 -27 -5 -48.5t-16 -41t-28 -38t-41 -39.5q-5 -5 -9 -13t1 -16q3 -5 12 -6t17 3q29 14 59 25.5t63 11.5q36 0 66.5 -15t52 -39.5t34 -57t12.5 -67.5q0 -36 -12 -70t-34.5 -59.5t-53.5 -41t-70 -15.5q-26 0 -50 8
t-45 20.5t-37.5 27t-27.5 26.5q7 -17 14 -40.5t12.5 -50.5t9 -56t3.5 -56q0 -7 -5.5 -11t-12.5 -5q-23 -2 -45 -3t-45 -1t-44 1t-46 3q-7 1 -12.5 5t-5.5 11q0 27 3 56t8.5 56t12.5 50.5t15 40.5q-11 -12 -27.5 -26.5t-37.5 -27t-45 -20.5t-50 -8q-39 0 -70 15.5t-53.5 41
t-34.5 59.5t-12 70q0 35 12.5 67.5t34 57t52 39.5t66.5 15q33 0 63 -11.5t59 -25.5q8 -4 17 -3t12 6q5 8 1 16t-9 13q-24 21 -41 39.5t-28 38t-16 41t-5 48.5q0 37 15 67t40 51t57.5 32.5t68.5 11.5z" />
    <glyph glyph-name="cid227" unicode="&#x2299;" 
d="M455 746q80 0 150.5 -30t123 -82.5t82.5 -123t30 -150.5t-30 -150.5t-82.5 -123t-123 -82.5t-150.5 -30q-79 0 -149.5 30t-123 82.5t-83 123t-30.5 150.5t30.5 150.5t83 123t123 82.5t149.5 30zM455 724q-74 0 -140 -29t-115.5 -78.5t-78 -115.5t-28.5 -141
q0 -74 28.5 -140t78 -115.5t115.5 -78t140 -28.5q75 0 141 28.5t115.5 78t78.5 115.5t29 140q0 75 -29 141t-78.5 115.5t-115.5 78.5t-141 29zM455 515q32 0 60.5 -12t49.5 -33t33 -49.5t12 -60.5t-12 -60.5t-33 -49.5t-49.5 -33t-60.5 -12t-60 12t-49 33t-33.5 49.5
t-12.5 60.5t12.5 60.5t33.5 49.5t49 33t60 12z" />
    <glyph glyph-name="cid227" unicode="&#x25c9;" 
d="M455 746q80 0 150.5 -30t123 -82.5t82.5 -123t30 -150.5t-30 -150.5t-82.5 -123t-123 -82.5t-150.5 -30q-79 0 -149.5 30t-123 82.5t-83 123t-30.5 150.5t30.5 150.5t83 123t123 82.5t149.5 30zM455 724q-74 0 -140 -29t-115.5 -78.5t-78 -115.5t-28.5 -141
q0 -74 28.5 -140t78 -115.5t115.5 -78t140 -28.5q75 0 141 28.5t115.5 78t78.5 115.5t29 140q0 75 -29 141t-78.5 115.5t-115.5 78.5t-141 29zM455 515q32 0 60.5 -12t49.5 -33t33 -49.5t12 -60.5t-12 -60.5t-33 -49.5t-49.5 -33t-60.5 -12t-60 12t-49 33t-33.5 49.5
t-12.5 60.5t12.5 60.5t33.5 49.5t49 33t60 12z" />
    <glyph glyph-name="cid228" unicode="&#x25c8;" 
d="M885 360l-431 -429l-428 428l429 431zM66 359l388 -388l389 389l-388 387zM726 359l-271 -270l-271 270l271 271z" />
    <glyph glyph-name="cid229" unicode="&#x25a3;" 
d="M824 728v-736h-737v736h737zM118 23h675v674h-675v-674zM688 592v-465h-465v465h465z" />
    <glyph glyph-name="cid230" unicode="&#x25d0;" 
d="M455 750q81 0 152 -30.5t124 -83.5t83.5 -124t30.5 -152t-30.5 -152t-83.5 -124t-124 -83.5t-152 -30.5q-80 0 -151 30.5t-124 83.5t-84 124t-31 152t31 152t84 124t124 83.5t151 30.5zM455 10q72 0 136 27.5t111.5 75.5t75.5 111.5t28 135.5t-28 136t-75.5 111.5
t-111.5 75.5t-136 28v-701z" />
    <glyph glyph-name="cid231" unicode="&#x25d1;" 
d="M455 750q80 0 151 -30.5t124 -83.5t84 -124t31 -152t-31 -152t-84 -124t-124 -83.5t-151 -30.5q-81 0 -152 30.5t-124 83.5t-83.5 124t-30.5 152t30.5 152t83.5 124t124 83.5t152 30.5zM455 711q-72 0 -136 -28t-111.5 -75.5t-75.5 -111.5t-28 -136t28 -135.5
t75.5 -111.5t111.5 -75.5t136 -27.5v701z" />
    <glyph glyph-name="cid232" unicode="&#x2592;" 
d="M827 732v-743h-744v743h744zM116 22h678v677h-678v-677zM736 670q11 0 18.5 -7.5t7.5 -18.5t-7.5 -18t-18.5 -7q-25 0 -25 25q0 11 7 18.5t18 7.5zM643 670q11 0 18 -7.5t7 -18.5q0 -25 -25 -25t-25 25q0 11 7 18.5t18 7.5zM736 576q11 0 18.5 -7.5t7.5 -18.5
q0 -10 -7.5 -17t-18.5 -7t-18 7t-7 17q0 11 7 18.5t18 7.5zM643 576q11 0 18 -7.5t7 -18.5q0 -10 -7 -17t-18 -7t-18 7t-7 17q0 11 7 18.5t18 7.5zM549 670q11 0 18.5 -7.5t7.5 -18.5t-7.5 -18t-18.5 -7t-18.5 7t-7.5 18t7.5 18.5t18.5 7.5zM736 483q11 0 18.5 -7.5
t7.5 -18.5t-7.5 -18.5t-18.5 -7.5t-18 7.5t-7 18.5t7 18.5t18 7.5zM549 576q11 0 18.5 -7.5t7.5 -18.5q0 -10 -7.5 -17t-18.5 -7t-18.5 7t-7.5 17q0 11 7.5 18.5t18.5 7.5zM643 483q11 0 18 -7.5t7 -18.5t-7 -18.5t-18 -7.5t-18 7.5t-7 18.5t7 18.5t18 7.5zM455 670
q11 0 18 -7.5t7 -18.5q0 -25 -25 -25q-10 0 -17.5 7t-7.5 18t7.5 18.5t17.5 7.5zM736 388q11 0 18.5 -7t7.5 -18q0 -10 -7.5 -17.5t-18.5 -7.5t-18 7.5t-7 17.5q0 25 25 25zM455 576q11 0 18 -7.5t7 -18.5q0 -10 -7 -17t-18 -7q-10 0 -17.5 7t-7.5 17q0 11 7.5 18.5
t17.5 7.5zM549 483q11 0 18.5 -7.5t7.5 -18.5t-7.5 -18.5t-18.5 -7.5t-18.5 7.5t-7.5 18.5t7.5 18.5t18.5 7.5zM643 388q25 0 25 -25q0 -10 -7 -17.5t-18 -7.5t-18 7.5t-7 17.5q0 25 25 25zM361 670q11 0 18.5 -7.5t7.5 -18.5t-7.5 -18t-18.5 -7q-25 0 -25 25q0 11 7 18.5
t18 7.5zM736 295q11 0 18.5 -7.5t7.5 -18.5t-7.5 -18.5t-18.5 -7.5t-18 7.5t-7 18.5t7 18.5t18 7.5zM361 576q11 0 18.5 -7.5t7.5 -18.5q0 -10 -7.5 -17t-18.5 -7t-18 7t-7 17q0 11 7 18.5t18 7.5zM455 483q11 0 18 -7.5t7 -18.5t-7 -18.5t-18 -7.5q-10 0 -17.5 7.5
t-7.5 18.5t7.5 18.5t17.5 7.5zM549 388q11 0 18.5 -7t7.5 -18q0 -10 -7.5 -17.5t-18.5 -7.5t-18.5 7.5t-7.5 17.5q0 11 7.5 18t18.5 7zM643 295q11 0 18 -7.5t7 -18.5t-7 -18.5t-18 -7.5t-18 7.5t-7 18.5t7 18.5t18 7.5zM268 670q10 0 17.5 -7.5t7.5 -18.5t-7.5 -18
t-17.5 -7q-11 0 -18.5 7t-7.5 18t7.5 18.5t18.5 7.5zM736 200q11 0 18.5 -7t7.5 -17q0 -11 -7.5 -18.5t-18.5 -7.5t-18 7.5t-7 18.5q0 10 7 17t18 7zM175 670q11 0 17.5 -7.5t6.5 -18.5q0 -25 -24 -25q-11 0 -18.5 7t-7.5 18t7.5 18.5t18.5 7.5zM268 576q10 0 17.5 -7.5
t7.5 -18.5q0 -10 -7.5 -17t-17.5 -7q-11 0 -18.5 7t-7.5 17q0 11 7.5 18.5t18.5 7.5zM361 483q11 0 18.5 -7.5t7.5 -18.5t-7.5 -18.5t-18.5 -7.5t-18 7.5t-7 18.5t7 18.5t18 7.5zM455 388q25 0 25 -25q0 -10 -7 -17.5t-18 -7.5q-10 0 -17.5 7.5t-7.5 17.5q0 11 7.5 18
t17.5 7zM549 295q11 0 18.5 -7.5t7.5 -18.5t-7.5 -18.5t-18.5 -7.5t-18.5 7.5t-7.5 18.5t7.5 18.5t18.5 7.5zM643 200q11 0 18 -7t7 -17q0 -11 -7 -18.5t-18 -7.5t-18 7.5t-7 18.5q0 10 7 17t18 7zM736 107q11 0 18.5 -7t7.5 -18t-7.5 -18.5t-18.5 -7.5t-18 7.5t-7 18.5
q0 25 25 25zM175 576q11 0 17.5 -7.5t6.5 -18.5q0 -10 -6.5 -17t-17.5 -7t-18.5 7t-7.5 17q0 11 7.5 18.5t18.5 7.5zM643 107q25 0 25 -25q0 -11 -7 -18.5t-18 -7.5t-18 7.5t-7 18.5q0 25 25 25zM268 483q10 0 17.5 -7.5t7.5 -18.5t-7.5 -18.5t-17.5 -7.5q-11 0 -18.5 7.5
t-7.5 18.5t7.5 18.5t18.5 7.5zM361 388q11 0 18.5 -7t7.5 -18q0 -10 -7.5 -17.5t-18.5 -7.5t-18 7.5t-7 17.5q0 25 25 25zM455 295q11 0 18 -7.5t7 -18.5t-7 -18.5t-18 -7.5q-10 0 -17.5 7.5t-7.5 18.5t7.5 18.5t17.5 7.5zM549 200q11 0 18.5 -7t7.5 -17q0 -11 -7.5 -18.5
t-18.5 -7.5t-18.5 7.5t-7.5 18.5q0 10 7.5 17t18.5 7zM175 483q11 0 17.5 -7.5t6.5 -18.5t-6.5 -18.5t-17.5 -7.5t-18.5 7.5t-7.5 18.5t7.5 18.5t18.5 7.5zM549 107q11 0 18.5 -7t7.5 -18t-7.5 -18.5t-18.5 -7.5t-18.5 7.5t-7.5 18.5t7.5 18t18.5 7zM268 388q10 0 17.5 -7
t7.5 -18q0 -10 -7.5 -17.5t-17.5 -7.5q-11 0 -18.5 7.5t-7.5 17.5q0 11 7.5 18t18.5 7zM361 295q11 0 18.5 -7.5t7.5 -18.5t-7.5 -18.5t-18.5 -7.5t-18 7.5t-7 18.5t7 18.5t18 7.5zM455 200q11 0 18 -7t7 -17q0 -11 -7 -18.5t-18 -7.5q-10 0 -17.5 7.5t-7.5 18.5
q0 10 7.5 17t17.5 7zM175 388q24 0 24 -25q0 -10 -6.5 -17.5t-17.5 -7.5t-18.5 7.5t-7.5 17.5q0 11 7.5 18t18.5 7zM455 107q25 0 25 -25q0 -11 -7 -18.5t-18 -7.5q-10 0 -17.5 7.5t-7.5 18.5t7.5 18t17.5 7zM268 295q10 0 17.5 -7.5t7.5 -18.5t-7.5 -18.5t-17.5 -7.5
q-11 0 -18.5 7.5t-7.5 18.5t7.5 18.5t18.5 7.5zM361 200q11 0 18.5 -7t7.5 -17q0 -11 -7.5 -18.5t-18.5 -7.5t-18 7.5t-7 18.5q0 10 7 17t18 7zM175 295q11 0 17.5 -7.5t6.5 -18.5t-6.5 -18.5t-17.5 -7.5t-18.5 7.5t-7.5 18.5t7.5 18.5t18.5 7.5zM361 107q11 0 18.5 -7
t7.5 -18t-7.5 -18.5t-18.5 -7.5t-18 7.5t-7 18.5q0 25 25 25zM268 200q10 0 17.5 -7t7.5 -17q0 -11 -7.5 -18.5t-17.5 -7.5q-11 0 -18.5 7.5t-7.5 18.5q0 10 7.5 17t18.5 7zM175 200q11 0 17.5 -7t6.5 -17q0 -11 -6.5 -18.5t-17.5 -7.5t-18.5 7.5t-7.5 18.5q0 10 7.5 17
t18.5 7zM268 107q10 0 17.5 -7t7.5 -18t-7.5 -18.5t-17.5 -7.5q-11 0 -18.5 7.5t-7.5 18.5t7.5 18t18.5 7zM175 107q24 0 24 -25q0 -11 -6.5 -18.5t-17.5 -7.5t-18.5 7.5t-7.5 18.5t7.5 18t18.5 7z" />
    <glyph glyph-name="cid233" unicode="&#x25a4;" 
d="M827 732v-743h-744v743h744zM116 631h678v68h-678v-68zM116 526h678v73h-678v-73zM116 428h678v66h-678v-66zM116 325h678v71h-678v-71zM116 221h678v72h-678v-72zM116 121h678v68h-678v-68zM116 22h678v67h-678v-67z" />
    <glyph glyph-name="cid234" unicode="&#x25a5;" 
d="M827 732v-743h-744v743h744zM726 22h68v677h-68v-677zM626 22h68v677h-68v-677zM522 22h72v677h-72v-677zM419 22h71v677h-71v-677zM321 22h66v677h-66v-677zM216 22h73v677h-73v-677zM116 22h68v677h-68v-677z" />
    <glyph glyph-name="cid235" unicode="&#x25a8;" 
d="M827 732v-743h-744v743h744zM140 22h118l536 536v118zM306 22h118l370 370v118zM472 22h118l204 204v118zM638 22h156v156zM116 545l155 154h-155v-154zM116 497v-119l322 321h-119zM116 330v-118l488 487h-118zM116 164v-118l653 653h-117z" />
    <glyph glyph-name="cid236" unicode="&#x25a7;" 
d="M827 732v-743h-744v743h744zM794 545v154h-155zM794 378v119l-203 202h-119zM794 212v118l-370 369h-118zM794 46v118l-536 535h-117zM116 558l536 -536h118l-654 654v-118zM116 392l370 -370h118l-488 488v-118zM116 226l204 -204h118l-322 322v-118zM116 22h156
l-156 156v-156z" />
    <glyph glyph-name="cid237" unicode="&#x25a6;" 
d="M827 732v-743h-744v743h744zM723 628h71v71h-71v-71zM723 527h71v71h-71v-71zM621 628h71v71h-71v-71zM723 426h71v71h-71v-71zM520 628h71v71h-71v-71zM621 527h71v71h-71v-71zM723 325h71v71h-71v-71zM419 628h71v71h-71v-71zM520 527h71v71h-71v-71zM621 426h71v71
h-71v-71zM723 224h71v71h-71v-71zM318 628h71v71h-71v-71zM419 527h71v71h-71v-71zM520 426h71v71h-71v-71zM621 325h71v71h-71v-71zM723 123h71v71h-71v-71zM217 628h71v71h-71v-71zM318 527h71v71h-71v-71zM419 426h71v71h-71v-71zM520 325h71v71h-71v-71zM621 224h71v71
h-71v-71zM723 22h71v71h-71v-71zM116 628h71v71h-71v-71zM217 527h71v71h-71v-71zM318 426h71v71h-71v-71zM419 325h71v71h-71v-71zM520 224h71v71h-71v-71zM621 123h71v71h-71v-71zM621 22h71v71h-71v-71zM116 527h71v71h-71v-71zM217 426h71v71h-71v-71zM318 325h71v71
h-71v-71zM419 224h71v71h-71v-71zM520 123h71v71h-71v-71zM520 22h71v71h-71v-71zM116 426h71v71h-71v-71zM217 325h71v71h-71v-71zM318 224h71v71h-71v-71zM419 123h71v71h-71v-71zM419 22h71v71h-71v-71zM116 325h71v71h-71v-71zM217 224h71v71h-71v-71zM318 123h71v71
h-71v-71zM318 22h71v71h-71v-71zM116 224h71v71h-71v-71zM217 123h71v71h-71v-71zM217 22h71v71h-71v-71zM116 123h71v71h-71v-71zM116 22h71v71h-71v-71z" />
    <glyph glyph-name="cid238" unicode="&#x25a9;" 
d="M827 732v-743h-744v743h744zM727 611l67 -66v133zM703 635l65 64h-129zM643 528l67 -67l60 60l-66 67zM555 616l65 -65l59 60l-64 64zM532 639l60 60h-120zM734 437l60 -60v120zM389 616l59 -59l60 59l-60 59zM472 533l65 -64l59 59l-65 63zM561 445l66 -67l59 60l-66 66
zM651 354l60 -59l59 59l-60 59zM365 640l59 59h-118zM735 271l59 -59v118zM478 362l66 -66l60 58l-68 67zM223 617l59 -59l59 58l-60 60zM390 450l64 -64l58 59l-64 64zM569 272l59 -60l59 59l-60 59zM652 188l59 -59l59 59l-59 59zM306 534l60 -60l58 59l-60 59zM199 641
l59 58h-117zM735 105l59 -59v118zM652 22h118l-59 59zM116 558l59 59l-59 59v-118zM395 279l66 -66l60 58l-67 68zM140 534l59 -59l59 59l-59 59zM223 451l59 -59l59 59l-59 59zM306 368l65 -64l58 58l-64 65zM486 188l59 -59l59 59l-59 59zM569 105l59 -59l59 59l-59 59z
M486 22h118l-59 59zM116 392l59 59l-59 59v-118zM140 368l59 -59l59 59l-59 59zM223 285l64 -64l59 59l-64 64zM311 197l67 -68l60 59l-67 68zM403 105l59 -59l59 59l-59 59zM116 227l59 58l-59 59v-117zM319 22h119l-59 59zM140 202l64 -64l59 59l-64 64zM228 114l68 -68
l58 60l-67 67zM116 50l64 64l-64 64v-128zM137 22h135l-68 68z" />
    <glyph glyph-name="cid239" unicode="&#x2668;" 
d="M264 330q11 4 13 -4.5t-11 -13.5q-4 -2 -26 -12.5t-46.5 -28.5t-44.5 -42.5t-20 -54.5q0 -26 29.5 -45t76.5 -31.5t106.5 -19t119.5 -6.5t119 8.5t106 24.5t76.5 38.5t29.5 51.5q0 21 -13 39t-31 32.5t-38 24.5t-33 14q-12 4 -9 11t13 5q15 -2 43.5 -11.5t57 -27t50 -43
t21.5 -58.5q0 -46 -32 -84.5t-86 -66t-125 -43t-150 -15.5t-152 13.5t-129 37.5t-89.5 57.5t-33.5 73.5t25 70.5t58.5 52t68.5 34.5t56 19zM352 736q5 -15 6 -52.5t-16 -97.5q-6 -22 -2 -49t12.5 -58t17.5 -66t13 -72q3 -30 -13.5 -73.5t-41.5 -91.5q-13 -24 -18 -38.5
t-6 -23.5q-1 -8 -6.5 -8.5t-10.5 8.5q-6 13 -9 39t8 58q5 14 11 39t9 55t0.5 61.5t-13.5 58.5q-14 34 -18 67t0 64.5t14.5 61t25.5 57.5q8 14 14 30t9 30q2 8 7 7.5t7 -6.5zM482 782q5 -11 9.5 -28.5t6 -39.5t-1 -46.5t-11.5 -49.5q-13 -36 -11 -65.5t10.5 -58t20.5 -59
t20 -69.5q4 -22 -2.5 -49t-17.5 -53.5t-23 -49.5t-19 -37q-15 -28 -22 -45.5t-8 -27.5q-1 -9 -7.5 -8.5t-9.5 7.5q-7 16 -8 48.5t16 74.5q15 35 18 70t0 65t-9 52t-10 30q-20 46 -23 82t3.5 65t18.5 52.5t22 44.5q14 29 18.5 53t4.5 40q0 11 5.5 10.5t9.5 -8.5zM600 732
q8 -16 14 -51t-2 -92q-5 -35 0 -58t13.5 -44.5t18 -46.5t13.5 -62q3 -38 -5 -67t-20 -52.5t-25.5 -42.5t-21.5 -35q-13 -25 -19.5 -44.5t-8.5 -28.5q-2 -5 -6.5 -7t-7.5 7q-3 7 -4.5 19t-1.5 26t2.5 28t7.5 26q9 22 18.5 50t14.5 57t4.5 58.5t-11.5 55.5q-17 38 -23 69.5
t-4.5 59t9 53t18.5 51.5q7 17 10 36.5t3 32.5q0 9 4.5 11t9.5 -9z" />
    <glyph glyph-name="cid240" unicode="&#x260f;" 
d="M393 508h124v53q-11 -4 -28 -7t-34 -3t-34 3t-28 7v-53zM455 647q-51 0 -101 -5.5t-93.5 -15t-79 -23.5t-56.5 -30q-28 -21 -42.5 -46t-19 -47t-2 -36.5t8.5 -14.5q19 -2 39 0.5t38 7.5t33 12.5t24 16.5q6 5 4 15t-5 23.5t-4.5 28t5.5 28.5q8 18 43 29.5t101 11.5
q11 0 22 -2.5t24 -4.5q16 -4 30 -6t31 -2q16 0 30 2t31 6q13 2 23 4.5t21 2.5q66 0 100.5 -10.5t45.5 -30.5q7 -14 5.5 -28.5t-5 -28t-5.5 -23.5t3 -15q9 -8 24 -15.5t33 -13t38 -8t39 -0.5q6 0 8.5 14.5t-2.5 36t-19.5 46.5t-41.5 47q-21 16 -60.5 30t-86 23.5t-94.5 15
t-87 5.5zM455 433q31 0 59 -12.5t49 -33.5t33.5 -49t12.5 -59q0 -32 -12.5 -60t-33.5 -49t-49 -33t-59 -12q-32 0 -60 12t-49 33t-33 49t-12 60q0 31 12 59t33 49t49 33.5t60 12.5zM455 392q-24 0 -44.5 -9t-35.5 -24t-24 -35.5t-9 -44.5t9 -44.5t24 -35.5t35.5 -23.5
t44.5 -8.5t44.5 8.5t35.5 23.5t24 35.5t9 44.5t-9 44.5t-24 35.5t-35.5 24t-44.5 9zM455 680q60 0 120 -7.5t113 -22.5t95.5 -38.5t66.5 -54.5q14 -18 22.5 -40.5t11.5 -44t1.5 -40.5t-7.5 -29t-20 -12.5t-32.5 -1t-39 6.5t-39.5 10q-31 9 -56 22.5t-29 31.5q-2 7 0 18t5 22
t5.5 21.5t1.5 17.5q-2 10 -6.5 15.5t-11.5 7.5t-15.5 2.5t-17.5 1.5q-2 -12 -3 -22.5t0 -24t4 -30t10 -40.5q7 -26 16.5 -44.5t21 -33.5t25 -27t29.5 -25q25 -21 39 -44.5t21 -46.5t8.5 -43t1.5 -35q8 -3 12.5 -12t7 -21t2.5 -24.5t-1 -22.5q-1 -9 -10 -12.5t-24 -3.5h-656
q-15 0 -24 3.5t-10 12.5q-1 10 -1 22.5t2.5 24.5t7 21t12.5 12q0 15 1.5 35t8.5 43t21 46.5t39 44.5q16 13 29.5 25t25 27t21 33.5t16.5 44.5q6 24 9.5 40.5t4 30t-0.5 24t-2 22.5q-9 -1 -17.5 -1.5t-15.5 -2.5t-11.5 -7.5t-6.5 -15.5q-2 -7 0.5 -17.5t6 -21.5t5.5 -22
t0 -18q-4 -18 -29 -31.5t-56 -22.5q-19 -5 -39.5 -10t-39 -6.5t-32.5 1t-20 12.5t-7.5 29t1.5 40.5t11.5 44t22.5 40.5q24 31 66.5 54.5t95.5 38.5t113 22.5t120 7.5zM320 563q3 -31 -1 -73t-21 -90q-6 -16 -14.5 -29t-20 -26t-27 -27.5t-36.5 -34.5q-13 -12 -21.5 -29.5
t-14 -35.5t-7.5 -35t-2 -28q-8 -5 -11.5 -15.5t-4 -21t1.5 -18.5t5 -8h618q2 0 3.5 8t1 18.5t-4 21t-11.5 15.5q0 11 -2.5 28t-7.5 35t-13.5 35.5t-21.5 29.5q-21 20 -36 34.5t-26.5 27.5t-19.5 26t-14 29q-17 48 -22 90t-2 73h-35v-88h-196v88h-37z" />
    <glyph glyph-name="cid241" unicode="&#x260e;" 
d="M455 430q-30 0 -57 -11.5t-47 -31.5t-31.5 -47t-11.5 -57t11.5 -57t31.5 -46.5t47 -31t57 -11.5t57 11.5t47 31t31.5 46.5t11.5 57t-11.5 57t-31.5 47t-47 31.5t-57 11.5zM377 514h156v65q-14 -4 -35 -7t-43 -3t-43 3t-35 7v-65zM455 680q60 0 120 -7t113 -22t95.5 -38
t66.5 -54q14 -18 22.5 -40.5t11.5 -45t1.5 -41.5t-7.5 -29t-20 -12.5t-32.5 -1t-39 6.5t-39.5 10q-31 9 -56 22.5t-29 31.5q-2 7 0.5 18t6.5 22t7 21.5t2 17.5q-4 20 -20 27t-35 10q-3 -23 -3 -51.5t14 -75.5q7 -26 16.5 -44.5t21 -33.5t25 -27t29.5 -25q25 -21 39 -44.5
t21 -46.5t8.5 -43t1.5 -35q8 -3 12.5 -12t7 -21t2.5 -24.5t-1 -22.5q-1 -9 -10 -12.5t-24 -3.5h-656q-15 0 -24 3.5t-10 12.5q-1 10 -1 22.5t2.5 24.5t7 21t12.5 12q0 15 1.5 35t8.5 43t21 46.5t39 44.5q16 13 29.5 25t25 27t21 33.5t16.5 44.5q13 47 13.5 75.5t-2.5 51.5
q-19 -3 -35 -10t-20 -27q-2 -7 1 -17.5t7 -21.5t7 -22t1 -18q-4 -18 -29 -31.5t-56 -22.5q-19 -5 -39.5 -10t-39 -6.5t-32.5 1t-20 12.5t-7.5 29t1.5 41.5t11.5 45t22.5 40.5q24 31 66.5 54t95.5 38t113 22t120 7z" />
    <glyph glyph-name="cid242" unicode="&#x261c;" 
d="M467 481q32 0 64.5 -0.5t64 -5.5t61 -17t55.5 -36q16 -4 32 -5.5t28 -0.5v32h75v-236h-76v21h-29q-26 -16 -64.5 -30t-103.5 -25q-18 -3 -44.5 -4t-54 -1t-53 1.5t-41.5 3.5q-18 3 -34.5 9.5t-20.5 23.5q-2 12 2.5 19.5t12.5 12.5q-14 0 -25.5 9t-12.5 24q-1 11 2.5 18
t8.5 12q-14 2 -25 9t-11 24q0 22 19 31t63 9l-3 8q-24 1 -43 1.5t-38.5 1t-40.5 1.5t-49 3q-21 1 -43 2t-40 5t-29.5 12.5t-11.5 23.5q0 13 9 20t25 10.5t37.5 5t46.5 3.5q14 1 45 2t71 1.5t84.5 1t86.5 0.5zM480 465q-14 -2 -33 -8.5t-33 -15.5q-8 -5 -12.5 -12t-9.5 -15
q-8 -17 -19 -24q-4 -5 3 -9t28 4q10 4 18 10.5t14 12t10 9t6 0.5q5 -6 -4 -15q8 -3 20.5 -4.5t20.5 0.5q20 5 30 12.5t12 3.5q2 -5 -2 -11.5t-12 -11.5q6 -9 26.5 -25t52.5 -27q20 -7 37 -9.5t29 -4t19 -3t7 -5.5q0 -3 -9 -4t-22.5 0t-28.5 3.5t-27 5.5q-21 7 -37.5 16
t-29 18.5t-21 18t-12.5 14.5q-5 -3 -11.5 -3.5t-11.5 -0.5q-14 1 -25.5 3t-16.5 4l-15 -13q26 0 44 -6.5t21 -18.5q4 -14 0.5 -24.5t-11.5 -16.5q28 -7 31 -28q2 -14 -2.5 -20.5t-12.5 -11.5q29 -6 32 -28q2 -15 -5 -23.5t-8 -9.5q14 -3 35 0q39 3 69.5 9.5t54.5 14.5t43 18
t35 20q3 3 5.5 3t1.5 -4l-2 -8h20v154q-8 -1 -21.5 0t-22.5 3l2 -8q2 -10 0 -10.5t-7 5.5q-8 10 -22.5 22.5t-35.5 26.5q-15 10 -41 16t-53.5 9t-52.5 3.5t-38 -1.5zM429 465q-49 0 -114.5 -1t-133.5 -3q-48 -2 -75 -5.5t-27 -18.5q0 -16 23 -19.5t79 -7.5q62 -3 104 -5
t83 -3l21 32q8 11 17 18.5t23 12.5zM787 228h44v203h-44v-203zM343 303q-10 -1 -16.5 -8t-6.5 -17q0 -16 25 -20q5 -1 23.5 -2t38 -1h35.5h17q10 0 20 4.5t11 15.5q1 15 -6 20.5t-22 7.5q-7 1 -23 1h-34.5t-35.5 -0.5t-26 -0.5zM476 240q-27 1 -59 1t-54 -2
q-11 -1 -15.5 -8.5t-2.5 -15.5q1 -6 5.5 -11t12.5 -7q26 -5 57.5 -5.5t56.5 1.5q33 2 30 29q-1 11 -11.5 14.5t-19.5 3.5zM313 361q-10 -2 -15 -8t-4 -14q0 -7 5 -13t15 -6q15 -1 34 -1h37.5t35 1t27.5 2q8 2 13.5 6.5t5.5 15.5q0 6 -4.5 11t-15.5 6q-37 2 -69.5 3t-64.5 -3
z" />
    <glyph glyph-name="cid243" unicode="&#x261e;" 
d="M442 481q42 0 86.5 -0.5t84.5 -1t71 -1.5t45 -2q25 -2 46.5 -3.5t37.5 -5t25 -10.5t9 -20q0 -15 -11.5 -23.5t-29.5 -12.5t-40 -5t-43 -2q-28 -2 -49 -3t-40.5 -1.5t-38.5 -1t-43 -1.5l-3 -8q44 0 63 -9t19 -31q0 -17 -11 -24t-25 -9q5 -5 8.5 -12t2.5 -18
q-1 -15 -12.5 -24t-25.5 -9q8 -5 12.5 -12.5t2.5 -19.5q-4 -17 -20.5 -23.5t-34.5 -9.5q-16 -2 -41.5 -3.5t-53 -1.5t-54 1t-44.5 4q-65 11 -103.5 25t-64.5 30h-29v-21h-76v236h75v-32q12 -1 28 0.5t32 5.5q26 24 55.5 36t61 17t64 5.5t64.5 0.5zM429 465q-14 2 -38.5 1.5
t-52 -3.5t-53.5 -9t-41 -16q-21 -14 -35.5 -26.5t-22.5 -22.5q-5 -6 -7 -5.5t0 10.5l2 8q-9 -2 -22.5 -3t-21.5 0v-154h20l-2 8q-2 5 1 4t6 -3q31 -20 77.5 -37.5t124.5 -24.5q19 -3 33 0q-2 1 -8 9.5t-3 23.5q3 22 32 28q-8 5 -12.5 11.5t-2.5 20.5q5 21 31 28
q-8 6 -11.5 16.5t0.5 24.5q4 12 21.5 18.5t43.5 6.5l-15 13q-5 -2 -16.5 -4t-25.5 -3q-5 0 -11.5 0.5t-11.5 3.5q-4 -6 -12.5 -14.5t-21 -18t-29 -18.5t-37.5 -16q-12 -3 -27 -5.5t-28.5 -3.5t-22.5 0t-9 4q0 4 7 5.5t19 3t29 4t37 9.5q32 11 52.5 27t26.5 25q-8 5 -12 11.5
t-2 11.5q2 4 12 -3.5t30 -12.5q8 -2 20.5 -0.5t20.5 4.5q-4 4 -5.5 8t1.5 7q2 3 6 -0.5t10 -9t14 -12t18 -10.5q21 -8 28 -4t3 9q-11 7 -19 24q-5 8 -9.5 15t-12.5 12q-14 9 -33 15.5t-33 8.5zM480 465q14 -5 23 -12.5t17 -18.5l21 -32q41 1 83 3t104 5q56 4 79 7.5t23 19.5
q0 15 -27 18.5t-75 5.5q-68 2 -133.5 3t-114.5 1zM78 228h44v203h-44v-203zM447 303q-14 -2 -21.5 -7.5t-6.5 -20.5q1 -11 11 -15.5t20 -4.5h17h35.5t38 1t23.5 2q25 4 25 20q0 10 -6.5 17t-16.5 8q-9 0 -26 0.5t-35.5 0.5h-34.5t-23 -1zM433 240q-9 0 -19.5 -3.5
t-11.5 -14.5q-3 -27 30 -29q25 -2 56.5 -1.5t57.5 5.5q8 2 12.5 7t5.5 11q2 8 -2.5 15.5t-15.5 8.5q-22 2 -54 2t-59 -1zM462 361q-11 -1 -15.5 -6t-4.5 -11q0 -11 5.5 -15.5t13.5 -6.5q11 -1 27.5 -2t35 -1h37.5t34 1q10 0 15 6t5 13q1 8 -4 14t-15 8q-32 4 -64.5 3
t-69.5 -3z" />
    <glyph glyph-name="cid244" unicode="&#xb6;" horiz-adv-x="588" 
d="M432 715q33 0 46 -12.5t13 -44.5v-767q0 -9 -6.5 -13t-16.5 -4q-8 0 -14.5 4t-6.5 13v783h-96v-783q0 -9 -6.5 -13t-16.5 -4q-8 0 -14.5 4t-6.5 13v463h-60q-37 0 -72 10.5t-62 32.5t-43.5 56t-16.5 81q0 37 10 70t34.5 57.5t65 39t100.5 14.5h169z" />
    <glyph glyph-name="cid245" unicode="&#x2020;" horiz-adv-x="437" 
d="M217 716q9 0 16 -4t7 -14v-191h148q8 0 11.5 -5t3.5 -13q0 -19 -15 -19h-148v-525q0 -10 -7 -14t-16 -4q-8 0 -15 4t-7 14v525h-146q-15 0 -15 19q0 8 3.5 13t11.5 5h146v191q0 10 7 14t15 4z" />
    <glyph glyph-name="cid246" unicode="&#x2021;" horiz-adv-x="437" 
d="M217 716q9 0 16 -4t7 -14v-191h148q8 0 11.5 -5t3.5 -13q0 -19 -15 -19h-148v-297h148q8 0 11.5 -5t3.5 -13q0 -19 -15 -19h-148v-191q0 -10 -7 -14t-16 -4q-8 0 -15 4t-7 14v191h-146q-15 0 -15 19q0 8 3.5 13t11.5 5h146v297h-146q-15 0 -15 19q0 8 3.5 13t11.5 5h146
v191q0 10 7 14t15 4z" />
    <glyph glyph-name="cid247" unicode="&#x2195;" horiz-adv-x="670" 
d="M296 574q-13 -20 -28 -36l-102 -106q-11 -11 -24 -9t-24 13q-11 10 -13.5 24t8.5 25l188 188q13 13 20 17t14 4t14 -4t20 -17l188 -188q11 -11 8.5 -25t-13.5 -24q-11 -11 -24 -13t-24 9l-102 106q-15 16 -28 36v-424q13 19 28 36l102 106q11 11 24 9t24 -13
q11 -10 13.5 -24t-8.5 -25l-188 -188q-13 -13 -20 -17t-14 -4t-14 4t-20 17l-188 188q-11 11 -8.5 25t13.5 24q11 11 24 13t24 -9l102 -106q15 -17 28 -36v424v0z" />
    <glyph glyph-name="cid248" unicode="&#x2197;" horiz-adv-x="691" 
d="M517 404q0 20 1.5 40.5t5.5 34.5l-374 -374q-12 -12 -26 -9.5t-25 13.5t-13.5 25t9.5 26l374 374q-14 -4 -34.5 -5.5t-40.5 -1.5h-117q-16 0 -23.5 11t-7.5 26t7.5 26t23.5 11h266q18 0 26 -2t13 -7t7 -13t2 -26v-266q0 -16 -11 -23.5t-26 -7.5t-26 7.5t-11 23.5v117z
" />
    <glyph glyph-name="cid249" unicode="&#x2199;" horiz-adv-x="691" 
d="M174 310q0 -20 -1.5 -40.5t-5.5 -34.5l374 374q12 12 26 9.5t25 -13.5t13.5 -25t-9.5 -26l-374 -374q14 4 34.5 5.5t40.5 1.5h117q16 0 23.5 -11t7.5 -26t-7.5 -26t-23.5 -11h-266q-18 0 -26 2t-13 7t-7 13t-2 26v266q0 16 11 23.5t26 7.5t26 -7.5t11 -23.5v-117z" />
    <glyph glyph-name="cid250" unicode="&#x2196;" horiz-adv-x="691" 
d="M174 287q0 -16 -11 -23.5t-26 -7.5t-26 7.5t-11 23.5v266q0 18 2 26t7 13t13 7t26 2h266q16 0 23.5 -11t7.5 -26t-7.5 -26t-23.5 -11h-117q-20 0 -40.5 1.5t-34.5 5.5l374 -374q12 -12 9.5 -26t-13.5 -25t-25 -13.5t-26 9.5l-374 374q4 -14 5.5 -34.5t1.5 -40.5v-117z
" />
    <glyph glyph-name="cid251" unicode="&#x2198;" horiz-adv-x="691" 
d="M517 427q0 16 11 23.5t26 7.5t26 -7.5t11 -23.5v-266q0 -18 -2 -26t-7 -13t-13 -7t-26 -2h-266q-16 0 -23.5 11t-7.5 26t7.5 26t23.5 11h117q20 0 40.5 -1.5t34.5 -5.5l-374 374q-12 12 -9.5 26t13.5 25t25 13.5t26 -9.5l374 -374q-4 14 -5.5 34.5t-1.5 40.5v117z" />
    <glyph glyph-name="cid252" unicode="&#x266d;" horiz-adv-x="469" 
d="M343 269q0 27 -5 50t-14 40t-22.5 27t-29.5 10q-28 0 -48.5 -12t-34 -29.5t-20 -38t-6.5 -38.5v-214q29 2 61 14t58.5 36t43.5 62t17 93zM419 306q0 -56 -14.5 -99.5t-38.5 -75t-56 -53t-67.5 -35t-72.5 -20t-70 -8.5v665h63v-328q6 16 15.5 32.5t26 30.5t40.5 23t58 9
q24 0 45 -10t37 -28.5t25 -44.5t9 -58z" />
    <glyph glyph-name="cid253" unicode="&#x2669;" horiz-adv-x="339" 
d="M239 155q0 -43 -6.5 -71t-28.5 -54q-14 -16 -32 -29.5t-37.5 -20.5t-38 -4.5t-31.5 17.5q-14 15 -14.5 34t8 38t24 35.5t33.5 27.5q37 22 85 29v545h38v-547z" />
    <glyph glyph-name="cid254" unicode="&#x266a;" horiz-adv-x="520" 
d="M470 379q0 -30 -9 -61.5t-30 -63.5q-20 -30 -50 -58.5t-57 -44.5q-11 -7 -14.5 -1.5t4.5 13.5q13 13 30 32t32.5 43.5t26 54t10.5 63.5q0 33 -19 56t-46 39.5t-57 26.5t-52 17v-340q0 -43 -6.5 -71t-28.5 -54q-14 -16 -32 -29.5t-37.5 -20.5t-38 -4.5t-31.5 17.5
q-14 15 -14.5 34t8 38t24 35.5t33.5 27.5q37 22 85 29v500q0 13 1 26.5t8 13.5t13 -5t18 -19q13 -15 28 -31.5t42 -39.5q43 -37 73.5 -68t49.5 -58t27.5 -50.5t8.5 -46.5z" />
    <glyph glyph-name="cid255" unicode="&#x266c;" horiz-adv-x="733" 
d="M593 526v58l-347 -74v-58zM633 231q0 -35 -19 -65t-48 -54q-13 -11 -29.5 -20t-33 -12t-32 0.5t-26.5 18.5q-9 11 -8 26.5t8 31.5t18.5 30.5t24.5 24.5q29 21 53.5 27.5t51.5 10.5v182l-347 -75v-223q0 -35 -19 -65t-48 -54q-13 -11 -29.5 -20t-33 -12t-32 0.5
t-26.5 18.5q-9 11 -8 26.5t8 31.5t18.5 30.5t24.5 24.5q29 21 53.5 27.5t51.5 10.5v446l427 86v-454z" />
    <glyph glyph-name="cid256" unicode="&#x327f;" 
d="M880 361q0 -87 -30.5 -164.5t-86.5 -135t-134.5 -91.5t-174.5 -34q-81 0 -149.5 25t-121.5 69t-90 104.5t-53 132.5l78 1q15 -57 44 -105t71.5 -82.5t98 -54t122.5 -19.5q77 0 140.5 26t109.5 71t72.5 105.5t30.5 130.5h-175v72h245q3 -26 3 -51zM774 502
q-20 47 -50 86.5t-70 67.5t-90 43.5t-110 15.5q-72 0 -132 -23t-104.5 -63.5t-73.5 -96t-39 -120.5h122v-72h-197v21q0 87 31 164t86.5 134.5t133.5 91.5t173 34q75 0 137.5 -20.5t113 -57.5t87.5 -89.5t61 -115.5h-79zM492 410l186 -267h-100l-141 210l-64 -65v-145h-80
v449h80v-207l194 207h103z" />
    <glyph glyph-name="cid257" unicode="&#x321c;" 
d="M653 625q16 0 16 -19q0 -8 -4 -13.5t-12 -5.5h-181v-11q0 -44 15.5 -68.5t52.5 -44.5q73 -39 140 -70q9 -5 10 -12.5t-3 -14.5t-10 -10.5t-17 1.5l-65 32.5t-64 33.5q-69 38 -79 64h-1q-11 -27 -77 -64q-33 -18 -64 -33.5l-65 -32.5q-11 -5 -17 -1.5t-10 10.5t-3 14.5
t10 12.5q67 31 140 70q37 20 51.5 44.5t14.5 68.5v11h-180q-8 0 -12 5.5t-4 13.5q0 19 16 19h402zM727 288q8 0 12 -5t4 -13q0 -19 -16 -19h-255v-216q0 -9 -6 -13.5t-14 -4.5t-14 4.5t-6 13.5v216h-255q-16 0 -16 19q0 8 4 13t12 5h550zM194 802q8 -3 11 -10.5t-1 -13.5
q-30 -46 -53 -93.5t-38.5 -101t-23.5 -115.5t-8 -137t8 -137t23.5 -115.5t38.5 -101t53 -93.5q4 -6 1 -13.5t-11 -10.5t-15 -1t-11 7q-27 36 -52.5 80t-45 100t-31 126t-11.5 159t11.5 159t31 126t45 100t52.5 80q4 5 11 7t15 -1zM717 802q8 3 15 1t11 -7q27 -36 52.5 -80
t45 -100t31 -126t11.5 -159t-11.5 -159t-31 -126t-45 -100t-52.5 -80q-4 -5 -11 -7t-15 1t-11 10.5t1 13.5q30 46 53 93.5t38.5 101t23.5 115.5t8 137t-8 137t-23.5 115.5t-38.5 101t-53 93.5q-4 6 -1 13.5t11 10.5z" />
    <glyph glyph-name="cid258" unicode="&#x2116;" horiz-adv-x="1079" 
d="M854 726q77 0 113.5 -45.5t36.5 -127.5v-23q0 -82 -36.5 -127.5t-113.5 -45.5t-113.5 45.5t-36.5 127.5v23q0 82 36.5 127.5t113.5 45.5zM854 688q-55 0 -82.5 -32.5t-27.5 -104.5v-19q0 -72 27.5 -104.5t82.5 -32.5t82.5 32.5t27.5 104.5v19q0 72 -27.5 104.5
t-82.5 32.5zM569 718q9 0 16 -4t7 -14v-644q0 -29 -10.5 -41t-28.5 -12q-12 0 -20 5.5t-18 21.5l-345 577q-7 11 -14.5 26.5t-13.5 30.5v-645q0 -10 -7 -14t-16 -4q-8 0 -15 4t-7 14v644q0 29 10.5 41t28.5 12q12 0 20 -5.5t18 -21.5l345 -577q7 -11 14.5 -26.5t13.5 -30.5
v645q0 10 7 14t15 4zM987 271q9 0 13 -6t4 -15t-4 -15t-13 -6h-266q-9 0 -13 6t-4 15t4 15t13 6h266z" />
    <glyph glyph-name="cid259" unicode="&#x33c7;" horiz-adv-x="1034" 
d="M347 726q66 0 116 -14.5t88 -38.5q17 -11 6 -30q-11 -18 -28 -7q-19 12 -38 20.5t-41 14.5t-47.5 9t-56.5 3q-119 0 -175 -77.5t-56 -221.5v-49q0 -143 56.5 -220.5t176.5 -77.5q66 0 115 16.5t87 47.5q7 5 15.5 4t14.5 -9q15 -20 -3 -33q-40 -32 -95.5 -51t-133.5 -19
q-143 0 -211 88.5t-68 247.5v61q0 160 68.5 248t209.5 88zM809 726q77 0 113.5 -45.5t36.5 -127.5v-23q0 -82 -36.5 -127.5t-113.5 -45.5t-113.5 45.5t-36.5 127.5v23q0 82 36.5 127.5t113.5 45.5zM809 688q-55 0 -82.5 -32.5t-27.5 -104.5v-19q0 -72 27.5 -104.5
t82.5 -32.5t82.5 32.5t27.5 104.5v19q0 72 -27.5 104.5t-82.5 32.5zM942 271q9 0 13 -6t4 -15t-4 -15t-13 -6h-266q-9 0 -13 6t-4 15t4 15t13 6h266z" />
    <glyph glyph-name="cid260" unicode="&#x2122;" horiz-adv-x="728" 
d="M372 716q14 0 22.5 -7t16.5 -25l91 -192l90 192q8 18 16.5 25t22.5 7h2q29 -1 29 -45v-269q0 -8 -5.5 -11.5t-13.5 -3.5q-7 0 -12.5 3.5t-5.5 11.5v273l-40 -86l-48 -100q-9 -18 -15.5 -26t-19.5 -8t-20 8t-16 26l-48 100l-40 86v-273q0 -8 -5.5 -11.5t-12.5 -3.5
q-8 0 -13.5 3.5t-5.5 11.5v269q0 44 29 45h2zM281 715q8 0 11.5 -5.5t3.5 -13.5q0 -6 -3.5 -12t-11.5 -6h-99v-275q0 -9 -5.5 -12.5t-13.5 -3.5t-14 3.5t-6 12.5v275h-100q-8 0 -11.5 6t-3.5 12q0 8 3.5 13.5t11.5 5.5h238z" />
    <glyph glyph-name="cid261" unicode="&#x33c2;" 
d="M151 262q-45 0 -65 -30t-20 -78v-8q0 -34 5 -56t13.5 -34.5t20 -17.5t24.5 -5q21 0 35.5 7.5t23.5 19.5t13 27t4 30v145h-54zM502 528q13 0 27 -2.5t27 -10t23.5 -21.5t16.5 -36q13 31 39.5 50.5t64.5 19.5q45 0 73.5 -31.5t28.5 -103.5v-375q0 -9 -7 -13t-16 -4
q-8 0 -14.5 4t-6.5 13v357q0 52 -13.5 81.5t-56.5 29.5q-23 0 -39.5 -10.5t-26.5 -26t-14.5 -34.5t-4.5 -36v-361q0 -9 -7 -13t-16 -4q-8 0 -14.5 4t-6.5 13v366q0 53 -13 77.5t-54 24.5q-22 0 -38.5 -10t-27.5 -26t-16.5 -36.5t-5.5 -40.5v-355q0 -9 -7 -13t-16 -4
q-8 0 -14.5 4t-6.5 13v484q0 10 6.5 14t14.5 4t15 -4t7 -14v-40q14 30 42.5 48t56.5 18zM137 528q22 0 42 -6t35.5 -22.5t24.5 -45.5t9 -75v-363q0 -8 -5.5 -11.5t-12.5 -3.5t-12.5 3.5t-5.5 11.5v37q-10 -22 -31 -39.5t-59 -17.5q-45 0 -72 34.5t-27 109.5v17q0 64 33 104
t100 40h48v66q0 41 -5.5 64.5t-15 35.5t-21.5 15t-25 3q-38 0 -69 -28q-8 -7 -15.5 -5t-12.5 9q-5 6 -5.5 13.5t7.5 14.5q19 17 43.5 28t51.5 11zM304 60q13 0 22 -8.5t9 -21.5q0 -12 -9 -20.5t-22 -8.5q-12 0 -21 8.5t-9 20.5q0 13 9 21.5t21 8.5zM862 60q13 0 22 -8.5
t9 -21.5q0 -12 -9 -20.5t-22 -8.5q-12 0 -21 8.5t-9 20.5q0 13 9 21.5t21 8.5z" />
    <glyph glyph-name="cid262" unicode="&#x33d8;" 
d="M172 486q-28 0 -44 -14t-24.5 -35.5t-11 -47.5t-2.5 -50v-146q0 -24 5 -51t15.5 -50t26 -38.5t35.5 -15.5q21 0 35 9.5t21.5 31.5t10.5 56.5t3 85.5v86q0 33 -3 65t-11 57.5t-21.5 41t-34.5 15.5zM321 60q13 0 22 -8.5t9 -21.5q0 -12 -9 -20.5t-22 -8.5q-12 0 -21 8.5
t-9 20.5q0 13 9 21.5t21 8.5zM867 60q13 0 22 -8.5t9 -21.5q0 -12 -9 -20.5t-22 -8.5q-12 0 -21 8.5t-9 20.5q0 13 9 21.5t21 8.5zM516 528q13 0 26.5 -2.5t26 -10t22.5 -21.5t16 -36q13 31 38 50.5t63 19.5q44 0 71.5 -31.5t27.5 -103.5v-375q0 -9 -7 -13t-16 -4
q-8 0 -14.5 4t-6.5 13v357q0 23 -2 43t-9 35t-20.5 24t-35.5 9q-23 0 -39 -10.5t-25.5 -26t-13.5 -34.5t-4 -36v-361q0 -9 -7 -13t-16 -4q-8 0 -14.5 4t-6.5 13v366q0 51 -12 76.5t-52 25.5q-22 0 -38 -10t-26.5 -26t-15.5 -36.5t-5 -40.5v-355q0 -9 -7 -13t-16 -4
q-8 0 -14.5 4t-6.5 13v484q0 10 6.5 14t14.5 4t15 -4t7 -14v-40q14 30 41 48t55 18zM177 528q60 0 84.5 -53.5t24.5 -167.5v-90q0 -64 -7.5 -106.5t-21.5 -68t-33.5 -36t-42.5 -10.5q-30 0 -55 17.5t-36 59.5v-248q0 -10 -7 -14t-15 -4t-15 4t-7 14v679q0 9 6 12.5t13 3.5
t13 -3.5t6 -12.5v-42q13 32 37.5 49t55.5 17z" />
    <glyph glyph-name="cid263" unicode="&#x2121;" horiz-adv-x="1048" 
d="M663 517q9 0 13 -6t4 -15t-4 -15t-13 -6h-213v-189h193q8 0 12 -6t4 -14q0 -9 -4 -15t-12 -6h-193v-199h220q9 0 13 -6t4 -15t-4 -15t-13 -6h-207q-33 0 -46 12.5t-13 44.5v399q0 32 13 44.5t46 12.5h200zM434 715q9 0 13 -6t4 -15t-4 -15t-13 -6h-183v-654q0 -10 -7 -14
t-17 -4q-8 0 -15 4t-7 14v654h-178q-9 0 -13 6t-4 15t4 15t13 6h407zM792 519q10 0 17 -4t7 -14v-455h205q9 0 13 -6t4 -15t-4 -15t-13 -6h-192q-33 0 -46 12.5t-13 44.5v440q0 10 7 14t15 4z" />
    <glyph glyph-name="cid264" unicode="&#xff01;" 
d="M455 74q20 0 33 -13t13 -32t-13 -32t-33 -13t-33 13t-13 32t13 32t33 13zM455 729q25 0 25 -22l-5 -502q0 -20 -20 -20t-20 20l-5 502q0 22 25 22z" />
    <glyph glyph-name="cid265" unicode="&#xff02;" 
d="M393 729q11 0 19 -5.5t7 -16.5l-8 -205q0 -17 -18 -17t-18 17l-8 205q-1 11 7 16.5t19 5.5zM517 729q11 0 19 -5.5t7 -16.5l-8 -205q0 -17 -18 -17t-18 17l-8 205q-1 11 7 16.5t19 5.5z" />
    <glyph glyph-name="cid266" unicode="&#xff03;" 
d="M404 718q20 -2 17 -20l-27 -190h163l28 194q3 18 22 16q20 -2 17 -20l-27 -190h99q16 0 16 -20q0 -8 -4 -13t-12 -5h-105l-30 -217h102q16 0 16 -20q0 -8 -4 -13t-12 -5h-108l-27 -194q-3 -18 -22 -16q-20 2 -17 20l27 190h-164l-27 -194q-3 -18 -22 -16q-20 2 -17 20
l27 190h-100q-8 0 -11.5 5t-3.5 13q0 20 15 20h105l31 217h-103q-8 0 -11.5 5t-3.5 13q0 20 15 20h108l28 194q3 18 22 16zM358 253h163l31 217h-164z" />
    <glyph glyph-name="cid267" unicode="&#xff04;" 
d="M476 57q82 5 128 42t46 91v14q0 26 -6.5 45t-25.5 34.5t-53 29t-89 28.5v-284zM439 662q-75 -5 -121 -37.5t-46 -87.5v-13q0 -23 6.5 -41.5t24.5 -33.5t50.5 -28.5t85.5 -26.5v268zM458 774q8 0 13 -3.5t5 -12.5v-55q49 -2 95 -15t81 -35q8 -5 9 -13t-4 -16
q-10 -16 -27 -6q-35 20 -75 31t-79 13v-277q67 -17 109 -34t66 -37.5t33 -46t9 -59.5v-21q0 -33 -14.5 -63t-42.5 -53t-68.5 -37.5t-91.5 -17.5v-66q0 -9 -5 -12.5t-13 -3.5q-19 0 -19 16v65q-60 2 -114 19t-97 46q-8 5 -10 13.5t3 16.5q11 19 30 7q42 -29 89.5 -44.5
t98.5 -16.5v294q-65 14 -106 32t-64 39.5t-31.5 47t-8.5 54.5v16q0 71 56 115t154 49v55q0 16 19 16z" />
    <glyph glyph-name="cid268" unicode="&#xff05;" 
d="M248 726q77 0 113.5 -45.5t36.5 -127.5v-23q0 -82 -36.5 -127.5t-113.5 -45.5t-113.5 45.5t-36.5 127.5v23q0 82 36.5 127.5t113.5 45.5zM248 689q-55 0 -82.5 -33t-27.5 -105v-19q0 -72 27.5 -105t82.5 -33t82.5 33t27.5 105v19q0 72 -27.5 105t-82.5 33zM675 715
q16 -8 7 -24l-419 -680q-9 -15 -26 -6q-16 8 -7 24l419 680q9 15 26 6zM662 363q77 0 113.5 -45.5t36.5 -127.5v-23q0 -82 -36.5 -127.5t-113.5 -45.5t-113.5 45.5t-36.5 127.5v23q0 82 36.5 127.5t113.5 45.5zM662 326q-55 0 -82.5 -33t-27.5 -105v-19q0 -72 27.5 -105
t82.5 -33t82.5 33t27.5 105v19q0 72 -27.5 105t-82.5 33z" />
    <glyph glyph-name="cid269" unicode="&#xff06;" 
d="M425 726q39 0 70 -11.5t52.5 -30.5t32.5 -42.5t11 -47.5v-14q0 -25 -8 -48.5t-27 -47t-50.5 -47.5t-77.5 -50l198 -229q26 42 40 92t16 102q0 9 6.5 13.5t14.5 3.5q20 -2 20 -19q-2 -60 -19.5 -117.5t-50.5 -105.5l82 -93q7 -8 6 -15.5t-8 -12.5q-8 -6 -15.5 -5t-12.5 7
l-76 87q-42 -47 -100.5 -74.5t-136.5 -27.5q-44 0 -84.5 12t-71.5 34t-49.5 53.5t-18.5 70.5v13q0 34 8.5 61t30.5 51.5t60 50.5t97 58l-20 24q-15 18 -30.5 36.5t-28 38.5t-20 41.5t-7.5 44.5v10q0 29 12 53.5t34 42.5t52.5 28t68.5 10zM397 33q69 0 119.5 25t85.5 67
l-211 242q-58 -32 -93 -56.5t-53.5 -46.5t-24.5 -43.5t-6 -46.5v-9q0 -29 14 -53t39 -41.5t58.5 -27.5t71.5 -10zM301 584q0 -38 23 -71.5t61 -76.5l16 -19q41 23 69 43.5t45.5 40.5t25.5 40.5t8 42.5v5q0 41 -32 69t-92 28q-57 0 -90.5 -27t-33.5 -70v-5z" />
    <glyph glyph-name="cid270" unicode="&#xff07;" 
d="M455 729q11 0 19 -5.5t7 -16.5l-8 -205q0 -17 -18 -17t-18 17l-8 205q-1 11 7 16.5t19 5.5z" />
    <glyph glyph-name="cid271" unicode="&#xff08;" 
d="M848 796q14 -9 5 -23q-63 -93 -93 -198.5t-30 -222.5v-28q0 -117 30 -222.5t93 -198.5q9 -14 -5 -23q-13 -8 -24 4q-72 87 -107.5 202.5t-35.5 242.5v18q0 127 35.5 242.5t107.5 202.5q11 12 24 4z" />
    <glyph glyph-name="cid272" unicode="&#xff09;" 
d="M62 796q13 8 24 -4q72 -87 107.5 -202.5t35.5 -242.5v-18q0 -127 -35.5 -242.5t-107.5 -202.5q-11 -12 -24 -4q-14 9 -5 23q63 93 93 198.5t30 222.5v28q0 117 -30 222.5t-93 198.5q-9 14 5 23z" />
    <glyph glyph-name="cid273" unicode="&#xff0a;" 
d="M454 742q11 0 17.5 -5.5t5.5 -14.5l-8 -152l129 81q7 5 14.5 2.5t12.5 -11.5q5 -8 3 -16t-10 -12l-137 -71l137 -70q8 -4 10 -12t-3 -16q-5 -9 -12.5 -11.5t-14.5 2.5l-128 80l7 -150q1 -9 -5.5 -14.5t-17.5 -5.5t-17.5 5.5t-5.5 14.5l7 150l-127 -80q-7 -5 -14.5 -2.5
t-12.5 11.5q-10 19 7 28l136 70l-136 71q-17 9 -7 28q5 9 12.5 11.5t14.5 -2.5l127 -80l-7 151q-1 9 5.5 14.5t17.5 5.5z" />
    <glyph glyph-name="cid274" unicode="&#xff0b;" 
d="M455 608q9 0 15.5 -4t6.5 -14v-209h204q8 0 12 -6t4 -15q0 -8 -4 -14t-12 -6h-204v-224q0 -10 -6.5 -14t-15.5 -4t-16 4t-7 14v224h-204q-8 0 -12 6t-4 14q0 9 4 15t12 6h204v209q0 10 7 14t16 4z" />
    <glyph glyph-name="cid275" unicode="&#xff0c;" 
d="M476 74q32 -3 23 -38l-48 -175q-6 -21 -26 -18q-11 2 -14 8t-1 17l28 178q2 17 12.5 23.5t25.5 4.5z" />
    <glyph glyph-name="cid276" unicode="&#xff0d;" 
d="M590 382q17 0 17 -22q0 -9 -4 -15t-13 -6h-270q-9 0 -13 6t-4 15q0 22 17 22h270z" />
    <glyph glyph-name="cid277" unicode="&#xff0e;" 
d="M455 74q20 0 33 -13t13 -32t-13 -32t-33 -13t-33 13t-13 32t13 32t33 13z" />
    <glyph glyph-name="cid278" unicode="&#xff0f;" 
d="M607 798q18 -7 13 -24l-290 -885q-3 -9 -11 -11.5t-16 0.5q-18 7 -13 24l290 885q3 9 11 11.5t16 -0.5z" />
    <glyph glyph-name="cid279" unicode="&#xff10;" 
d="M455 726q128 0 182 -84.5t54 -251.5v-61q0 -167 -54 -251.5t-182 -84.5t-182 84.5t-54 251.5v61q0 167 54 251.5t182 84.5zM455 684q-54 0 -90.5 -18.5t-59 -55.5t-32 -93.5t-9.5 -132.5v-49q0 -76 9.5 -132.5t32 -93.5t59 -55.5t90.5 -18.5t90.5 18.5t59 55.5t32 93.5
t9.5 132.5v49q0 76 -9.5 132.5t-32 93.5t-59 55.5t-90.5 18.5z" />
    <glyph glyph-name="cid280" unicode="&#xff11;" 
d="M564 718q25 0 25 -20v-679q0 -10 -7 -14t-17 -4q-8 0 -15 4t-7 14v642l-191 -125q-8 -5 -15 -2t-12 11q-4 7 -4 14.5t8 12.5l199 131q9 6 18.5 10.5t17.5 4.5z" />
    <glyph glyph-name="cid281" unicode="&#xff12;" 
d="M447 726q48 0 85.5 -13t63.5 -36t39.5 -54.5t13.5 -69.5v-8q0 -27 -5 -50t-15.5 -45.5t-27.5 -46t-42 -51.5l-268 -306h371q9 0 13 -6t4 -15t-4 -15t-13 -6h-393q-22 0 -30 6t-8 18q0 7 4 15t20 26l267 304q24 28 40 50t25.5 41.5t13 38.5t3.5 40v6q0 63 -39.5 99
t-115.5 36q-61 0 -102 -27.5t-71 -76.5q-5 -8 -13 -9.5t-16 3.5q-18 12 -8 29q31 52 81.5 87.5t126.5 35.5z" />
    <glyph glyph-name="cid282" unicode="&#xff13;" 
d="M446 726q48 0 86.5 -13t65.5 -36.5t42 -57t15 -73.5v-5q0 -21 -6 -44.5t-21 -46t-40 -41.5t-64 -32q76 -13 117.5 -58t41.5 -109v-10q0 -40 -13.5 -77t-41.5 -66t-71.5 -46.5t-104.5 -17.5t-117.5 19.5t-97.5 49.5q-18 13 -6 32q13 19 31 6q40 -29 88.5 -47t102.5 -18
q47 0 82 14.5t58 38t34 52.5t11 59v8q0 47 -19.5 76t-48 44.5t-60 21t-56.5 5.5h-66q-9 0 -13 6t-4 15t4 15t13 6h64q24 0 51.5 8t51.5 25.5t39.5 45.5t15.5 69v3q0 60 -42.5 98.5t-120.5 38.5q-54 0 -93 -22t-67 -60q-12 -17 -29 -4q-18 13 -6 30q26 39 76 68.5t118 29.5z
" />
    <glyph glyph-name="cid283" unicode="&#xff14;" 
d="M569 713q8 -5 10.5 -13t-4.5 -18l-328 -471h312v220q0 10 7 14t15 4q10 0 17 -4t7 -14v-220h97q9 0 13 -6t4 -15t-4 -15t-13 -6h-97v-150q0 -10 -7 -14t-17 -4q-8 0 -15 4t-7 14v150h-331q-22 0 -30 6t-8 18q0 7 3.5 14t17.5 27l329 475q12 16 29 4z" />
    <glyph glyph-name="cid284" unicode="&#xff15;" 
d="M628 715q9 0 13 -6t4 -15t-4 -15t-13 -6h-303l-20 -299q26 26 69 44.5t94 18.5q103 0 161 -57.5t58 -158.5v-12q0 -38 -12 -76.5t-40 -69.5t-74 -50.5t-113 -19.5q-61 0 -117.5 19t-97.5 48q-18 13 -6 32q12 18 31 6q40 -28 88.5 -45.5t101.5 -17.5q54 0 90.5 16t59.5 41
t33 56.5t10 61.5v8q0 93 -46.5 135t-131.5 42q-48 0 -83 -16t-62 -41q-8 -8 -15 -12t-18 -4q-10 0 -18 5.5t-7 16.5l19 314q2 32 14 44.5t45 12.5h290z" />
    <glyph glyph-name="cid285" unicode="&#xff16;" 
d="M461 414q-42 0 -76.5 -14t-59 -37.5t-38 -55t-13.5 -67.5v-3q0 -45 14.5 -82.5t39 -64t58.5 -41t73 -14.5q38 0 71.5 11.5t58 35t38.5 58t14 79.5v8q0 90 -46 138.5t-134 48.5zM484 726q50 0 92.5 -12t71.5 -29q17 -10 7 -29q-9 -17 -28 -7q-29 16 -62.5 25.5t-77.5 9.5
q-60 0 -100.5 -25.5t-66 -71.5t-38.5 -110t-17 -140q12 28 32 49.5t46.5 36.5t57 23t63.5 8q50 0 91 -15t70.5 -43.5t45.5 -69t16 -91.5v-17q0 -55 -18 -97t-49 -70.5t-72.5 -43t-88.5 -14.5q-46 0 -89 16.5t-76 52.5t-52.5 92.5t-19.5 136.5v13q0 112 17.5 192t51 131
t82.5 75t111 24z" />
    <glyph glyph-name="cid286" unicode="&#xff17;" 
d="M655 715q22 0 30 -6t8 -18q0 -13 -17 -50l-286 -628q-5 -9 -13.5 -11t-16.5 2q-8 3 -12 10t0 16l294 643h-408q-9 0 -13 6t-4 15t4 15t13 6h421z" />
    <glyph glyph-name="cid287" unicode="&#xff18;" 
d="M455 684q-40 0 -70.5 -11t-51.5 -30t-31.5 -44.5t-10.5 -54.5v-8q0 -31 11.5 -58t32.5 -47t51.5 -31.5t69.5 -11.5q38 0 68.5 11.5t51.5 31.5t32 47t11 58v8q0 29 -11 54.5t-32 44.5t-51.5 30t-69.5 11zM455 347q-40 0 -74 -11t-58.5 -31t-38.5 -49.5t-14 -65.5v-8
q0 -30 12.5 -56.5t36 -46.5t58 -32t78.5 -12q45 0 79.5 12t58 32t35.5 46.5t12 56.5v8q0 35 -13.5 64t-38 49.5t-58.5 32t-75 11.5zM455 726q44 0 82 -13t65.5 -36.5t43 -55.5t15.5 -71v-13q0 -65 -35 -107t-88 -63q72 -19 109 -65.5t37 -106.5v-12q0 -43 -17 -78t-47.5 -60
t-72.5 -38.5t-92 -13.5t-92 13.5t-72.5 38.5t-47.5 60t-17 78v12q0 60 37 107t107 65q-52 23 -86.5 64t-34.5 106v13q0 39 15.5 71t43 55.5t65.5 36.5t82 13z" />
    <glyph glyph-name="cid288" unicode="&#xff19;" 
d="M450 726q48 0 91 -16.5t75.5 -52t51.5 -91.5t19 -136v-15q0 -120 -17.5 -201t-51 -130t-82 -70t-111.5 -21q-49 0 -90.5 11.5t-72.5 30.5q-18 12 -7 31t29 8q29 -18 63.5 -28.5t78.5 -10.5q54 0 94 19.5t66.5 61t40.5 106.5t17 157q-12 -28 -32 -49.5t-46.5 -36.5
t-57 -23t-63.5 -8q-50 0 -91.5 15t-70.5 43.5t-45 69t-16 91.5v20q0 55 18 97t49 70.5t72.5 43t88.5 14.5zM450 684q-38 0 -71.5 -11.5t-58 -35t-38.5 -58t-14 -79.5v-11q0 -90 46 -138.5t134 -48.5q42 0 76.5 14t59 37.5t38 55.5t13.5 68v4q0 46 -13.5 84t-38.5 64
t-59 40.5t-74 14.5z" />
    <glyph glyph-name="cid289" unicode="&#xff1a;" 
d="M455 192q20 0 33 -13t13 -32t-13 -32t-33 -13t-33 13t-13 32t13 32t33 13zM455 570q20 0 33 -13t13 -32t-13 -32t-33 -13t-33 13t-13 32t13 32t33 13z" />
    <glyph glyph-name="cid290" unicode="&#xff1b;" 
d="M471 192q32 -3 23 -38l-48 -175q-6 -21 -26 -18q-11 2 -14 8t-1 17l28 178q2 17 12.5 23.5t25.5 4.5zM459 570q20 0 33 -13t13 -32t-13 -32t-33 -13t-33 13t-13 32t13 32t33 13z" />
    <glyph glyph-name="cid291" unicode="&#xff1c;" 
d="M660 618q18 10 28 -8q10 -20 -6 -29l-418 -220v-1l418 -220q16 -9 6 -29q-10 -18 -28 -8l-421 227q-15 8 -18.5 14t-3.5 17q0 10 3.5 16t18.5 14l421 227v0z" />
    <glyph glyph-name="cid292" unicode="&#xff1d;" 
d="M662 486q9 0 13 -6t4 -15t-4 -15t-13 -6h-414q-9 0 -13 6t-4 15t4 15t13 6h414zM662 276q9 0 13 -6t4 -15t-4 -15t-13 -6h-414q-9 0 -13 6t-4 15t4 15t13 6h414z" />
    <glyph glyph-name="cid293" unicode="&#xff1e;" 
d="M670 391q15 -8 18.5 -14t3.5 -16q0 -11 -3.5 -17t-18.5 -14l-421 -227q-18 -10 -28 8q-10 20 6 29l418 220v1l-418 220q-16 9 -6 29q10 18 28 8z" />
    <glyph glyph-name="cid294" unicode="&#xff1f;" 
d="M452 726q94 0 148.5 -48t54.5 -130v-10q0 -52 -26.5 -90.5t-69.5 -76.5q-35 -32 -55.5 -54.5t-31 -41t-13.5 -35.5t-3 -37q0 -10 -7.5 -14t-15.5 -4t-15.5 4t-7.5 14q0 25 3.5 45t14.5 40.5t31 44t54 53.5q50 46 73 79.5t23 72.5v10q0 63 -42.5 99.5t-111.5 36.5
q-56 0 -94 -19.5t-68 -49.5q-7 -7 -15.5 -7t-15.5 7q-15 15 0 30q14 15 34 30t44.5 26t53 18t58.5 7zM433 74q20 0 33 -13t13 -32t-13 -32t-33 -13t-33 13t-13 32t13 32t33 13z" />
    <glyph glyph-name="cid295" unicode="&#xff20;" 
d="M444 489q-67 0 -103.5 -41t-36.5 -122v-40q0 -79 31.5 -122t108.5 -43q68 0 105 41t37 102v116q0 20 -10.5 39.5t-29.5 35t-45 25t-57 9.5zM446 753q109 0 192 -31t138.5 -87t84 -133.5t28.5 -170.5v-4q0 -41 -7.5 -84.5t-27 -80.5t-52.5 -60.5t-85 -23.5q-40 0 -74.5 21
t-48.5 66h-1q-11 -24 -30 -40.5t-41 -26t-44.5 -14t-40.5 -4.5q-46 0 -79.5 15t-55 41.5t-32 63.5t-10.5 81v50q0 49 13.5 86.5t37.5 62.5t57 37.5t72 12.5q51 0 90 -19.5t55 -49.5v46q0 10 7 14t16 4q8 0 15 -4t7 -14v-305q0 -21 7.5 -36.5t20 -26t28 -15.5t31.5 -5
q62 0 95.5 53t33.5 152v4q0 86 -24.5 156.5t-74 121t-124.5 78.5t-177 28q-86 0 -156.5 -28t-120.5 -79.5t-77.5 -125t-27.5 -163.5v-7q0 -93 26 -168.5t76.5 -129.5t125.5 -83.5t173 -29.5q81 0 150 15.5t127 43.5q8 4 15.5 2t12.5 -10t3 -16.5t-10 -12.5
q-60 -29 -133.5 -46t-161.5 -17q-102 0 -185 31t-141 89t-89.5 142t-31.5 189v9q0 94 29 174t84 138.5t134 91t178 32.5z" />
    <glyph glyph-name="cid296" unicode="&#xff21;" 
d="M456 718q20 0 28 -18l259 -670q4 -10 0 -17t-13 -10q-22 -8 -30 11l-83 218h-325l-84 -218q-8 -19 -30 -11q-20 7 -12 27l262 670q7 18 28 18zM456 667q-12 -39 -27 -80t-33 -88l-88 -227h294l-85 227q-17 44 -33 87t-28 81z" />
    <glyph glyph-name="cid297" unicode="&#xff22;" 
d="M442 715q114 0 167 -43t53 -132v-18q0 -24 -6.5 -46.5t-20.5 -41.5t-36.5 -33.5t-54.5 -22.5q72 -10 111.5 -49t39.5 -114v-22q0 -89 -51.5 -139t-168.5 -50h-201q-33 0 -46 12.5t-13 44.5v597q0 32 13 44.5t46 12.5h168zM260 45h219q170 0 170 148v19q0 70 -45 107
t-152 37h-192v-311zM260 397h191q75 0 120.5 30.5t45.5 97.5v15q0 63 -38.5 98.5t-132.5 35.5h-186v-277z" />
    <glyph glyph-name="cid298" unicode="&#xff23;" 
d="M474 726q66 0 116 -14.5t88 -38.5q17 -11 6 -30q-11 -18 -28 -7q-19 12 -38 20.5t-41 14.5t-47.5 9t-56.5 3q-119 0 -175 -77.5t-56 -221.5v-49q0 -143 56.5 -220.5t176.5 -77.5q66 0 115 16.5t87 47.5q7 5 15.5 4t14.5 -9q15 -20 -3 -33q-40 -32 -95.5 -51t-133.5 -19
q-143 0 -211 88.5t-68 247.5v61q0 160 68.5 248t209.5 88z" />
    <glyph glyph-name="cid299" unicode="&#xff24;" 
d="M418 715q147 0 219.5 -82t72.5 -227v-93q0 -72 -20 -129.5t-57.5 -97.5t-91.5 -61t-123 -21h-159q-33 0 -46 12.5t-13 44.5v597q0 32 13 44.5t46 12.5h159zM246 46h169q118 0 183.5 70.5t65.5 196.5v88q0 64 -14.5 114.5t-44.5 85.5t-77.5 53.5t-113.5 18.5h-168v-627z
" />
    <glyph glyph-name="cid300" unicode="&#xff25;" 
d="M647 715q9 0 13 -6t4 -15t-4 -15t-13 -6h-362v-283h342q8 0 12 -6t4 -14q0 -9 -4 -15t-12 -6h-342v-303h369q9 0 13 -6t4 -15t-4 -15t-13 -6h-356q-33 0 -46 12.5t-13 44.5v597q0 32 13 44.5t46 12.5h349z" />
    <glyph glyph-name="cid301" unicode="&#xff26;" 
d="M645 715q9 0 13 -6t4 -15t-4 -15t-13 -6h-352v-294h332q8 0 12 -6t4 -14q0 -9 -4 -15t-12 -6h-332v-319q0 -10 -7 -14t-17 -4q-8 0 -15 4t-7 14v639q0 32 13 44.5t46 12.5h339z" />
    <glyph glyph-name="cid302" unicode="&#xff27;" 
d="M480 726q69 0 119 -14.5t88 -38.5q17 -11 6 -30q-11 -18 -28 -7q-38 23 -79.5 35t-106.5 12q-126 0 -183 -78t-57 -221v-49q0 -145 57.5 -222.5t183.5 -77.5q124 0 193 45v253h-181q-9 0 -13 6t-4 15t4 15t13 6h164q35 0 48 -12.5t13 -46.5v-219q0 -24 -7.5 -37.5
t-27.5 -24.5q-31 -17 -81 -29.5t-123 -12.5q-146 0 -215.5 88t-69.5 248v61q0 80 17 142.5t52 105.5t89.5 65.5t128.5 22.5z" />
    <glyph glyph-name="cid303" unicode="&#xff28;" 
d="M228 718q10 0 17 -4t7 -14v-302h405v302q0 10 7 14t15 4q10 0 17 -4t7 -14v-681q0 -10 -7 -14t-17 -4q-8 0 -15 4t-7 14v338h-405v-338q0 -10 -7 -14t-17 -4q-8 0 -15 4t-7 14v681q0 10 7 14t15 4z" />
    <glyph glyph-name="cid304" unicode="&#xff29;" 
d="M454 718q10 0 17 -4t7 -14v-681q0 -10 -7 -14t-17 -4q-8 0 -15 4t-7 14v681q0 10 7 14t15 4z" />
    <glyph glyph-name="cid305" unicode="&#xff2a;" 
d="M599 718q10 0 17 -4t7 -14v-517q0 -94 -45 -142t-133 -48q-44 0 -81.5 11t-66.5 31q-8 5 -9.5 14t3.5 18q5 8 13 10.5t17 -3.5q26 -17 55.5 -27.5t67.5 -10.5q133 0 133 152v512q0 10 7 14t15 4z" />
    <glyph glyph-name="cid306" unicode="&#xff2b;" 
d="M232 718q10 0 17 -4t7 -14v-374l379 385q7 8 16.5 7.5t15.5 -6.5t7.5 -14.5t-6.5 -16.5l-267 -268l292 -377q13 -18 -5 -31q-17 -13 -32 7l-288 370l-112 -113v-250q0 -10 -7 -14t-17 -4q-8 0 -15 4t-7 14v681q0 10 7 14t15 4z" />
    <glyph glyph-name="cid307" unicode="&#xff2c;" 
d="M266 718q10 0 17 -4t7 -14v-654h358q9 0 13 -6t4 -15t-4 -15t-13 -6h-345q-33 0 -46 12.5t-13 44.5v639q0 10 7 14t15 4z" />
    <glyph glyph-name="cid308" unicode="&#xff2d;" 
d="M167 716q11 0 17.5 -5.5t14.5 -19.5l258 -519l254 519q7 14 14 19.5t18 5.5h2q31 0 31 -47v-650q0 -10 -7 -14t-15 -4q-9 0 -15.5 4t-6.5 14v626q-14 -31 -26 -57.5t-27 -57.5l-196 -394q-9 -17 -27 -17q-19 0 -27 17l-197 394q-15 31 -27.5 57.5t-26.5 57.5v-626
q0 -10 -6.5 -14t-15.5 -4q-8 0 -15 4t-7 14v650q0 47 31 47h2z" />
    <glyph glyph-name="cid309" unicode="&#xff2e;" 
d="M679 718q9 0 16 -4t7 -14v-644q0 -29 -10.5 -41t-28.5 -12q-12 0 -20 5.5t-18 21.5l-345 577q-7 11 -14.5 26.5t-13.5 30.5v-645q0 -10 -7 -14t-16 -4q-8 0 -15 4t-7 14v644q0 29 10.5 41t28.5 12q12 0 20 -5.5t18 -21.5l345 -577q7 -11 14.5 -26.5t13.5 -30.5v645
q0 10 7 14t15 4z" />
    <glyph glyph-name="cid310" unicode="&#xff2f;" 
d="M455 726q142 0 210.5 -88t68.5 -248v-61q0 -160 -68.5 -248t-210.5 -88t-210.5 88t-68.5 248v61q0 160 68.5 248t210.5 88zM455 684q-122 0 -177.5 -77t-55.5 -223v-49q0 -146 55.5 -223t177.5 -77t177.5 77t55.5 223v49q0 146 -55.5 223t-177.5 77z" />
    <glyph glyph-name="cid311" unicode="&#xff30;" 
d="M451 715q114 0 173 -52t59 -152v-17q0 -102 -60.5 -153.5t-174.5 -51.5h-176v-270q0 -10 -7 -14t-17 -4q-8 0 -15 4t-7 14v639q0 32 13 44.5t46 12.5h166zM272 331h171q54 0 91 11.5t60 33t33 51.5t10 68v14q0 37 -10 67t-32.5 51.5t-57.5 33.5t-86 12h-179v-342z" />
    <glyph glyph-name="cid312" unicode="&#xff31;" 
d="M450 726q142 0 210.5 -88t68.5 -248v-61q0 -166 -71 -251l74 -74q7 -7 6 -15.5t-7 -14.5t-14 -7t-15 6l-74 75q-32 -26 -75.5 -40.5t-102.5 -14.5q-142 0 -210.5 88t-68.5 248v61q0 160 68.5 248t210.5 88zM450 684q-122 0 -177.5 -77t-55.5 -223v-49q0 -146 55.5 -223
t177.5 -77q92 0 146 45l-99 99q-7 7 -6 15.5t7 14.5t14 7t15 -6l99 -99q57 75 57 224v49q0 146 -55.5 223t-177.5 77z" />
    <glyph glyph-name="cid313" unicode="&#xff32;" 
d="M442 715q54 0 98 -10.5t75 -33t47.5 -57.5t16.5 -85v-17q0 -73 -36 -119t-104 -64l145 -297q9 -19 -10 -28q-20 -10 -30 10l-151 306q-26 -3 -54 -3h-170v-298q0 -10 -7 -14t-17 -4q-8 0 -15 4t-7 14v639q0 32 13 44.5t46 12.5h160zM269 359h166q103 0 150.5 39.5
t47.5 114.5v14q0 146 -190 146h-174v-314z" />
    <glyph glyph-name="cid314" unicode="&#xff33;" 
d="M455 726q61 0 112 -13t86 -36q8 -5 10 -13.5t-3 -16.5q-12 -18 -29 -7q-33 20 -78.5 32t-96.5 12q-38 0 -71 -9.5t-57 -27t-37.5 -42.5t-13.5 -55v-16q0 -29 9 -51t29.5 -38.5t53.5 -29t81 -22.5q73 -16 120 -33t74.5 -39.5t38 -52t10.5 -70.5v-23q0 -39 -17 -72.5
t-48.5 -57.5t-75.5 -38t-98 -14q-68 0 -125.5 18.5t-101.5 48.5q-18 12 -7 31t29 8q45 -29 94.5 -46.5t112.5 -17.5q42 0 77 10.5t60.5 29.5t39.5 44.5t14 55.5v19q0 33 -8.5 56t-31.5 40.5t-64.5 31t-107.5 28.5q-51 11 -89 25.5t-63.5 35.5t-38.5 50t-13 69v22
q0 40 17 72.5t47 55t71 34.5t89 12z" />
    <glyph glyph-name="cid315" unicode="&#xff34;" 
d="M706 715q9 0 13 -6t4 -15t-4 -15t-13 -6h-228v-654q0 -10 -7 -14t-17 -4q-8 0 -15 4t-7 14v654h-228q-9 0 -13 6t-4 15t4 15t13 6h502z" />
    <glyph glyph-name="cid316" unicode="&#xff35;" 
d="M226 718q10 0 17 -4t7 -14v-414q0 -126 48 -187.5t157 -61.5t157 61.5t48 187.5v414q0 10 7 14t17 4q8 0 15 -4t7 -14v-414q0 -151 -61 -222t-190 -71t-190 71t-61 222v414q0 10 7 14t15 4z" />
    <glyph glyph-name="cid317" unicode="&#xff36;" 
d="M723 716q9 -3 13.5 -9.5t0.5 -17.5l-252 -669q-7 -19 -29 -19q-23 0 -30 19l-253 668q-4 11 0.5 18t13.5 10q23 8 30 -11l239 -644l238 644q8 19 29 11z" />
    <glyph glyph-name="cid318" unicode="&#xff37;" 
d="M455 718q25 0 32 -25l180 -628l177 636q6 21 28 16t16 -26l-189 -665q-8 -25 -33 -25t-33 25l-178 631l-178 -631q-8 -25 -33 -25t-33 25l-189 664q-6 22 17 27q22 5 28 -16l177 -637l179 629q7 25 32 25z" />
    <glyph glyph-name="cid319" unicode="&#xff38;" 
d="M692 714q8 -5 10.5 -12.5t-4.5 -17.5l-211 -312l225 -337q12 -18 -5 -30q-20 -12 -34 8l-216 329l-224 -329q-13 -19 -31 -8q-8 5 -10.5 12.5t4.5 17.5l233 337l-220 312q-12 18 5 30q20 12 34 -8l212 -303l201 303q13 19 31 8z" />
    <glyph glyph-name="cid320" unicode="&#xff39;" 
d="M699 715q8 -5 11.5 -12t-1.5 -15l-229 -389v-280q0 -10 -7 -14t-17 -4q-8 0 -15 4t-7 14v280l-233 386q-11 18 5 29q8 5 17 4t14 -10l221 -367l212 367q11 17 29 7z" />
    <glyph glyph-name="cid321" unicode="&#xff3a;" 
d="M659 715q22 0 30 -6t8 -18q0 -7 -3.5 -14t-17.5 -27l-428 -605h453q9 0 13 -6t4 -14q0 -9 -4 -15t-13 -6h-471q-22 0 -30 6t-8 18q0 7 3.5 14t17.5 27l428 605h-409q-9 0 -13 6t-4 15q0 8 4 14t13 6h427z" />
    <glyph glyph-name="cid322" unicode="&#xff3b;" 
d="M856 796q8 0 12 -6t4 -15q0 -8 -4 -14t-12 -6h-149v-834h149q8 0 12 -6t4 -15q0 -8 -4 -14t-12 -6h-134q-33 0 -46 12.5t-13 44.5v802q0 32 13 44.5t46 12.5h134z" />
    <glyph glyph-name="cid323" unicode="&#xffe6;" 
d="M453 718q23 0 29 -25l72 -282h175l73 290q6 21 25 16q22 -5 16 -27l-72 -279h102q15 0 15 -19t-15 -19h-111l-89 -347q-3 -12 -11.5 -18.5t-18.5 -6.5q-11 0 -19 6.5t-11 18.5l-88 347h-144l-88 -347q-3 -12 -11 -18.5t-19 -6.5q-10 0 -18.5 6.5t-11.5 18.5l-89 347h-108
q-15 0 -15 19t15 19h98l-71 279q-6 22 16 27q19 5 25 -16l72 -290h175l73 282q6 25 29 25zM263 64l79 309h-156zM643 64l77 309h-156zM390 411h125l-62 246z" />
    <glyph glyph-name="cid324" unicode="&#xff3d;" 
d="M188 796q33 0 46 -12.5t13 -44.5v-802q0 -32 -13 -44.5t-46 -12.5h-134q-8 0 -12 6t-4 15q0 8 4 14t12 6h149v834h-149q-8 0 -12 6t-4 15q0 8 4 14t12 6h134z" />
    <glyph glyph-name="cid325" unicode="&#xff3e;" 
d="M455 737q11 0 17 -4t14 -17l162 -278q5 -9 2.5 -15.5t-9.5 -10.5q-19 -10 -28 5l-158 274l-158 -274q-9 -15 -28 -5q-7 4 -9.5 10.5t2.5 15.5l163 278q8 13 13.5 17t16.5 4z" />
    <glyph glyph-name="cid326" unicode="&#xff3f;" 
d="M668 -46q17 0 17 -21q0 -19 -17 -19h-427q-16 0 -16 19q0 21 16 21h427z" />
    <glyph glyph-name="cid327" unicode="&#xff40;" 
d="M397 754q8 8 18 8t17 -9l86 -115q9 -13 -3 -23q-14 -10 -24 0l-97 106q-15 17 3 33z" />
    <glyph glyph-name="cid328" unicode="&#xff41;" 
d="M443 262q-75 0 -107 -30t-32 -75v-8q0 -51 34 -82t99 -31q29 0 53 5t46 16q29 15 49.5 42.5t20.5 63.5v99h-163zM466 528q90 0 137 -46.5t47 -124.5v-338q0 -10 -7 -14t-15 -4t-15 4t-7 14v61h-1q-8 -16 -23 -31.5t-33 -25.5q-22 -12 -49.5 -19.5t-65.5 -7.5
q-80 0 -127.5 40.5t-47.5 112.5v7q0 31 10.5 57.5t33 46t57 30.5t81.5 11h164v48q0 69 -34 103.5t-108 34.5q-40 0 -76.5 -12.5t-68.5 -33.5q-8 -5 -15.5 -2.5t-12.5 9.5t-4 14.5t9 13.5q29 21 74 36.5t97 15.5z" />
    <glyph glyph-name="cid329" unicode="&#xff42;" 
d="M266 743q9 0 16 -4t7 -14v-294q20 41 64.5 69t106.5 28q101 0 153.5 -60.5t52.5 -180.5v-50q0 -122 -57.5 -181.5t-155.5 -59.5q-51 0 -96.5 20t-67.5 58h-1v-55q0 -10 -7 -14t-15 -4t-15 4t-7 14v706q0 10 7 14t15 4zM456 487q-29 0 -59 -11t-54 -31.5t-39.5 -50.5
t-15.5 -69v-160q0 -26 12 -49t34 -40.5t53 -28t68 -10.5q75 0 120.5 48t45.5 157v40q0 106 -40.5 155.5t-124.5 49.5z" />
    <glyph glyph-name="cid330" unicode="&#xff43;" 
d="M469 528q50 0 89.5 -11.5t68.5 -29.5q8 -5 9.5 -13t-3.5 -16q-10 -18 -28 -7q-26 17 -60.5 26.5t-75.5 9.5q-76 0 -123 -49t-47 -156v-40q0 -107 47 -156t126 -49q48 0 84.5 11.5t65.5 31.5q9 6 16 4t12 -9q13 -17 -5 -30q-32 -22 -74 -35.5t-100 -13.5q-99 0 -158 60
t-59 181v50q0 60 15.5 105.5t43.5 75.5t68 45t88 15z" />
    <glyph glyph-name="cid331" unicode="&#xff44;" 
d="M455 487q-75 0 -120.5 -48t-45.5 -157v-40q0 -106 40.5 -155.5t124.5 -49.5q29 0 59 11t54 31.5t39.5 50.5t15.5 69v161q0 25 -12.5 48.5t-34.5 40.5t-52.5 27.5t-67.5 10.5zM644 743q8 0 15 -4t7 -14v-706q0 -10 -7 -14t-15 -4t-15 4t-7 14v74h-1q-20 -41 -64.5 -69
t-106.5 -28q-101 0 -153.5 60.5t-52.5 180.5v50q0 122 57.5 181.5t155.5 59.5q51 0 96 -20t68 -57v274q0 10 7 14t16 4z" />
    <glyph glyph-name="cid332" unicode="&#xff45;" 
d="M456 488q-76 0 -122.5 -50t-46.5 -146v-5h336v7q0 96 -45 145t-122 49zM456 528q100 0 156 -62t56 -174v-2q0 -41 -44 -41h-337v-7q0 -107 47.5 -156.5t129.5 -49.5q49 0 87.5 11.5t68.5 31.5q19 12 29 -5t-6 -29q-32 -22 -78 -35.5t-104 -13.5q-100 0 -159.5 60.5
t-59.5 180.5v50q0 120 59 180.5t155 60.5z" />
    <glyph glyph-name="cid333" unicode="&#xff46;" 
d="M532 746q37 0 63 -10q17 -6 12 -23q-5 -18 -22 -13q-13 4 -24.5 5.5t-26.5 1.5q-50 0 -71.5 -27.5t-21.5 -84.5v-78h138q8 0 11.5 -5t3.5 -13q0 -19 -15 -19h-138v-461q0 -10 -7 -14t-16 -4q-8 0 -15 4t-7 14v461h-80q-15 0 -15 19q0 8 3.5 13t11.5 5h80v80
q0 76 35 112.5t101 36.5z" />
    <glyph glyph-name="cid334" unicode="&#xff47;" 
d="M457 528q51 0 96.5 -20t67.5 -58h1v52q0 10 7 14t15 4t15 -4t7 -14v-482q0 -58 -15 -99t-41.5 -67.5t-63 -38.5t-79.5 -12q-54 0 -92.5 11.5t-71.5 33.5q-9 6 -10 14.5t4 16.5q12 17 29 6q29 -20 62.5 -31t75.5 -11q73 0 115 42t42 135v87h-1q-20 -42 -64 -69.5
t-106 -27.5q-101 0 -153.5 60t-52.5 177v44q0 120 57 178.5t156 58.5zM455 487q-75 0 -120.5 -47.5t-45.5 -153.5v-34q0 -103 40.5 -152t124.5 -49q29 0 59 11t54 31.5t39.5 50.5t15.5 69v146q0 25 -12 48.5t-34 41t-53 28t-68 10.5z" />
    <glyph glyph-name="cid335" unicode="&#xff48;" 
d="M274 743q9 0 16 -4t7 -14v-290h1q5 13 18.5 29t35 30.5t51 24t68.5 9.5q93 0 139.5 -49.5t46.5 -127.5v-332q0 -10 -7 -14t-16 -4q-8 0 -15 4t-7 14v319q0 72 -34 110.5t-114 38.5q-43 0 -74.5 -15t-52 -37t-30.5 -46.5t-10 -42.5v-327q0 -10 -7 -14t-16 -4q-8 0 -15 4
t-7 14v706q0 10 7 14t15 4z" />
    <glyph glyph-name="cid336" unicode="&#xff49;" 
d="M455 520q9 0 16 -4t7 -14v-483q0 -10 -7 -14t-16 -4q-8 0 -15 4t-7 14v483q0 10 7 14t15 4zM455 701q17 0 28.5 -11t11.5 -28t-11.5 -28t-28.5 -11t-28.5 11t-11.5 28t11.5 28t28.5 11z" />
    <glyph glyph-name="cid337" unicode="&#xff4a;" 
d="M528 701q17 0 28.5 -11t11.5 -28t-11.5 -28t-28.5 -11t-28.5 11t-11.5 28t11.5 28t28.5 11zM528 520q9 0 16 -4t7 -14v-545q0 -45 -8 -74t-24 -46t-39.5 -23.5t-54.5 -6.5q-42 0 -70 13q-18 9 -11 27q8 18 26 10q24 -11 54 -11q22 0 38 5t25.5 17.5t14 34t4.5 53.5v546
q0 10 7 14t15 4z" />
    <glyph glyph-name="cid338" unicode="&#xff4b;" 
d="M279 743q9 0 16 -4t7 -14v-473l282 262q8 7 16.5 6.5t13.5 -6.5q5 -5 6.5 -13.5t-7.5 -16.5l-180 -164l215 -285q7 -8 4.5 -16t-9.5 -13t-14.5 -4.5t-14.5 8.5l-212 281l-100 -91v-181q0 -10 -7 -14t-16 -4q-8 0 -15 4t-7 14v706q0 10 7 14t15 4z" />
    <glyph glyph-name="cid339" unicode="&#xff4c;" 
d="M454 743q9 0 16 -4t7 -14v-706q0 -10 -7 -14t-16 -4q-8 0 -15 4t-7 14v706q0 10 7 14t15 4z" />
    <glyph glyph-name="cid340" unicode="&#xff4d;" 
d="M304 528q70 0 108 -29.5t52 -73.5q20 42 63.5 72.5t110.5 30.5q48 0 81 -15t53 -39.5t28.5 -56.5t8.5 -66v-332q0 -10 -7 -14t-16 -4q-8 0 -15 4t-7 14v320q0 34 -6.5 61.5t-22 46.5t-41 29.5t-63.5 10.5q-41 0 -70.5 -15t-48 -36.5t-27 -46t-8.5 -42.5v-328
q0 -10 -7 -14t-16 -4q-8 0 -15 4t-7 14v319q0 34 -6.5 62t-22 47t-41.5 29.5t-65 10.5q-41 0 -69.5 -15t-47 -37t-27 -46t-8.5 -43v-327q0 -10 -7 -14t-16 -4q-8 0 -15 4t-7 14v483q0 10 7 14t15 4t15 -4t7 -14v-67q8 16 21.5 32.5t33 30t45.5 22t60 8.5z" />
    <glyph glyph-name="cid341" unicode="&#xff4e;" 
d="M471 528q93 0 139.5 -49.5t46.5 -127.5v-332q0 -10 -7 -14t-16 -4q-8 0 -15 4t-7 14v319q0 72 -34 110.5t-114 38.5q-43 0 -74.5 -15t-52 -37t-30.5 -46.5t-10 -42.5v-327q0 -10 -7 -14t-16 -4q-8 0 -15 4t-7 14v483q0 10 7 14t15 4t15 -4t7 -14v-68h1q5 13 18.5 29.5
t35 30.5t51.5 24t69 10z" />
    <glyph glyph-name="cid342" unicode="&#xff4f;" 
d="M455 528q102 0 162.5 -61t60.5 -180v-50q0 -119 -60.5 -180t-162.5 -61t-162.5 61t-60.5 180v50q0 119 60.5 180t162.5 61zM455 487q-82 0 -130 -49.5t-48 -155.5v-40q0 -106 48 -155.5t130 -49.5t130 49.5t48 155.5v40q0 106 -48 155.5t-130 49.5z" />
    <glyph glyph-name="cid343" unicode="&#xff50;" 
d="M460 528q101 0 153.5 -60.5t52.5 -180.5v-50q0 -122 -57.5 -181.5t-155.5 -59.5q-51 0 -96.5 20t-67.5 58v-249q0 -10 -7 -14t-16 -4q-8 0 -15 4t-7 14v677q0 10 7 14t15 4t15 -4t7 -14v-73q20 42 64.5 70.5t107.5 28.5zM456 487q-29 0 -59 -11t-54 -31.5t-39.5 -50.5
t-15.5 -69v-160q0 -26 12 -49t34 -40.5t53 -28t68 -10.5q75 0 120.5 48t45.5 157v40q0 106 -40.5 155.5t-124.5 49.5z" />
    <glyph glyph-name="cid344" unicode="&#xff51;" 
d="M457 528q51 0 96.5 -20t67.5 -58h1v52q0 10 7 14t15 4t15 -4t7 -14v-677q0 -10 -7 -14t-15 -4q-9 0 -16 4t-7 14v268h-1q-20 -42 -64 -69.5t-106 -27.5q-101 0 -153.5 60.5t-52.5 180.5v50q0 122 57.5 181.5t155.5 59.5zM455 487q-75 0 -120.5 -48t-45.5 -157v-40
q0 -106 40.5 -155.5t124.5 -49.5q29 0 59 11t54 31.5t39.5 50.5t15.5 69v161q0 25 -12.5 48.5t-34.5 40.5t-52.5 27.5t-67.5 10.5z" />
    <glyph glyph-name="cid345" unicode="&#xff52;" 
d="M517 528q34 0 61 -9q17 -6 11 -27q-7 -20 -25 -15q-11 3 -24 5t-27 2q-37 0 -65 -15t-47 -41.5t-28.5 -63t-9.5 -79.5v-266q0 -10 -7 -14t-16 -4q-8 0 -15 4t-7 14v483q0 10 7 14t15 4t15 -4t7 -14v-88h1q5 19 17.5 39t32 36.5t45.5 27.5t59 11z" />
    <glyph glyph-name="cid346" unicode="&#xff53;" 
d="M457 528q51 0 92.5 -12t70.5 -30q8 -5 9.5 -12.5t-3.5 -15.5q-10 -17 -27 -8q-29 17 -64 27.5t-82 10.5q-71 0 -105 -26.5t-34 -66.5v-3q0 -20 7.5 -35.5t24.5 -27.5t46 -21t71 -17q53 -10 89 -21.5t57.5 -28.5t30.5 -41t9 -57v-8q0 -30 -13.5 -55t-38.5 -44t-61 -29.5
t-81 -10.5q-57 0 -106 16.5t-78 36.5q-16 12 -6 29q12 18 30 6q28 -19 70 -33.5t91 -14.5q72 0 111 28.5t39 72.5v3q0 24 -6 41t-23 29.5t-49.5 22t-84.5 19.5q-85 16 -128.5 47t-43.5 89v8q0 27 11 51t34 42t58 28.5t83 10.5z" />
    <glyph glyph-name="cid347" unicode="&#xff54;" 
d="M417 658q9 0 16 -4t7 -14v-123h138q8 0 11.5 -5t3.5 -13q0 -19 -15 -19h-138v-327q0 -35 4 -57.5t14 -36t26.5 -19t41.5 -5.5q30 0 54 11q18 8 26 -10q7 -18 -11 -27q-28 -13 -70 -13q-32 0 -56 6.5t-40.5 23t-25 45t-8.5 71.5v338h-80q-15 0 -15 19q0 8 3.5 13t11.5 5
h80v123q0 10 7 14t15 4z" />
    <glyph glyph-name="cid348" unicode="&#xff55;" 
d="M276 520q8 0 15 -4t7 -14v-316q0 -73 32.5 -111t107.5 -38q45 0 77.5 15.5t54 37t31.5 44.5t10 38v330q0 10 7 14t16 4q8 0 15 -4t7 -14v-483q0 -10 -7 -14t-15 -4t-15 4t-7 14v69h-1q-6 -13 -20.5 -29t-36.5 -30t-51 -23.5t-63 -9.5q-96 0 -141.5 48.5t-45.5 129.5v328
q0 10 7 14t16 4z" />
    <glyph glyph-name="cid349" unicode="&#xff56;" 
d="M251 518q8 3 16 1t12 -11l178 -449h1l174 449q4 9 11.5 11t15.5 -1t13 -9.5t0 -17.5l-188 -471q-8 -19 -28 -19q-19 0 -26 18l-192 472q-5 11 0 17.5t13 9.5z" />
    <glyph glyph-name="cid350" unicode="&#xff57;" 
d="M455 520q23 0 29 -21l148 -442h1l124 447q5 20 27 15q21 -5 15 -26l-138 -469q-6 -23 -29 -23q-12 0 -18.5 6t-10.5 17l-146 440h-2l-143 -441q-8 -22 -30 -22q-24 0 -30 22l-141 470q-6 21 15 26q23 5 28 -15l128 -447h1l143 442q6 21 29 21z" />
    <glyph glyph-name="cid351" unicode="&#xff58;" 
d="M271 516q8 5 16.5 4t15.5 -11l154 -215l152 215q13 19 32 6q7 -5 9 -12t-5 -17l-159 -218l172 -233q12 -18 -5 -30q-8 -5 -17 -4t-16 11l-165 227l-167 -227q-13 -19 -32 -6q-7 5 -9 12t5 17l174 230l-161 221q-7 10 -4.5 17.5t10.5 12.5z" />
    <glyph glyph-name="cid352" unicode="&#xff59;" 
d="M656 518q8 -3 12.5 -9.5t0.5 -16.5l-265 -675q-3 -8 -11.5 -10.5t-16.5 0.5t-12.5 9.5t-0.5 16.5l72 177l-194 482q-4 10 0.5 16.5t12.5 9.5t16.5 1t11.5 -10l175 -447h1l171 446q3 8 11 10.5t16 -0.5z" />
    <glyph glyph-name="cid353" unicode="&#xff5a;" 
d="M613 517q19 0 26 -4.5t7 -15.5q0 -6 -3 -12.5t-17 -23.5l-322 -420h342q8 0 11.5 -5t3.5 -13q0 -19 -15 -19h-364q-19 0 -26 4.5t-7 15.5q0 6 3 12.5t17 23.5l322 420h-309q-15 0 -15 19q0 8 3.5 13t11.5 5h331z" />
    <glyph glyph-name="cid354" unicode="&#xff5b;" 
d="M856 796q8 0 12 -6t4 -15q0 -8 -4 -14t-12 -6h-66q-48 0 -68 -19t-20 -60v-209q0 -40 -19.5 -72.5t-71.5 -44.5q52 -12 71.5 -44.5t19.5 -72.5v-233q0 -41 20 -60t68 -19h66q8 0 12 -6t4 -14q0 -9 -4 -15t-12 -6h-66q-67 0 -99.5 29.5t-32.5 95.5v236q0 42 -25 62t-72 23
q-20 1 -20 24t20 24q47 3 72 23t25 62v212q0 66 32.5 95.5t99.5 29.5h66z" />
    <glyph glyph-name="cid355" unicode="&#xff5c;" 
d="M455 799q8 0 14.5 -4t6.5 -14v-886q0 -10 -6.5 -14t-14.5 -4t-14.5 4t-6.5 14v886q0 10 6.5 14t14.5 4z" />
    <glyph glyph-name="cid356" unicode="&#xff5d;" 
d="M120 796q67 0 99.5 -29.5t32.5 -95.5v-212q0 -42 25 -62t72 -23q20 -1 20 -24t-20 -24q-47 -3 -72 -23t-25 -62v-236q0 -66 -32.5 -95.5t-99.5 -29.5h-66q-8 0 -12 6t-4 15q0 8 4 14t12 6h66q48 0 68 19t20 60v233q0 20 4.5 38.5t15 34t28 27t43.5 17.5q-26 6 -43.5 17.5
t-28 27t-15 34t-4.5 38.5v209q0 41 -20 60t-68 19h-66q-8 0 -12 6t-4 14q0 9 4 15t12 6h66z" />
    <glyph glyph-name="cid357" unicode="&#x203e;" 
d="M894 782q8 0 12 -5.5t4 -13.5t-4 -14t-12 -6h-878q-8 0 -12 6t-4 14t4 13.5t12 5.5h878z" />
    <glyph glyph-name="cid357" unicode="&#xffe3;" 
d="M894 782q8 0 12 -5.5t4 -13.5t-4 -14t-12 -6h-878q-8 0 -12 6t-4 14t4 13.5t12 5.5h878z" />
    <glyph glyph-name="cid358" unicode="&#x3131;" 
d="M658 555q35 0 48 -12.5t13 -46.5v-406q0 -10 -7 -14t-15 -4q-10 0 -17 4t-7 14v407q0 16 -17 16h-493q-8 0 -12 6t-4 15t4 15t12 6h495z" />
    <glyph glyph-name="cid359" unicode="&#x3132;" 
d="M335 555q35 0 48 -12.5t13 -46.5v-406q0 -10 -7 -14t-16 -4q-8 0 -15 4t-7 14v407q0 16 -17 16h-214q-8 0 -12 6t-4 15t4 15t12 6h215zM710 555q35 0 48 -12.5t13 -46.5v-406q0 -10 -7 -14t-16 -4q-8 0 -15 4t-7 14v407q0 16 -17 16h-226q-8 0 -12 6t-4 15t4 15t12 6h227
z" />
    <glyph glyph-name="cid360" unicode="&#x3133;" 
d="M335 555q35 0 48 -12.5t13 -46.5v-406q0 -10 -7 -14t-16 -4q-8 0 -15 4t-7 14v407q0 16 -17 16h-214q-8 0 -12 6t-4 15t4 15t12 6h215zM656 564q8 0 15 -4t7 -14v-150q0 -28 3.5 -49.5t10 -40t17 -35.5t25.5 -35q26 -32 50 -60t51 -58q5 -6 6.5 -13t-5.5 -15
q-6 -7 -14 -7.5t-14 5.5q-23 25 -52.5 59.5t-52.5 63.5t-33 46.5t-13 32.5h-1q-3 -15 -13 -32.5t-33 -46.5t-52.5 -63.5t-52.5 -59.5q-6 -6 -14 -5.5t-14 7.5q-7 8 -5.5 15t6.5 13q27 30 51 58t50 60q15 18 25 35t17 35.5t10 40t3 49.5v150q0 10 6.5 14t15.5 4z" />
    <glyph glyph-name="cid361" unicode="&#x3134;" 
d="M213 573q9 0 16 -4t7 -15v-412q0 -16 17 -16h504q8 0 12 -6t4 -14q0 -9 -4 -15t-12 -6h-506q-35 0 -48 12.5t-13 46.5v410q0 11 7 15t16 4z" />
    <glyph glyph-name="cid362" unicode="&#x3135;" 
d="M186 563q8 0 15 -4t7 -14v-414q0 -16 17 -16q44 0 89.5 2t80.5 7q8 1 12 -4.5t5 -13.5q2 -19 -13 -22q-28 -5 -74 -7t-100 -2q-35 0 -48 12.5t-13 46.5v411q0 10 7 14t15 4zM775 558q7 0 10.5 -5t3.5 -13q0 -19 -14 -19h-141v-151q0 -25 3 -44.5t10 -37t18 -34.5t28 -37
q24 -29 47 -55t50 -57q7 -8 5 -15.5t-7 -12.5t-13 -5t-13 6q-25 27 -47.5 53.5t-45.5 55.5q-26 33 -38.5 52t-17.5 39h-1q-5 -20 -17.5 -39t-38.5 -52q-23 -29 -45.5 -55.5t-47.5 -53.5q-5 -6 -13 -6t-13 5t-7 12.5t5 15.5q27 31 50 57t47 55q16 20 27.5 37t18 34.5t9.5 37
t3 44.5v151h-141q-14 0 -14 19q0 8 3.5 13t10.5 5h326z" />
    <glyph glyph-name="cid363" unicode="&#x3136;" 
d="M177 565q8 0 15 -4t7 -14v-412q0 -16 17 -16q57 0 105 2t83 7q8 1 12 -4.5t5 -13.5q2 -19 -13 -22q-56 -9 -192 -9q-35 0 -48 12.5t-13 46.5v409q0 10 7 14t15 4zM613 365q78 0 118.5 -43.5t40.5 -109.5t-40.5 -109.5t-118.5 -43.5t-118.5 43.5t-40.5 109.5t40.5 109.5
t118.5 43.5zM613 587q9 0 16 -4t7 -14v-91h158q7 0 10.5 -6t3.5 -14t-3.5 -14t-10.5 -6h-366q-7 0 -10.5 6t-3.5 14t3.5 14t10.5 6h163v91q0 10 7 14t15 4zM613 329q-60 0 -89 -34t-29 -83t29 -83t89 -34t89 34t29 83t-29 83t-89 34z" />
    <glyph glyph-name="cid364" unicode="&#x3137;" 
d="M729 553q8 0 12 -6t4 -14q0 -9 -4 -15t-12 -6h-490q-17 0 -17 -16v-354q0 -16 17 -16h500q8 0 12 -6t4 -14q0 -9 -4 -15t-12 -6h-501q-35 0 -48 12.5t-13 46.5v350q0 34 13 46.5t48 12.5h491z" />
    <glyph glyph-name="cid365" unicode="&#x3138;" 
d="M758 553q8 0 12 -6t4 -14q0 -9 -4 -15t-12 -6h-200q-17 0 -17 -16v-355q0 -16 17 -16h210q8 0 12 -6t4 -14q0 -9 -4 -15t-12 -6h-211q-35 0 -48 12.5t-13 46.5v351q0 34 13 46.5t48 12.5h201zM412 553q8 0 12 -6t4 -14q0 -9 -4 -15t-12 -6h-181q-17 0 -17 -16v-355
q0 -16 17 -16h206q8 0 12 -6t4 -14q0 -9 -4 -15t-12 -6h-207q-35 0 -48 12.5t-13 46.5v351q0 34 13 46.5t48 12.5h182z" />
    <glyph glyph-name="cid366" unicode="&#x3139;" 
d="M680 567q35 0 48 -12.5t13 -46.5v-146q0 -34 -13 -46.5t-48 -12.5h-450q-17 0 -17 -16v-160q0 -16 17 -16h522q8 0 11.5 -6t3.5 -14t-3.5 -14t-11.5 -6h-522q-35 0 -48 12.5t-13 46.5v153q0 34 13 46.5t48 12.5h450q17 0 17 16v153q0 16 -17 16h-498q-8 0 -11.5 6
t-3.5 14t3.5 14t11.5 6h498z" />
    <glyph glyph-name="cid367" unicode="&#x313a;" 
d="M718 555q35 0 48 -12.5t13 -46.5v-401q0 -10 -7 -14t-16 -4q-8 0 -15 4t-7 14v402q0 16 -17 16h-211q-8 0 -12 6t-4 15t4 15t12 6h212zM363 555q35 0 48 -12.5t13 -46.5v-134q0 -34 -13 -46.5t-48 -12.5h-160q-17 0 -17 -16v-148q0 -16 17 -16h237q8 0 11.5 -6t3.5 -14
t-3.5 -14t-11.5 -6h-237q-35 0 -48 12.5t-13 46.5v141q0 34 13 46.5t48 12.5h160q17 0 17 16v141q0 16 -17 16h-208q-8 0 -11.5 6t-3.5 14t3.5 14t11.5 6h208z" />
    <glyph glyph-name="cid368" unicode="&#x313b;" 
d="M344 555q35 0 48 -12.5t13 -46.5v-136q0 -34 -13 -46.5t-48 -12.5h-149q-17 0 -17 -16v-145q0 -16 17 -16h226q8 0 11.5 -6t3.5 -14t-3.5 -14t-11.5 -6h-226q-35 0 -48 12.5t-13 46.5v138q0 34 13 46.5t48 12.5h149q17 0 17 16v143q0 16 -17 16h-197q-8 0 -11.5 6
t-3.5 14t3.5 14t11.5 6h197zM718 555q35 0 48 -12.5t13 -46.5v-353q0 -34 -13 -46.5t-48 -12.5h-172q-35 0 -48 12.5t-13 46.5v353q0 34 13 46.5t48 12.5h172zM545 516q-17 0 -17 -16v-361q0 -16 17 -16h174q17 0 17 16v361q0 16 -17 16h-174z" />
    <glyph glyph-name="cid369" unicode="&#x313c;" 
d="M344 555q35 0 48 -12.5t13 -46.5v-136q0 -34 -13 -46.5t-48 -12.5h-149q-17 0 -17 -16v-145q0 -16 17 -16h226q8 0 11.5 -6t3.5 -14t-3.5 -14t-11.5 -6h-226q-35 0 -48 12.5t-13 46.5v138q0 34 13 46.5t48 12.5h149q17 0 17 16v143q0 16 -17 16h-197q-8 0 -11.5 6
t-3.5 14t3.5 14t11.5 6h197zM510 562q8 0 15 -4t7 -13v-167h199v167q0 9 6.5 13t14.5 4t15 -4t7 -13v-402q0 -34 -13 -46.5t-48 -12.5h-163q-35 0 -48 12.5t-13 46.5v402q0 9 6.5 13t14.5 4zM532 139q0 -16 17 -16h165q17 0 17 16v200h-199v-200z" />
    <glyph glyph-name="cid370" unicode="&#x313d;" 
d="M348 555q35 0 48 -12.5t13 -46.5v-136q0 -34 -13 -46.5t-48 -12.5h-149q-17 0 -17 -16v-145q0 -16 17 -16h218q8 0 11.5 -6t3.5 -14t-3.5 -14t-11.5 -6h-218q-35 0 -48 12.5t-13 46.5v138q0 34 13 46.5t48 12.5h149q17 0 17 16v143q0 16 -17 16h-198q-8 0 -11.5 6
t-3.5 14t3.5 14t11.5 6h198zM639 564q8 0 15 -4t7 -14v-150q0 -28 3.5 -49.5t10 -40t17 -35.5t25.5 -35q26 -32 50 -60t51 -58q5 -6 6.5 -13t-5.5 -15q-6 -7 -14 -7.5t-14 5.5q-23 25 -52.5 59.5t-52.5 63.5t-33 46.5t-13 32.5h-1q-3 -15 -13 -32.5t-33 -46.5t-52.5 -63.5
t-52.5 -59.5q-6 -6 -14 -5.5t-14 7.5q-7 8 -5.5 15t6.5 13q27 30 51 58t50 60q15 18 25 35t17 35.5t10 40t3 49.5v150q0 10 6.5 14t15.5 4z" />
    <glyph glyph-name="cid371" unicode="&#x313e;" 
d="M763 557q8 0 11.5 -6t3.5 -14t-3.5 -14t-11.5 -6h-218q-17 0 -17 -16v-158h225q8 0 11.5 -6t3.5 -14t-3.5 -14t-11.5 -6h-225v-163q0 -16 17 -16h228q8 0 11.5 -6t3.5 -14t-3.5 -14t-11.5 -6h-228q-35 0 -48 12.5t-13 46.5v355q0 34 13 46.5t48 12.5h218zM344 555
q35 0 48 -12.5t13 -46.5v-136q0 -34 -13 -46.5t-48 -12.5h-149q-17 0 -17 -16v-145q0 -16 17 -16h226q8 0 11.5 -6t3.5 -14t-3.5 -14t-11.5 -6h-226q-35 0 -48 12.5t-13 46.5v138q0 34 13 46.5t48 12.5h149q17 0 17 16v143q0 16 -17 16h-197q-8 0 -11.5 6t-3.5 14t3.5 14
t11.5 6h197z" />
    <glyph glyph-name="cid372" unicode="&#x313f;" 
d="M336 555q35 0 48 -12.5t13 -46.5v-136q0 -34 -13 -46.5t-48 -12.5h-145q-17 0 -17 -16v-145q0 -16 17 -16h222q8 0 11.5 -6t3.5 -14t-3.5 -14t-11.5 -6h-222q-35 0 -48 12.5t-13 46.5v138q0 34 13 46.5t48 12.5h145q17 0 17 16v143q0 16 -17 16h-193q-8 0 -11.5 6
t-3.5 14t3.5 14t11.5 6h193zM771 554q8 0 11.5 -5.5t3.5 -13.5t-3.5 -14.5t-11.5 -6.5h-53v-390h59q8 0 11.5 -6t3.5 -14t-3.5 -14t-11.5 -6h-306q-8 0 -11.5 6t-3.5 14t3.5 14t11.5 6h59v390h-53q-8 0 -11.5 6.5t-3.5 14.5t3.5 13.5t11.5 5.5h294zM575 124h98v390h-98v-390
z" />
    <glyph glyph-name="cid373" unicode="&#x3140;" 
d="M325 555q35 0 48 -12.5t13 -46.5v-136q0 -34 -13 -46.5t-48 -12.5h-139q-17 0 -17 -16v-145q0 -16 17 -16h217q8 0 11.5 -6t3.5 -14t-3.5 -14t-11.5 -6h-217q-35 0 -48 12.5t-13 46.5v138q0 34 13 46.5t48 12.5h139q17 0 17 16v143q0 16 -17 16h-187q-8 0 -11.5 6
t-3.5 14t3.5 14t11.5 6h187zM625 365q78 0 118.5 -43.5t40.5 -109.5t-40.5 -109.5t-118.5 -43.5t-118.5 43.5t-40.5 109.5t40.5 109.5t118.5 43.5zM625 587q9 0 16 -4t7 -14v-91h158q7 0 10.5 -6t3.5 -14t-3.5 -14t-10.5 -6h-366q-7 0 -10.5 6t-3.5 14t3.5 14t10.5 6h163v91
q0 10 7 14t15 4zM625 329q-60 0 -89 -34t-29 -83t29 -83t89 -34t89 34t29 83t-29 83t-89 34z" />
    <glyph glyph-name="cid374" unicode="&#x3141;" 
d="M679 558q35 0 48 -12.5t13 -46.5v-359q0 -34 -13 -46.5t-48 -12.5h-448q-35 0 -48 12.5t-13 46.5v359q0 34 13 46.5t48 12.5h448zM232 517q-17 0 -17 -16v-363q0 -16 17 -16h446q17 0 17 16v363q0 16 -17 16h-446z" />
    <glyph glyph-name="cid375" unicode="&#x3142;" 
d="M192 574q9 0 16 -4t7 -14v-186h480v186q0 10 7 14t15 4q9 0 16 -4t7 -14v-416q0 -34 -13 -46.5t-48 -12.5h-448q-35 0 -48 12.5t-13 46.5v416q0 10 7 14t15 4zM215 138q0 -16 17 -16h446q17 0 17 16v191h-480v-191z" />
    <glyph glyph-name="cid376" unicode="&#x3143;" 
d="M161 573q9 0 16 -4t7 -14v-183h183v183q0 10 7 14t15 4q9 0 16 -4t7 -14v-413q0 -34 -13 -46.5t-48 -12.5h-151q-35 0 -48 12.5t-13 46.5v413q0 10 7 14t15 4zM184 140q0 -16 17 -16h149q17 0 17 16v191h-183v-191zM520 573q9 0 16 -4t7 -14v-183h183v183q0 10 7 14t15 4
q9 0 16 -4t7 -14v-413q0 -34 -13 -46.5t-48 -12.5h-151q-35 0 -48 12.5t-13 46.5v413q0 10 7 14t15 4zM543 140q0 -16 17 -16h149q17 0 17 16v191h-183v-191z" />
    <glyph glyph-name="cid377" unicode="&#x3144;" 
d="M154 563q9 0 16 -4t7 -14v-178h192v178q0 10 7 14t15 4q9 0 16 -4t7 -14v-401q0 -34 -13 -46.5t-48 -12.5h-160q-35 0 -48 12.5t-13 46.5v401q0 10 7 14t15 4zM177 142q0 -16 17 -16h158q17 0 17 16v184h-192v-184zM645 564q8 0 15 -4t7 -14v-150q0 -28 3.5 -49.5t10 -40
t17 -35.5t25.5 -35q26 -32 50 -60t51 -58q5 -6 6.5 -13t-5.5 -15q-6 -7 -14 -7.5t-14 5.5q-23 25 -52.5 59.5t-52.5 63.5t-33 46.5t-13 32.5h-1q-3 -15 -13 -32.5t-33 -46.5t-52.5 -63.5t-52.5 -59.5q-6 -6 -14 -5.5t-14 7.5q-7 8 -5.5 15t6.5 13q27 30 51 58t50 60
q15 18 25 35t17 35.5t10 40t3 49.5v150q0 10 6.5 14t15.5 4z" />
    <glyph glyph-name="cid378" unicode="&#x3145;" 
d="M455 579q9 0 16 -4.5t7 -14.5v-100q0 -39 4.5 -68t16.5 -52t32 -43t52 -41q43 -29 89 -58.5t103 -64.5q6 -4 7 -12t-3 -16q-5 -9 -12.5 -11.5t-14.5 1.5q-46 29 -89.5 56.5t-88.5 57.5q-30 20 -50 37t-33.5 31.5t-21.5 27.5t-13 26h-1q-5 -13 -13 -26t-21.5 -27.5
t-33.5 -31.5t-50 -37q-45 -30 -88.5 -57.5t-89.5 -56.5q-7 -4 -14.5 -1.5t-12.5 11.5q-4 8 -3 16t7 12q57 35 103 64.5t89 58.5q31 21 51.5 41t32 43t16 52t4.5 68v100q0 10 7 14.5t16 4.5z" />
    <glyph glyph-name="cid379" unicode="&#x3146;" 
d="M287 582q8 0 15.5 -4t7.5 -14v-129q0 -61 12.5 -105t45.5 -88q20 -26 38 -45t35 -38q14 -14 28 0q17 19 35 38t38 45q33 44 45.5 88t12.5 105v129q0 10 7.5 14t15.5 4t15.5 -4t7.5 -14v-129q0 -61 14.5 -102.5t49.5 -80.5q15 -17 28 -30.5t25 -26.5t24.5 -25.5
t28.5 -26.5q7 -6 7.5 -14.5t-5.5 -15.5q-6 -8 -14.5 -8t-14.5 6q-26 23 -50 49l-48 52q-32 34 -48.5 59.5t-18.5 40.5h-1q-2 -15 -13.5 -39.5t-37.5 -59.5q-18 -23 -39 -44.5t-39 -41.5q-39 -42 -78 0q-18 20 -39 41.5t-39 44.5q-26 35 -37.5 59.5t-12.5 39.5h-1
q-4 -30 -67 -100q-23 -26 -47.5 -52t-50.5 -49q-6 -6 -15 -6t-15 8q-6 7 -5.5 15.5t7.5 14.5q16 14 28.5 26.5t24.5 25.5t25 26.5t28 30.5q35 39 49.5 80.5t14.5 102.5v129q0 10 7.5 14t15.5 4z" />
    <glyph glyph-name="cid380" unicode="&#x3147;" 
d="M455 567q69 0 121.5 -17.5t88 -49t53.5 -76t18 -99.5t-18 -99.5t-53.5 -76t-88 -49t-121.5 -17.5t-121.5 17.5t-88 49t-53.5 76t-18 99.5t18 99.5t53.5 76t88 49t121.5 17.5zM455 527q-59 0 -103.5 -15.5t-73.5 -42.5t-43.5 -64t-14.5 -80q0 -44 14.5 -81t43.5 -64
t73.5 -42t103.5 -15t103 15t73.5 42t44 64t14.5 81q0 43 -14.5 80t-44 64t-73.5 42.5t-103 15.5z" />
    <glyph glyph-name="cid381" unicode="&#x3148;" 
d="M737 566q8 0 12 -6t4 -15q0 -8 -4 -14t-12 -6h-259v-99q0 -37 4 -63.5t15.5 -47.5t31 -39.5t50.5 -37.5q24 -15 44.5 -27.5t41.5 -25t44.5 -26t54.5 -31.5q8 -5 9 -12.5t-4 -15.5q-11 -18 -26 -10q-45 25 -85.5 49t-85.5 52q-61 37 -85.5 63.5t-30.5 46.5h-1
q-6 -20 -30.5 -46.5t-85.5 -63.5q-45 -28 -85.5 -51.5t-85.5 -49.5q-15 -8 -27 10q-5 8 -4 15.5t9 12.5q31 18 54.5 31.5t44.5 26t41.5 25t44.5 27.5q31 19 50.5 37.5t30.5 39.5t15.5 47.5t4.5 63.5v99h-259q-8 0 -12 6t-4 14q0 9 4 15t12 6h564z" />
    <glyph glyph-name="cid382" unicode="&#x3149;" 
d="M765 566q8 0 12 -6t4 -15q0 -8 -4 -14t-12 -6h-132v-89q0 -29 1.5 -52.5t8 -45.5t19 -43.5t34.5 -45.5q21 -23 47 -48.5t61 -56.5q5 -5 6 -12t-5 -15t-13.5 -9t-14.5 5q-29 27 -55.5 53t-47.5 49q-32 34 -43.5 52t-15.5 34h-1q-2 -8 -5 -16t-8.5 -18t-14 -23t-21.5 -30
q-17 -21 -36.5 -43.5t-36.5 -39.5q-22 -23 -38 -23t-38 23q-17 17 -36.5 39.5t-36.5 43.5q-27 34 -36 52.5t-13 34.5h-1q-2 -8 -5.5 -16t-10.5 -17.5t-17 -22.5t-26 -30q-21 -23 -47.5 -49t-55.5 -53q-7 -6 -14.5 -5t-13.5 9t-5 15t6 12q35 31 61 56.5t47 48.5
q22 24 34.5 45.5t19 43.5t8 45.5t1.5 52.5v89h-130q-8 0 -12 6t-4 14q0 9 4 15t12 6h620zM319 436q0 -28 0.5 -51.5t4.5 -45.5t13.5 -44t27.5 -47t37.5 -47t38.5 -41q13 -13 26 0q19 20 38.5 41.5t37.5 46.5t27.5 47t13.5 44t4.5 45.5t0.5 51.5v89h-270v-89z" />
    <glyph glyph-name="cid383" unicode="&#x314a;" 
d="M454 640q9 0 16 -4t7 -14v-115h267q8 0 12 -6t4 -15q0 -8 -4 -14t-12 -6h-267v-39q0 -36 4.5 -62t16 -47t31.5 -39t51 -38q24 -16 45.5 -29t42.5 -26t44 -26t51 -28q8 -5 9 -12.5t-4 -15.5q-12 -18 -27 -10q-45 26 -85.5 50t-85.5 52q-31 19 -51.5 35.5t-33.5 31
t-20 26.5t-10 23h-1q-6 -21 -30.5 -49.5t-85.5 -66.5q-45 -28 -85.5 -52t-85.5 -50q-15 -8 -27 10q-5 8 -4 15.5t9 12.5q28 15 51 28t44 26t42.5 26t45.5 29q31 20 51 38t31.5 39t16 47t4.5 62v39h-267q-8 0 -12 6t-4 14q0 9 4 15t12 6h267v115q0 10 7.5 14t15.5 4z" />
    <glyph glyph-name="cid384" unicode="&#x314b;" 
d="M676 565q35 0 48 -12.5t13 -46.5v-425q0 -10 -7 -14t-16 -4q-8 0 -15 4t-7 14v215l-531 -7q-8 0 -12 6t-4 15t4 15t12 6l531 6v170q0 16 -17 16h-494q-8 0 -12 6t-4 15t4 15t12 6h495z" />
    <glyph glyph-name="cid385" unicode="&#x314c;" 
d="M733 561q8 0 11.5 -6t3.5 -14t-3.5 -14t-11.5 -6h-495q-17 0 -17 -16v-164h502q8 0 11.5 -5.5t3.5 -13.5t-3.5 -14t-11.5 -6h-502v-164q0 -16 17 -16h516q8 0 11.5 -6t3.5 -14t-3.5 -14t-11.5 -6h-517q-35 0 -48 12.5t-13 46.5v361q0 34 13 46.5t48 12.5h496z" />
    <glyph glyph-name="cid386" unicode="&#x314d;" 
d="M754 556q8 0 11.5 -6t3.5 -14t-3.5 -14t-11.5 -6h-130v-392h136q8 0 11.5 -6t3.5 -14t-3.5 -14t-11.5 -6h-610q-8 0 -11.5 6t-3.5 14t3.5 14t11.5 6h136v392h-130q-8 0 -11.5 6t-3.5 14t3.5 14t11.5 6h598zM331 124h248v392h-248v-392z" />
    <glyph glyph-name="cid387" unicode="&#x314e;" 
d="M455 367q122 0 188.5 -42.5t66.5 -120.5t-66.5 -120.5t-188.5 -42.5t-188.5 42.5t-66.5 120.5t66.5 120.5t188.5 42.5zM455 328q-103 0 -156.5 -33t-53.5 -91t53.5 -91t156.5 -33t156.5 33t53.5 91t-53.5 91t-156.5 33zM455 645q9 0 16 -4t7 -14v-120h273q8 0 12 -6
t4 -15q0 -8 -4 -14t-12 -6h-592q-8 0 -12 6t-4 14q0 9 4 15t12 6h273v120q0 10 7.5 14t15.5 4z" />
    <glyph glyph-name="cid388" unicode="&#x314f;" 
d="M425 769q9 0 16 -4t7 -14v-297h173q9 0 13 -6.5t4 -14.5t-4 -14.5t-13 -6.5h-173v-471q0 -10 -7 -14t-16 -4q-8 0 -15 4t-7 14v810q0 10 7 14t15 4z" />
    <glyph glyph-name="cid389" unicode="&#x3150;" 
d="M568 769q9 0 16 -4t7 -14v-810q0 -10 -7 -14t-16 -4q-8 0 -15 4t-7 14v467h-185v-425q0 -10 -7 -14t-16 -4q-8 0 -15 4t-7 14v758q0 10 7 14t15 4q9 0 16 -4t7 -14v-292h185v302q0 10 7 14t15 4z" />
    <glyph glyph-name="cid390" unicode="&#x3151;" 
d="M433 769q9 0 16 -4t7 -14v-182h174q8 0 12 -6t4 -15q0 -8 -4 -14t-12 -6h-174v-190h174q8 0 12 -6t4 -15q0 -8 -4 -14t-12 -6h-174v-356q0 -10 -7 -14t-16 -4q-8 0 -15 4t-7 14v810q0 10 7 14t15 4z" />
    <glyph glyph-name="cid391" unicode="&#x3152;" 
d="M568 769q9 0 16 -4t7 -14v-810q0 -10 -7 -14t-16 -4q-8 0 -14.5 4t-6.5 14v356h-186v-314q0 -10 -7 -14t-16 -4q-8 0 -14.5 4t-6.5 14v758q0 10 6.5 14t14.5 4q9 0 16 -4t7 -14v-182h186v192q0 10 6.5 14t14.5 4zM361 338h186v180h-186v-180z" />
    <glyph glyph-name="cid392" unicode="&#x3153;" 
d="M545 769q9 0 16 -4t7 -14v-810q0 -10 -7 -14t-16 -4q-8 0 -15 4t-7 14v472h-174q-8 0 -12 6.5t-4 14.5t4 14t12 6h174v297q0 10 7 14t15 4z" />
    <glyph glyph-name="cid393" unicode="&#x3154;" 
d="M637 769q9 0 16 -4t7 -14v-810q0 -10 -7 -14t-16 -4q-8 0 -15 4t-7 14v810q0 10 7 14t15 4zM464 759q8 0 15 -4t7 -14v-758q0 -10 -7 -14t-15 -4q-9 0 -16 4t-7 14v435h-174q-8 0 -12 6.5t-4 14.5t4 14t12 6h174v282q0 10 7 14t16 4z" />
    <glyph glyph-name="cid394" unicode="&#x3155;" 
d="M545 769q9 0 16 -4t7 -14v-810q0 -10 -7 -14t-16 -4q-8 0 -15 4t-7 14v357h-166q-8 0 -12 6t-4 14t4 14t12 6h166v190h-166q-8 0 -12 6t-4 14t4 14t12 6h166v183q0 10 7 14t15 4z" />
    <glyph glyph-name="cid395" unicode="&#x3156;" 
d="M637 769q9 0 16 -4t7 -14v-810q0 -10 -7 -14t-16 -4q-8 0 -15 4t-7 14v810q0 10 7 14t15 4zM466 759q8 0 15 -4t7 -14v-758q0 -10 -7 -14t-15 -4q-9 0 -16 4t-7 14v315h-166q-8 0 -12 6t-4 14t4 14t12 6h166v190h-166q-8 0 -12 6t-4 14t4 14t12 6h166v173q0 10 7 14t16 4
z" />
    <glyph glyph-name="cid396" unicode="&#x3157;" 
d="M455 507q9 0 16 -4t7 -14v-342h375q8 0 12 -6t4 -15q0 -8 -4 -14t-12 -6h-796q-8 0 -12 6t-4 14q0 9 4 15t12 6h376v342q0 10 7 14t15 4z" />
    <glyph glyph-name="cid397" unicode="&#x3158;" 
d="M723 769q9 0 16 -4t7 -14v-327h130q9 0 13 -6.5t4 -14.5t-4 -14.5t-13 -6.5h-130v-441q0 -10 -7 -14t-16 -4q-8 0 -15 4t-7 14v810q0 10 7 14t15 4zM319 402q9 0 16 -4t7 -14v-227q62 2 127 6t137 10q6 1 11 -3.5t6 -13.5t-3 -15t-10 -7q-75 -6 -144.5 -10.5t-137 -6.5
t-134 -3t-136.5 -1q-8 0 -12 6t-4 14t4 14t12 6h118.5t120.5 2v229q0 10 7 14t15 4z" />
    <glyph glyph-name="cid398" unicode="&#x3159;" 
d="M799 769q9 0 16 -4t7 -14v-810q0 -10 -7 -14t-16 -4q-8 0 -15 4t-7 14v437h-149v-395q0 -10 -7 -14t-16 -4q-8 0 -15 4t-7 14v758q0 10 7 14t15 4q9 0 16 -4t7 -14v-322h149v332q0 10 7 14t15 4zM277 403q9 0 16 -4t7 -14v-212l102 4t102 7q6 1 11 -3.5t6 -13.5t-3 -15
t-10 -7q-108 -8 -224 -11.5t-227 -3.5q-8 0 -12 6t-4 14t4 14t12 6h95.5t102.5 2v213q0 10 7 14t15 4z" />
    <glyph glyph-name="cid399" unicode="&#x315a;" 
d="M766 769q9 0 16 -4t7 -14v-810q0 -10 -7 -14t-16 -4q-8 0 -15 4t-7 14v810q0 10 7 14t15 4zM346 402q9 0 16 -4t7 -14v-227q66 2 134.5 6.5t145.5 11.5q6 1 11 -3.5t6 -13.5t-3 -15t-10 -7q-80 -7 -152 -11.5t-142 -7t-141 -3.5t-147 -1q-8 0 -12 6t-4 14t4 14t12 6
q65 0 127 0.5t126 2.5v228q0 10 7 14t15 4z" />
    <glyph glyph-name="cid400" unicode="&#x315b;" 
d="M312 507q9 0 16 -4t7 -14v-343h240v343q0 10 7 14t15 4q9 0 16 -4t7 -14v-343h234q8 0 11.5 -6t3.5 -14t-3.5 -14t-11.5 -6h-798q-8 0 -11.5 6t-3.5 14t3.5 14t11.5 6h234v343q0 10 7 14t15 4z" />
    <glyph glyph-name="cid401" unicode="&#x315c;" 
d="M853 349q8 0 12 -6t4 -15q0 -8 -4 -14t-12 -6h-375v-360q0 -10 -7 -14t-16 -4q-8 0 -15 4t-7 14v360h-376q-8 0 -12 6t-4 14q0 9 4 15t12 6h796z" />
    <glyph glyph-name="cid402" unicode="&#x315d;" 
d="M766 769q9 0 16 -4t7 -14v-810q0 -10 -7 -14t-16 -4q-8 0 -15 4t-7 14v169h-208q-8 0 -11.5 6t-3.5 14t3.5 14t11.5 6h208v601q0 10 7 14t15 4zM649 333q6 1 11 -3.5t6 -13.5t-3 -15t-10 -7q-78 -7 -147.5 -11.5t-137.5 -6.5v-325q0 -10 -7 -14t-16 -4q-8 0 -15 4t-7 14
v323q-62 -2 -123.5 -2.5t-128.5 -0.5q-8 0 -12 6t-4 14t4 14t12 6q71 0 139.5 1t138.5 3t144 6.5t156 11.5z" />
    <glyph glyph-name="cid403" unicode="&#x315e;" 
d="M626 764q8 0 15 -4t7 -14v-773q0 -10 -7 -14t-15 -4q-9 0 -16 4t-7 14v167h-165q-8 0 -11.5 6t-3.5 14t3.5 14t11.5 6h165v566q0 10 7 14t16 4zM789 769q9 0 16 -4t7 -14v-810q0 -10 -7 -14t-16 -4q-8 0 -15 4t-7 14v810q0 10 7 14t15 4zM519 345q6 1 11 -3.5t6 -13.5
t-3 -15t-10 -7q-57 -5 -112.5 -7.5t-111.5 -4.5v-311q0 -10 -7 -14t-16 -4q-8 0 -15 4t-7 14v310q-53 -2 -104.5 -2h-102.5q-8 0 -12 6t-4 14t4 14t12 6q106 0 225 2t247 12z" />
    <glyph glyph-name="cid404" unicode="&#x315f;" 
d="M766 769q9 0 16 -4t7 -14v-810q0 -10 -7 -14t-16 -4q-8 0 -15 4t-7 14v810q0 10 7 14t15 4zM649 309q6 1 11 -3.5t6 -13.5t-3 -15t-10 -7q-75 -7 -143 -11t-134 -7v-301q0 -10 -7 -14t-16 -4q-8 0 -15 4t-7 14v299q-63 -2 -127 -2.5t-133 -0.5q-8 0 -12 6t-4 14t4 14
t12 6q71 0 139.5 1t138.5 3t144 6.5t156 11.5z" />
    <glyph glyph-name="cid405" unicode="&#x3160;" 
d="M854 349q8 0 11.5 -6t3.5 -14t-3.5 -14t-11.5 -6h-238v-356q0 -10 -7 -14t-15 -4t-15 4t-7 14v356h-234v-356q0 -10 -7 -14t-15 -4t-15 4t-7 14v356h-238q-8 0 -11.5 6t-3.5 14t3.5 14t11.5 6h798z" />
    <glyph glyph-name="cid406" unicode="&#x3161;" 
d="M853 177q8 0 12 -6t4 -15q0 -8 -4 -14t-12 -6h-796q-8 0 -12 6t-4 14q0 9 4 15t12 6h796z" />
    <glyph glyph-name="cid407" unicode="&#x3162;" 
d="M766 769q9 0 16 -4t7 -14v-810q0 -10 -7 -14t-16 -4q-8 0 -15 4t-7 14v810q0 10 7 14t15 4zM649 180q6 1 11 -3.5t6 -13.5t-3 -15.5t-10 -7.5q-80 -7 -152 -11.5t-142 -7t-141 -3.5t-147 -1q-8 0 -12 6t-4 14q0 9 4 15t12 6q71 0 139.5 1t138.5 3t144 6.5t156 11.5z" />
    <glyph glyph-name="cid408" unicode="&#x3163;" 
d="M453 769q9 0 16 -4t7 -14v-810q0 -10 -7 -14t-16 -4q-8 0 -15 4t-7 14v810q0 10 7 14t15 4z" />
    <glyph glyph-name="cid409" unicode="&#x3165;" 
d="M178 560q9 0 16 -4t7 -15v-401q0 -16 17 -16h188q8 0 12 -6t4 -14q0 -9 -4 -15t-12 -6h-190q-35 0 -48 12.5t-13 46.5v399q0 11 7 15t16 4zM511 560q9 0 16 -4t7 -15v-401q0 -16 17 -16h202q8 0 12 -6t4 -14q0 -9 -4 -15t-12 -6h-204q-35 0 -48 12.5t-13 46.5v399
q0 11 7 15t16 4z" />
    <glyph glyph-name="cid410" unicode="&#x3166;" 
d="M178 560q9 0 16 -4t7 -15v-401q0 -16 17 -16h185q8 0 12 -6t4 -14q0 -9 -4 -15t-12 -6h-187q-35 0 -48 12.5t-13 46.5v399q0 11 7 15t16 4zM731 553q8 0 12 -6t4 -14q0 -9 -4 -15t-12 -6h-192q-17 0 -17 -16v-355q0 -16 17 -16h202q8 0 12 -6t4 -14q0 -9 -4 -15t-12 -6
h-203q-35 0 -48 12.5t-13 46.5v351q0 34 13 46.5t48 12.5h193z" />
    <glyph glyph-name="cid411" unicode="&#x3167;" 
d="M133 560q9 0 16 -4t7 -15v-401q0 -16 17 -16h188q8 0 12 -6t4 -14q0 -9 -4 -15t-12 -6h-190q-35 0 -48 12.5t-13 46.5v399q0 11 7 15t16 4zM603 564q8 0 15 -4t7 -14v-150q0 -28 3.5 -49.5t10 -40t17 -35.5t25.5 -35q26 -32 50 -60t51 -58q5 -6 6.5 -13t-5.5 -15
q-6 -7 -14 -7.5t-14 5.5q-23 25 -52.5 59.5t-52.5 63.5t-33 46.5t-13 32.5h-1q-3 -15 -13 -32.5t-33 -46.5t-52.5 -63.5t-52.5 -59.5q-6 -6 -14 -5.5t-14 7.5q-7 8 -5.5 15t6.5 13q27 30 51 58t50 60q15 18 25 35t17 35.5t10 40t3 49.5v150q0 10 6.5 14t15.5 4z" />
    <glyph glyph-name="cid412" unicode="&#x3168;" 
d="M155 560q9 0 16 -4t7 -15v-398q0 -16 17 -16h208q8 0 12 -6t4 -14q0 -9 -4 -15t-12 -6h-210q-35 0 -48 12.5t-13 46.5v396q0 11 7 15t16 4zM613 517q-5 0 -6.5 -4.5t-3.5 -9.5l-101 -359q-3 -9 1 -14q3 -4 13 -4h194q10 0 13 4q4 5 1 14l-101 359q-2 5 -3.5 9.5t-6.5 4.5
zM613 579q11 0 19.5 -7t12.5 -20l122 -407q9 -29 -2 -43q-12 -15 -36 -15h-232q-24 0 -36 15q-11 14 -2 43l122 407q4 13 12.5 20t19.5 7z" />
    <glyph glyph-name="cid413" unicode="&#x3169;" 
d="M463 561q35 0 48 -12.5t13 -46.5v-407q0 -10 -7 -14t-16 -4q-8 0 -15 4t-7 14v408q0 16 -17 16h-151q-8 0 -12 6t-4 15t4 15t12 6h152zM203 559q35 0 48 -12.5t13 -46.5v-138q0 -34 -13 -46.5t-48 -12.5h-96q-17 0 -17 -16v-146q0 -16 17 -16h186q8 0 11.5 -6t3.5 -14
t-3.5 -14t-11.5 -6h-186q-35 0 -48 12.5t-13 46.5v139q0 34 13 46.5t48 12.5h96q17 0 17 16v145q0 16 -17 16h-144q-8 0 -11.5 6t-3.5 14t3.5 14t11.5 6h144zM696 564q8 0 15 -4t7 -14v-150q0 -28 2.5 -49.5t7.5 -39.5t14 -35t22 -36q20 -30 40.5 -58t45.5 -60q5 -6 6.5 -13
t-5.5 -15q-6 -7 -14.5 -8t-13.5 6q-23 29 -45 59t-45 64q-18 27 -25.5 42t-10.5 30h-1q-3 -15 -10.5 -30t-25.5 -42q-23 -34 -45 -64t-45 -59q-5 -7 -13.5 -6t-14.5 8q-7 8 -5.5 15t6.5 13q25 32 45.5 60t40.5 58q13 19 21.5 36t14 35t7.5 39.5t2 49.5v150q0 10 6.5 14
t15.5 4z" />
    <glyph glyph-name="cid414" unicode="&#x316a;" 
d="M365 555q35 0 48 -12.5t13 -46.5v-134q0 -34 -13 -46.5t-48 -12.5h-158q-17 0 -17 -16v-148q0 -16 17 -16h233q8 0 11.5 -6t3.5 -14t-3.5 -14t-11.5 -6h-233q-35 0 -48 12.5t-13 46.5v141q0 34 13 46.5t48 12.5h158q17 0 17 16v141q0 16 -17 16h-206q-8 0 -11.5 6
t-3.5 14t3.5 14t11.5 6h206zM746 556q8 0 12 -6t4 -14q0 -9 -4 -15t-12 -6h-192q-17 0 -17 -16v-358q0 -16 17 -16h202q8 0 12 -6t4 -14q0 -9 -4 -15t-12 -6h-203q-35 0 -48 12.5t-13 46.5v354q0 34 13 46.5t48 12.5h193z" />
    <glyph glyph-name="cid415" unicode="&#x316b;" 
d="M204 559q35 0 48 -12.5t13 -46.5v-138q0 -34 -13 -46.5t-48 -12.5h-86q-17 0 -17 -16v-146q0 -16 17 -16h156q8 0 11.5 -6t3.5 -14t-3.5 -14t-11.5 -6h-156q-35 0 -48 12.5t-13 46.5v139q0 34 13 46.5t48 12.5h86q17 0 17 16v145q0 16 -17 16h-134q-8 0 -11.5 6t-3.5 14
t3.5 14t11.5 6h134zM344 564q9 0 15.5 -4t6.5 -14v-174h127v174q0 10 6.5 14t14.5 4q9 0 15.5 -4t6.5 -14v-404q0 -34 -13 -46.5t-48 -12.5h-91q-35 0 -48 12.5t-13 46.5v404q0 10 6.5 14t14.5 4zM366 139q0 -16 17 -16h93q17 0 17 16v193h-127v-193zM696 564q8 0 15 -4
t7 -14v-150q0 -28 2.5 -49.5t7.5 -39.5t14 -35t22 -36q20 -30 40.5 -58t45.5 -60q5 -6 6.5 -13t-5.5 -15q-6 -7 -14.5 -8t-13.5 6q-23 29 -45 59t-45 64q-18 27 -25.5 42t-10.5 30h-1q-3 -15 -10.5 -30t-25.5 -42q-23 -34 -45 -64t-45 -59q-5 -7 -13.5 -6t-14.5 8
q-7 8 -5.5 15t6.5 13q25 32 45.5 60t40.5 58q13 19 21.5 36t14 35t7.5 39.5t2 49.5v150q0 10 6.5 14t15.5 4z" />
    <glyph glyph-name="cid416" unicode="&#x316c;" 
d="M342 555q35 0 48 -12.5t13 -46.5v-134q0 -34 -13 -46.5t-48 -12.5h-142q-17 0 -17 -16v-148q0 -16 17 -16h221q8 0 11.5 -6t3.5 -14t-3.5 -14t-11.5 -6h-221q-35 0 -48 12.5t-13 46.5v141q0 34 13 46.5t48 12.5h142q17 0 17 16v141q0 16 -17 16h-190q-8 0 -11.5 6
t-3.5 14t3.5 14t11.5 6h190zM623 517q-5 0 -6.5 -4.5t-3.5 -9.5l-101 -359q-3 -9 1 -14q3 -4 13 -4h194q10 0 13 4q4 5 1 14l-101 359q-2 5 -3.5 9.5t-6.5 4.5zM623 579q11 0 19.5 -7t12.5 -20l122 -407q9 -29 -2 -43q-12 -15 -36 -15h-232q-24 0 -36 15q-11 14 -2 43
l122 407q4 13 12.5 20t19.5 7z" />
    <glyph glyph-name="cid417" unicode="&#x316d;" 
d="M350 555q35 0 48 -12.5t13 -46.5v-134q0 -34 -13 -46.5t-48 -12.5h-153q-17 0 -17 -16v-148q0 -16 17 -16h235q8 0 11.5 -6t3.5 -14t-3.5 -14t-11.5 -6h-235q-35 0 -48 12.5t-13 46.5v141q0 34 13 46.5t48 12.5h153q17 0 17 16v141q0 16 -17 16h-201q-8 0 -11.5 6
t-3.5 14t3.5 14t11.5 6h201zM625 395q39 0 68.5 -13t49.5 -35.5t30.5 -53t10.5 -66.5t-10.5 -66.5t-30.5 -53t-49.5 -35.5t-68.5 -13t-68.5 13t-49.5 35.5t-30.5 53t-10.5 66.5t10.5 66.5t30.5 53t49.5 35.5t68.5 13zM776 558q7 0 10.5 -6t3.5 -14t-3.5 -14t-10.5 -6h-306
q-7 0 -10.5 6t-3.5 14t3.5 14t10.5 6h306zM625 359q-30 0 -52 -10.5t-36.5 -28.5t-22 -42t-7.5 -51t7.5 -51t22 -42t36.5 -28.5t52 -10.5t52 10.5t36.5 28.5t22 42t7.5 51t-7.5 51t-22 42t-36.5 28.5t-52 10.5z" />
    <glyph glyph-name="cid418" unicode="&#x316e;" 
d="M361 558q35 0 48 -12.5t13 -46.5v-356q0 -34 -13 -46.5t-48 -12.5h-152q-35 0 -48 12.5t-13 46.5v356q0 34 13 46.5t48 12.5h152zM208 519q-17 0 -17 -16v-364q0 -16 17 -16h154q17 0 17 16v364q0 16 -17 16h-154zM510 563q9 0 16 -4t7 -14v-174h183v174q0 10 7 14t15 4
q9 0 16 -4t7 -14v-401q0 -34 -13 -46.5t-48 -12.5h-151q-35 0 -48 12.5t-13 46.5v401q0 10 7 14t15 4zM533 142q0 -16 17 -16h149q17 0 17 16v188h-183v-188z" />
    <glyph glyph-name="cid419" unicode="&#x316f;" 
d="M337 558q35 0 48 -12.5t13 -46.5v-356q0 -34 -13 -46.5t-48 -12.5h-162q-35 0 -48 12.5t-13 46.5v356q0 34 13 46.5t48 12.5h162zM174 519q-17 0 -17 -16v-364q0 -16 17 -16h164q17 0 17 16v364q0 16 -17 16h-164zM620 564q8 0 15 -4t7 -14v-150q0 -28 3.5 -49.5t10 -40
t17 -35.5t25.5 -35q26 -32 50 -60t51 -58q5 -6 6.5 -13t-5.5 -15q-6 -7 -14 -7.5t-14 5.5q-23 25 -52.5 59.5t-52.5 63.5t-33 46.5t-13 32.5h-1q-3 -15 -13 -32.5t-33 -46.5t-52.5 -63.5t-52.5 -59.5q-6 -6 -14 -5.5t-14 7.5q-7 8 -5.5 15t6.5 13q27 30 51 58t50 60
q15 18 25 35t17 35.5t10 40t3 49.5v150q0 10 6.5 14t15.5 4z" />
    <glyph glyph-name="cid420" unicode="&#x3170;" 
d="M352 558q35 0 48 -12.5t13 -46.5v-356q0 -34 -13 -46.5t-48 -12.5h-160q-35 0 -48 12.5t-13 46.5v356q0 34 13 46.5t48 12.5h160zM191 519q-17 0 -17 -16v-364q0 -16 17 -16h162q17 0 17 16v364q0 16 -17 16h-162zM621 517q-5 0 -6.5 -4.5t-3.5 -9.5l-101 -359
q-3 -9 1 -14q3 -4 13 -4h194q10 0 13 4q4 5 1 14l-101 359q-2 5 -3.5 9.5t-6.5 4.5zM621 579q11 0 19.5 -7t12.5 -20l122 -407q9 -29 -2 -43q-12 -15 -36 -15h-232q-24 0 -36 15q-11 14 -2 43l122 407q4 13 12.5 20t19.5 7z" />
    <glyph glyph-name="cid421" unicode="&#x3171;" 
d="M613 668q35 0 48 -12.5t13 -46.5v-228q0 -34 -13 -46.5t-48 -12.5h-318q-35 0 -48 12.5t-13 46.5v228q0 34 13 46.5t48 12.5h318zM296 627q-17 0 -17 -16v-232q0 -16 17 -16h316q17 0 17 16v232q0 16 -17 16h-316zM458 247q79 0 114.5 -36t35.5 -91t-35.5 -91t-114.5 -36
q-40 0 -68.5 9.5t-46.5 26.5t-26.5 40.5t-8.5 50.5t8.5 50.5t26.5 40.5t46.5 26.5t68.5 9.5zM458 208q-29 0 -49 -7t-32.5 -19t-18 -28t-5.5 -34t5.5 -34.5t18 -28.5t32.5 -19t49 -7q58 0 81.5 26t23.5 63t-23.5 62.5t-81.5 25.5z" />
    <glyph glyph-name="cid422" unicode="&#x3172;" 
d="M709 558q35 0 48 -12.5t13 -46.5v-411q0 -10 -7 -14t-16 -4q-8 0 -15 4t-7 14v412q0 16 -17 16h-205q-8 0 -12 6t-4 15t4 15t12 6h206zM161 563q9 0 16 -4t7 -14v-178h199v178q0 10 7 14t15 4q9 0 16 -4t7 -14v-403q0 -34 -13 -46.5t-48 -12.5h-167q-35 0 -48 12.5
t-13 46.5v403q0 10 7 14t15 4zM184 140q0 -16 17 -16h165q17 0 17 16v186h-199v-186z" />
    <glyph glyph-name="cid423" unicode="&#x3173;" 
d="M168 563q9 0 16 -4t7 -14v-178h185v178q0 10 7 14t15 4q9 0 16 -4t7 -14v-401q0 -34 -13 -46.5t-48 -12.5h-153q-35 0 -48 12.5t-13 46.5v401q0 10 7 14t15 4zM191 142q0 -16 17 -16h151q17 0 17 16v184h-185v-184zM740 556q8 0 12 -6t4 -14q0 -9 -4 -15t-12 -6h-184
q-17 0 -17 -16v-357q0 -16 17 -16h194q8 0 12 -6t4 -14q0 -9 -4 -15t-12 -6h-195q-35 0 -48 12.5t-13 46.5v353q0 34 13 46.5t48 12.5h185z" />
    <glyph glyph-name="cid424" unicode="&#x3174;" 
d="M120 563q9 0 15.5 -4t6.5 -14v-180h138v180q0 10 6.5 14t14.5 4q9 0 15.5 -4t6.5 -14v-402q0 -34 -13 -46.5t-48 -12.5h-102q-35 0 -48 12.5t-13 46.5v402q0 10 6.5 14t14.5 4zM142 139q0 -16 17 -16h104q17 0 17 16v187h-138v-187zM760 558q35 0 48 -12.5t13 -46.5v-404
q0 -10 -7 -14t-16 -4q-8 0 -15 4t-7 14v405q0 16 -17 16h-165q-8 0 -12 6t-4 15t4 15t12 6h166zM483 564q8 0 15 -4t7 -14v-150q0 -28 2.5 -49.5t7.5 -39.5t14 -35t22 -36q20 -30 40.5 -58t45.5 -60q5 -6 6.5 -13t-5.5 -15q-6 -7 -14.5 -8t-13.5 6q-23 29 -45 59t-45 64
q-18 27 -25.5 42t-10.5 30h-1q-3 -15 -10.5 -30t-25.5 -42q-23 -34 -45 -64t-45 -59q-5 -7 -13.5 -6t-14.5 8q-7 8 -5.5 15t6.5 13q25 32 45.5 60t40.5 58q13 19 21.5 36t14 35t7.5 39.5t2 49.5v150q0 10 6.5 14t15.5 4z" />
    <glyph glyph-name="cid425" unicode="&#x3175;" 
d="M109 563q9 0 15.5 -4t6.5 -14v-180h126v180q0 10 6.5 14t14.5 4q9 0 15.5 -4t6.5 -14v-402q0 -34 -13 -46.5t-48 -12.5h-90q-35 0 -48 12.5t-13 46.5v402q0 10 6.5 14t14.5 4zM131 139q0 -16 17 -16h92q17 0 17 16v187h-126v-187zM462 564q8 0 15 -4t7 -14v-150
q0 -28 2.5 -49.5t7.5 -39.5t14 -35t22 -36q20 -30 39.5 -58t42.5 -60q5 -6 6.5 -13t-5.5 -15q-6 -7 -14.5 -8t-13.5 6q-21 29 -42 59t-44 64q-18 27 -25.5 42t-10.5 30h-1q-3 -15 -10.5 -30t-25.5 -42q-23 -34 -44 -64t-42 -59q-5 -7 -13.5 -6t-14.5 8q-7 8 -5.5 15t6.5 13
q23 32 42.5 60t39.5 58q13 19 21.5 36t14 35t7.5 39.5t2 49.5v150q0 10 6.5 14t15.5 4zM802 556q8 0 12 -6t4 -14q0 -9 -4 -15t-12 -6h-116q-17 0 -17 -16v-357q0 -16 17 -16h126q8 0 12 -6t4 -14q0 -9 -4 -15t-12 -6h-127q-35 0 -48 12.5t-13 46.5v353q0 34 13 46.5
t48 12.5h117z" />
    <glyph glyph-name="cid426" unicode="&#x3176;" 
d="M749 558q7 0 10.5 -5t3.5 -13q0 -19 -14 -19h-121v-132q0 -25 3.5 -45.5t10.5 -39.5t18 -37.5t26 -39.5q10 -15 20 -28t20.5 -26t22 -27t25.5 -31q7 -8 5 -15.5t-7 -12.5t-13 -5t-13 6q-26 32 -47.5 59.5t-41.5 56.5q-12 17 -20 29t-13.5 22t-9.5 20.5t-7 24.5h-1
q-3 -14 -7 -24.5t-9.5 -20.5t-13.5 -22t-20 -29q-20 -29 -41.5 -56.5t-47.5 -59.5q-5 -6 -13 -6t-13 5t-7 12.5t5 15.5q28 34 47.5 58.5t40.5 53.5q15 21 26 39.5t18 37.5t10 39.5t3 45.5v132h-121q-14 0 -14 19q0 8 3.5 13t10.5 5h286zM147 563q9 0 16 -4t7 -14v-172h194
v172q0 10 7 14t15 4q9 0 16 -4t7 -14v-401q0 -34 -13 -46.5t-48 -12.5h-162q-35 0 -48 12.5t-13 46.5v401q0 10 7 14t15 4zM170 142q0 -16 17 -16h160q17 0 17 16v190h-194v-190z" />
    <glyph glyph-name="cid427" unicode="&#x3177;" 
d="M166 563q9 0 16 -4t7 -14v-170h185v170q0 10 7 14t15 4q9 0 16 -4t7 -14v-399q0 -34 -13 -46.5t-48 -12.5h-153q-35 0 -48 12.5t-13 46.5v399q0 10 7 14t15 4zM189 142q0 -16 17 -16h151q17 0 17 16v194h-185v-194zM725 556q8 0 11.5 -6t3.5 -14t-3.5 -14t-11.5 -6h-171
q-17 0 -17 -16v-157h178q8 0 11.5 -6t3.5 -14t-3.5 -14t-11.5 -6h-178v-163q0 -16 17 -16h181q8 0 11.5 -6t3.5 -14t-3.5 -14t-11.5 -6h-181q-35 0 -48 12.5t-13 46.5v354q0 34 13 46.5t48 12.5h171z" />
    <glyph glyph-name="cid428" unicode="&#x3178;" 
d="M253 687q9 0 15.5 -4t6.5 -14v-120h359v120q0 10 6.5 14t14.5 4q9 0 16 -4t7 -14v-284q0 -34 -13 -46.5t-48 -12.5h-325q-35 0 -48 12.5t-13 46.5v284q0 10 7 14t15 4zM275 383q0 -16 17 -16h325q17 0 17 16v125h-359v-125zM458 247q79 0 114.5 -36t35.5 -91t-35.5 -91
t-114.5 -36q-40 0 -68.5 9.5t-46.5 26.5t-26.5 40.5t-8.5 50.5t8.5 50.5t26.5 40.5t46.5 26.5t68.5 9.5zM458 208q-29 0 -49 -7t-32.5 -19t-18 -28t-5.5 -34t5.5 -34.5t18 -28.5t32.5 -19t49 -7q58 0 81.5 26t23.5 63t-23.5 62.5t-81.5 25.5z" />
    <glyph glyph-name="cid429" unicode="&#x3179;" 
d="M229 670q9 0 15.5 -4t6.5 -14v-116h128v116q0 10 6.5 14t14.5 4q9 0 16 -4t7 -14v-279q0 -34 -13 -46.5t-48 -12.5h-94q-35 0 -48 12.5t-13 46.5v279q0 10 7 14t15 4zM251 370q0 -16 17 -16h94q17 0 17 16v126h-128v-126zM507 670q9 0 15.5 -4t6.5 -14v-116h128v116
q0 10 6.5 14t14.5 4q9 0 16 -4t7 -14v-279q0 -34 -13 -46.5t-48 -12.5h-94q-35 0 -48 12.5t-13 46.5v279q0 10 7 14t15 4zM529 370q0 -16 17 -16h94q17 0 17 16v126h-128v-126zM458 247q79 0 114.5 -36t35.5 -91t-35.5 -91t-114.5 -36q-40 0 -68.5 9.5t-46.5 26.5
t-26.5 40.5t-8.5 50.5t8.5 50.5t26.5 40.5t46.5 26.5t68.5 9.5zM458 208q-29 0 -49 -7t-32.5 -19t-18 -28t-5.5 -34t5.5 -34.5t18 -28.5t32.5 -19t49 -7q58 0 81.5 26t23.5 63t-23.5 62.5t-81.5 25.5z" />
    <glyph glyph-name="cid430" unicode="&#x317a;" 
d="M707 555q35 0 48 -12.5t13 -46.5v-406q0 -10 -7 -14t-16 -4q-8 0 -15 4t-7 14v407q0 16 -17 16h-218q-8 0 -12 6t-4 15t4 15t12 6h219zM330 564q8 0 15 -4t7 -14v-150q0 -28 3.5 -49.5t10 -40t17 -35.5t25.5 -35q26 -32 50 -60t51 -58q5 -6 6.5 -13t-5.5 -15
q-6 -7 -14 -7.5t-14 5.5q-23 25 -52.5 59.5t-52.5 63.5t-33 46.5t-13 32.5h-1q-3 -15 -13 -32.5t-33 -46.5t-52.5 -63.5t-52.5 -59.5q-6 -6 -14 -5.5t-14 7.5q-7 8 -5.5 15t6.5 13q27 30 51 58t50 60q15 18 25 35t17 35.5t10 40t3 49.5v150q0 10 6.5 14t15.5 4z" />
    <glyph glyph-name="cid431" unicode="&#x317b;" 
d="M546 564q9 0 16 -4t7 -15v-403q0 -16 17 -16h200q8 0 12 -6t4 -14q0 -9 -4 -15t-12 -6h-202q-35 0 -48 12.5t-13 46.5v401q0 11 7 15t16 4zM299 564q8 0 15 -4t7 -14v-150q0 -28 3.5 -49.5t10 -40t17 -35.5t25.5 -35q26 -32 50 -60t51 -58q5 -6 6.5 -13t-5.5 -15
q-6 -7 -14 -7.5t-14 5.5q-23 25 -52.5 59.5t-52.5 63.5t-33 46.5t-13 32.5h-1q-3 -15 -13 -32.5t-33 -46.5t-52.5 -63.5t-52.5 -59.5q-6 -6 -14 -5.5t-14 7.5q-7 8 -5.5 15t6.5 13q27 30 51 58t50 60q15 18 25 35t17 35.5t10 40t3 49.5v150q0 10 6.5 14t15.5 4z" />
    <glyph glyph-name="cid432" unicode="&#x317c;" 
d="M771 553q8 0 12 -6t4 -14q0 -9 -4 -15t-12 -6h-183q-17 0 -17 -16v-355q0 -16 17 -16h193q8 0 12 -6t4 -14q0 -9 -4 -15t-12 -6h-194q-35 0 -48 12.5t-13 46.5v351q0 34 13 46.5t48 12.5h184zM299 564q8 0 15 -4t7 -14v-150q0 -28 3.5 -49.5t10 -40t17 -35.5t25.5 -35
q26 -32 50 -60t51 -58q5 -6 6.5 -13t-5.5 -15q-6 -7 -14 -7.5t-14 5.5q-23 25 -52.5 59.5t-52.5 63.5t-33 46.5t-13 32.5h-1q-3 -15 -13 -32.5t-33 -46.5t-52.5 -63.5t-52.5 -59.5q-6 -6 -14 -5.5t-14 7.5q-7 8 -5.5 15t6.5 13q27 30 51 58t50 60q15 18 25 35t17 35.5t10 40
t3 49.5v150q0 10 6.5 14t15.5 4z" />
    <glyph glyph-name="cid433" unicode="&#x317d;" 
d="M533 563q9 0 16 -4t7 -14v-176h178v176q0 10 7 14t15 4q9 0 16 -4t7 -14v-404q0 -34 -13 -46.5t-48 -12.5h-146q-35 0 -48 12.5t-13 46.5v404q0 10 7 14t15 4zM556 139q0 -16 17 -16h144q17 0 17 16v189h-178v-189zM299 564q8 0 15 -4t7 -14v-150q0 -28 3.5 -49.5t10 -40
t17 -35.5t25.5 -35q26 -32 50 -60t51 -58q5 -6 6.5 -13t-5.5 -15q-6 -7 -14 -7.5t-14 5.5q-23 25 -52.5 59.5t-52.5 63.5t-33 46.5t-13 32.5h-1q-3 -15 -13 -32.5t-33 -46.5t-52.5 -63.5t-52.5 -59.5q-6 -6 -14 -5.5t-14 7.5q-7 8 -5.5 15t6.5 13q27 30 51 58t50 60
q15 18 25 35t17 35.5t10 40t3 49.5v150q0 10 6.5 14t15.5 4z" />
    <glyph glyph-name="cid434" unicode="&#x317e;" 
d="M298 564q8 0 15 -4t7 -14v-150q0 -28 3.5 -49.5t10 -40t17 -35.5t25.5 -35q22 -28 37.5 -47t35.5 -43q6 -8 13 -8q6 0 12 8q16 19 28 33.5t31 37.5q16 20 27.5 37t18 34.5t9.5 37t3 44.5v151h-141q-14 0 -14 19q0 8 3.5 13t10.5 5h326q7 0 10.5 -5t3.5 -13q0 -19 -14 -19
h-141v-151q0 -25 3 -44.5t10 -37t18 -34.5t28 -37q12 -15 22.5 -27t21 -23.5t21.5 -24t25 -27.5q7 -8 5 -15.5t-7 -12.5t-13 -5t-13 6q-25 27 -44 48.5t-42 50.5q-13 16 -22 28.5t-16 23.5t-11 23t-7 28h-1q-3 -16 -7 -28t-11 -23t-16 -23.5t-22 -28.5q-11 -14 -20 -25
t-17 -21t-17.5 -20.5t-21.5 -23.5q-11 -13 -19 -13q-6 0 -10.5 3.5t-9.5 8.5q-23 26 -49.5 56.5t-47.5 58.5q-23 29 -33 46.5t-13 32.5h-1q-3 -15 -13 -32.5t-33 -46.5t-52.5 -63.5t-52.5 -59.5q-6 -6 -14 -5.5t-14 7.5q-7 8 -5.5 15t6.5 13q27 30 51 58t50 60q15 18 25 35
t17 35.5t10 40t3 49.5v150q0 10 6.5 14t15.5 4z" />
    <glyph glyph-name="cid435" unicode="&#x317f;" 
d="M454 551q-5 0 -6.5 -4.5t-3.5 -9.5l-141 -389q-3 -9 1 -14q3 -4 13 -4h274q10 0 13 4q4 5 1 14l-141 389q-2 5 -3.5 9.5t-6.5 4.5zM454 613q11 0 19.5 -7t12.5 -20l162 -437q9 -29 -2 -43q-12 -15 -36 -15h-312q-24 0 -36 15q-11 14 -2 43l162 437q4 13 12.5 20t19.5 7z
" />
    <glyph glyph-name="cid436" unicode="&#x3180;" 
d="M268 577q83 0 120.5 -64.5t37.5 -191.5q0 -126 -37.5 -191t-120.5 -65t-120.5 65t-37.5 191q0 127 37.5 191.5t120.5 64.5zM268 536q-64 0 -88.5 -57t-24.5 -158t24.5 -158t88.5 -57t88.5 57t24.5 158t-24.5 158t-88.5 57zM638 577q83 0 120.5 -64.5t37.5 -191.5
q0 -126 -37.5 -191t-120.5 -65t-120.5 65t-37.5 191q0 127 37.5 191.5t120.5 64.5zM638 536q-64 0 -88.5 -57t-24.5 -158t24.5 -158t88.5 -57t88.5 57t24.5 158t-24.5 158t-88.5 57z" />
    <glyph glyph-name="cid437" unicode="&#x3181;" 
d="M454 682q9 0 16 -4t7 -14v-172q108 -6 162 -69t54 -163q0 -53 -15 -95.5t-45 -73.5t-74.5 -47.5t-104.5 -16.5t-104.5 16.5t-74.5 47.5t-45 73.5t-15 95.5q0 100 54 163t163 69v172q0 10 7 14t15 4zM454 452q-50 0 -86.5 -14.5t-60 -40t-35 -61t-11.5 -76.5t11.5 -76.5
t35 -61t60 -40t86.5 -14.5t86 14.5t59.5 40t35 61t11.5 76.5t-11.5 76.5t-35 61t-59.5 40t-86 14.5z" />
    <glyph glyph-name="cid438" unicode="&#x3182;" 
d="M268 580q9 0 16 -4t7 -14v-97q35 -4 60.5 -21t42 -43t24.5 -59.5t8 -70.5q0 -40 -9 -75.5t-28.5 -62.5t-49.5 -42.5t-71 -15.5t-71 15.5t-49.5 42.5t-28.5 62.5t-9 75.5q0 37 8 70.5t24.5 59.5t42 43t61.5 21v97q0 10 7 14t15 4zM268 426q-32 0 -53.5 -13.5t-35 -35.5
t-19 -50t-5.5 -56t5.5 -56t19 -50t35 -35.5t53.5 -13.5t53.5 13.5t35 35.5t19 50t5.5 56t-5.5 56t-19 50t-35 35.5t-53.5 13.5zM606 564q8 0 15 -4t7 -14v-150q0 -28 3.5 -49.5t10 -40t17 -35.5t25.5 -35q26 -32 50 -60t51 -58q5 -6 6.5 -13t-5.5 -15q-6 -7 -14 -7.5
t-14 5.5q-23 25 -52.5 59.5t-52.5 63.5q-25 32 -33.5 50.5t-12.5 33.5h-1q-4 -15 -12.5 -33.5t-33.5 -50.5q-23 -29 -52.5 -63.5t-52.5 -59.5q-6 -6 -14 -5.5t-14 7.5q-7 8 -5.5 15t6.5 13q27 30 51 58t50 60q15 18 25 35t17 35.5t10 40t3 49.5v150q0 10 6.5 14t15.5 4z" />
    <glyph glyph-name="cid439" unicode="&#x3183;" 
d="M286 580q9 0 16 -4t7 -14v-97q35 -4 60.5 -21t42 -43t24.5 -59.5t8 -70.5q0 -40 -9 -75.5t-28.5 -62.5t-49.5 -42.5t-71 -15.5t-71 15.5t-49.5 42.5t-28.5 62.5t-9 75.5q0 37 8 70.5t24.5 59.5t42 43t61.5 21v97q0 10 7 14t15 4zM286 426q-32 0 -53.5 -13.5t-35 -35.5
t-19 -50t-5.5 -56t5.5 -56t19 -50t35 -35.5t53.5 -13.5t53.5 13.5t35 35.5t19 50t5.5 56t-5.5 56t-19 50t-35 35.5t-53.5 13.5zM626 517q-5 0 -6.5 -4.5t-3.5 -9.5l-101 -359q-3 -9 1 -14q3 -4 13 -4h194q10 0 13 4q4 5 1 14l-101 359q-2 5 -3.5 9.5t-6.5 4.5zM626 579
q11 0 19.5 -7t12.5 -20l122 -407q9 -29 -2 -43q-12 -15 -36 -15h-232q-24 0 -36 15q-11 14 -2 43l122 407q4 13 12.5 20t19.5 7z" />
    <glyph glyph-name="cid440" unicode="&#x3184;" 
d="M674 676q8 0 11.5 -6t3.5 -14t-3.5 -14t-11.5 -6h-85v-266h91q8 0 11.5 -6t3.5 -14t-3.5 -14t-11.5 -6h-450q-8 0 -11.5 6t-3.5 14t3.5 14t11.5 6h91v266h-85q-8 0 -11.5 6t-3.5 14t3.5 14t11.5 6h438zM366 370h178v266h-178v-266zM458 247q79 0 114.5 -36t35.5 -91
t-35.5 -91t-114.5 -36q-40 0 -68.5 9.5t-46.5 26.5t-26.5 40.5t-8.5 50.5t8.5 50.5t26.5 40.5t46.5 26.5t68.5 9.5zM458 208q-29 0 -49 -7t-32.5 -19t-18 -28t-5.5 -34t5.5 -34.5t18 -28.5t32.5 -19t49 -7q58 0 81.5 26t23.5 63t-23.5 62.5t-81.5 25.5z" />
    <glyph glyph-name="cid441" unicode="&#x3185;" 
d="M276 386q35 0 60.5 -12t41.5 -33.5t23.5 -51.5t7.5 -65t-7.5 -65t-23.5 -51.5t-41.5 -33.5t-60.5 -12t-60.5 12t-41.5 33.5t-23.5 51.5t-7.5 65t7.5 65t23.5 51.5t41.5 33.5t60.5 12zM276 605q9 0 16 -4t7 -14v-93h122q8 0 12 -6t4 -14q0 -9 -4 -15t-12 -6h-289
q-8 0 -12 6t-4 15q0 8 4 14t12 6h122v93q0 10 7 14t15 4zM276 346q-49 0 -69.5 -34t-20.5 -88t20.5 -88t69.5 -34t69.5 34t20.5 88t-20.5 88t-69.5 34zM626 386q35 0 60.5 -12t41.5 -33.5t23.5 -51.5t7.5 -65t-7.5 -65t-23.5 -51.5t-41.5 -33.5t-60.5 -12t-60.5 12
t-41.5 33.5t-23.5 51.5t-7.5 65t7.5 65t23.5 51.5t41.5 33.5t60.5 12zM626 605q9 0 16 -4t7 -14v-93h122q8 0 12 -6t4 -14q0 -9 -4 -15t-12 -6h-289q-8 0 -12 6t-4 15q0 8 4 14t12 6h122v93q0 10 7 14t15 4zM626 346q-49 0 -69.5 -34t-20.5 -88t20.5 -88t69.5 -34t69.5 34
t20.5 88t-20.5 88t-69.5 34z" />
    <glyph glyph-name="cid442" unicode="&#x3186;" 
d="M456 480q58 0 101.5 -16t72.5 -45.5t43.5 -71t14.5 -92.5q0 -102 -58 -164t-174 -62q-58 0 -101 16t-72 46t-43.5 71.5t-14.5 92.5t14.5 92.5t43.5 71t72 45.5t101 16zM691 647q8 0 12 -6t4 -15q0 -8 -4 -14t-12 -6h-472q-8 0 -12 6t-4 14q0 9 4 15t12 6h472zM456 439
q-48 0 -82.5 -14t-57.5 -38.5t-34 -58.5t-11 -73q0 -40 11 -73.5t34 -58t57.5 -38.5t82.5 -14t83 14t57.5 38.5t33.5 58t11 73.5q0 39 -11 73t-33.5 58.5t-57.5 38.5t-83 14z" />
    <glyph glyph-name="cid443" unicode="&#x3187;" 
d="M723 769q9 0 16 -4t7 -14v-182h131q8 0 12 -6t4 -15q0 -8 -4 -14t-12 -6h-131v-190h131q8 0 12 -6t4 -15q0 -8 -4 -14t-12 -6h-131v-356q0 -10 -7 -14t-16 -4q-8 0 -15 4t-7 14v810q0 10 7 14t15 4zM217 402q9 0 16 -4t7 -14v-230q40 1 81 2t84 3v225q0 10 7 14t15 4
q9 0 16 -4t7 -14v-223q38 2 76 5t80 7q6 1 11 -3.5t6 -13.5t-3 -15t-10 -7q-75 -6 -144.5 -10.5t-137 -6.5t-134 -3t-136.5 -1q-8 0 -12 6t-4 14t4 14t12 6h137v231q0 10 7 14t15 4z" />
    <glyph glyph-name="cid444" unicode="&#x3188;" 
d="M799 769q9 0 16 -4t7 -14v-810q0 -10 -7 -14t-16 -4q-8 0 -14.5 4t-6.5 14v356h-150v-314q0 -10 -7 -14t-16 -4q-8 0 -14.5 4t-6.5 14v758q0 10 6.5 14t14.5 4q9 0 16 -4t7 -14v-182h150v192q0 10 6.5 14t14.5 4zM181 403q9 0 16 -4t7 -14v-214q38 1 77 1.5t79 2.5v210
q0 10 6.5 14t14.5 4q9 0 16 -4t7 -14v-208q25 2 50 3.5t50 3.5q6 1 11 -3.5t6 -13.5t-3 -15t-10 -7q-108 -8 -224 -11.5t-227 -3.5q-8 0 -12 6t-4 14t4 14t12 6h103v215q0 10 6.5 14t14.5 4zM628 338h150v180h-150v-180z" />
    <glyph glyph-name="cid445" unicode="&#x3189;" 
d="M766 769q9 0 16 -4t7 -14v-810q0 -10 -7 -14t-16 -4q-8 0 -15 4t-7 14v810q0 10 7 14t15 4zM244 402q9 0 16 -4t7 -14v-230q79 1 167 6v224q0 10 7 14t15 4q9 0 16 -4t7 -14v-222q41 2 83 5.5t87 7.5q6 1 11 -3.5t6 -13.5t-3 -15t-10 -7q-80 -7 -152 -11.5t-142 -7
t-141 -3.5t-147 -1q-8 0 -12 6t-4 14t4 14t12 6h75.5t75.5 1v230q0 10 7 14t15 4z" />
    <glyph glyph-name="cid446" unicode="&#x318a;" 
d="M649 353q6 1 11 -3.5t6 -13.5t-3 -15t-10 -7q-56 -5 -107.5 -8.5t-101.5 -6.5v-348q0 -10 -7 -14t-16 -4q-8 0 -15 4t-7 14v346q-38 -2 -74.5 -3t-73.5 -2v-341q0 -10 -7 -14t-16 -4q-8 0 -15 4t-7 14v341q-33 -1 -66.5 -1h-68.5q-8 0 -12 6t-4 14t4 14t12 6
q71 0 139.5 1t138.5 3t144 6.5t156 11.5zM766 769q9 0 16 -4t7 -14v-810q0 -10 -7 -14t-16 -4q-8 0 -15 4t-7 14v89h-188q-8 0 -11.5 6t-3.5 14t3.5 14t11.5 6h188v100h-188q-8 0 -11.5 6t-3.5 14t3.5 14t11.5 6h188v541q0 10 7 14t15 4z" />
    <glyph glyph-name="cid447" unicode="&#x318b;" 
d="M519 365q6 1 11 -3.5t6 -13.5t-3 -15t-10 -7q-79 -6 -154 -9v-334q0 -10 -7 -14t-16 -4q-8 0 -14.5 4t-6.5 14v332q-33 -1 -65 -2t-64 -1v-329q0 -10 -6.5 -14t-15.5 -4q-8 0 -15 4t-7 14v328h-105q-8 0 -12 6t-4 14t4 14t12 6q106 0 225 2t247 12zM626 764q8 0 15 -4
t7 -14v-773q0 -10 -7 -14t-15 -4q-9 0 -16 4t-7 14v72h-145q-8 0 -11.5 6t-3.5 14t3.5 14t11.5 6h145v100h-145q-8 0 -11.5 6t-3.5 14t3.5 14t11.5 6h145v521q0 10 7 14t16 4zM789 769q9 0 16 -4t7 -14v-810q0 -10 -7 -14t-16 -4q-8 0 -15 4t-7 14v810q0 10 7 14t15 4z" />
    <glyph glyph-name="cid448" unicode="&#x318c;" 
d="M649 329q6 1 11 -3.5t6 -13.5t-3 -15t-10 -7q-48 -5 -92 -8t-85 -5v-326q0 -10 -7 -14t-16 -4q-8 0 -15 4t-7 14v324q-89 -5 -176 -6v-318q0 -10 -7 -14t-16 -4q-8 0 -15 4t-7 14v317q-34 -1 -68.5 -1h-70.5q-8 0 -12 6t-4 14t4 14t12 6q71 0 139.5 1t138.5 3t144 6.5
t156 11.5zM766 769q9 0 16 -4t7 -14v-810q0 -10 -7 -14t-16 -4q-8 0 -15 4t-7 14v810q0 10 7 14t15 4z" />
    <glyph glyph-name="cid449" unicode="&#x318d;" 
d="M454 392q21 0 36 -15t15 -36t-15 -36t-36 -15t-36 15t-15 36t15 36t36 15z" />
    <glyph glyph-name="cid450" unicode="&#x318e;" 
d="M511 769q9 0 16 -4t7 -14v-810q0 -10 -7 -14t-16 -4q-8 0 -15 4t-7 14v810q0 10 7 14t15 4zM285 412q21 0 36 -15t15 -36t-15 -36t-36 -15t-36 15t-15 36t15 36t36 15z" />
    <glyph glyph-name="cid451" unicode="&#x2170;" 
d="M455 520q9 0 16 -4t7 -14v-483q0 -10 -7 -14t-16 -4q-8 0 -15 4t-7 14v483q0 10 7 14t15 4zM455 701q17 0 28.5 -11t11.5 -28t-11.5 -28t-28.5 -11t-28.5 11t-11.5 28t11.5 28t28.5 11z" />
    <glyph glyph-name="cid452" unicode="&#x2171;" 
d="M327 520q9 0 16 -4t7 -14v-483q0 -10 -7 -14t-16 -4q-8 0 -15 4t-7 14v483q0 10 7 14t15 4zM327 701q17 0 28.5 -11t11.5 -28t-11.5 -28t-28.5 -11t-28.5 11t-11.5 28t11.5 28t28.5 11zM582 520q9 0 16 -4t7 -14v-483q0 -10 -7 -14t-16 -4q-8 0 -15 4t-7 14v483
q0 10 7 14t15 4zM582 701q17 0 28.5 -11t11.5 -28t-11.5 -28t-28.5 -11t-28.5 11t-11.5 28t11.5 28t28.5 11z" />
    <glyph glyph-name="cid453" unicode="&#x2172;" 
d="M227 520q9 0 16 -4t7 -14v-483q0 -10 -7 -14t-16 -4q-8 0 -15 4t-7 14v483q0 10 7 14t15 4zM227 701q17 0 28.5 -11t11.5 -28t-11.5 -28t-28.5 -11t-28.5 11t-11.5 28t11.5 28t28.5 11zM455 520q9 0 16 -4t7 -14v-483q0 -10 -7 -14t-16 -4q-8 0 -15 4t-7 14v483
q0 10 7 14t15 4zM455 701q17 0 28.5 -11t11.5 -28t-11.5 -28t-28.5 -11t-28.5 11t-11.5 28t11.5 28t28.5 11zM682 520q9 0 16 -4t7 -14v-483q0 -10 -7 -14t-16 -4q-8 0 -15 4t-7 14v483q0 10 7 14t15 4zM682 701q17 0 28.5 -11t11.5 -28t-11.5 -28t-28.5 -11t-28.5 11
t-11.5 28t11.5 28t28.5 11z" />
    <glyph glyph-name="cid454" unicode="&#x2173;" 
d="M259 520q9 0 16 -4t7 -14v-483q0 -10 -7 -14t-16 -4q-8 0 -15 4t-7 14v483q0 10 7 14t15 4zM259 701q17 0 28.5 -11t11.5 -28t-11.5 -28t-28.5 -11t-28.5 11t-11.5 28t11.5 28t28.5 11zM392 519q20 5 26 -12l138 -448l134 448q6 17 26 12q9 -2 13.5 -8.5t1.5 -16.5
l-149 -474q-3 -9 -10.5 -14t-16.5 -5q-20 0 -26 18l-153 475q-3 10 2 16.5t14 8.5z" />
    <glyph glyph-name="cid455" unicode="&#x2174;" 
d="M251 518q8 3 16 1t12 -11l178 -449l174 449q4 9 11.5 11t15.5 -1t13 -9.5t0 -17.5l-188 -471q-8 -19 -27 -19t-26 18l-192 472q-5 11 0 17.5t13 9.5z" />
    <glyph glyph-name="cid456" unicode="&#x2175;" 
d="M195 519q20 5 26 -12l138 -448l134 448q6 17 26 12q9 -2 13.5 -8.5t1.5 -16.5l-149 -474q-3 -9 -10.5 -14t-16.5 -5q-20 0 -26 18l-153 475q-3 10 2 16.5t14 8.5zM653 520q9 0 16 -4t7 -14v-483q0 -10 -7 -14t-16 -4q-8 0 -15 4t-7 14v483q0 10 7 14t15 4zM653 701
q17 0 28.5 -11t11.5 -28t-11.5 -28t-28.5 -11t-28.5 11t-11.5 28t11.5 28t28.5 11z" />
    <glyph glyph-name="cid457" unicode="&#x2176;" 
d="M115 519q20 5 26 -12l138 -448l134 448q6 17 26 12q9 -2 13.5 -8.5t1.5 -16.5l-149 -474q-3 -9 -10.5 -14t-16.5 -5q-20 0 -26 18l-153 475q-3 10 2 16.5t14 8.5zM573 520q9 0 16 -4t7 -14v-483q0 -10 -7 -14t-16 -4q-8 0 -15 4t-7 14v483q0 10 7 14t15 4zM573 701
q17 0 28.5 -11t11.5 -28t-11.5 -28t-28.5 -11t-28.5 11t-11.5 28t11.5 28t28.5 11zM756 520q9 0 16 -4t7 -14v-483q0 -10 -7 -14t-16 -4q-8 0 -15 4t-7 14v483q0 10 7 14t15 4zM756 701q17 0 28.5 -11t11.5 -28t-11.5 -28t-28.5 -11t-28.5 11t-11.5 28t11.5 28t28.5 11z" />
    <glyph glyph-name="cid458" unicode="&#x2177;" 
d="M89 519q9 2 16.5 -0.5t9.5 -11.5l121 -448l117 448q2 9 9.5 11.5t16.5 0.5t13.5 -8.5t1.5 -16.5l-132 -474q-2 -10 -10 -14.5t-17 -4.5q-20 0 -26 18l-136 475q-3 10 2 16.5t14 8.5zM498 701q17 0 28.5 -11t11.5 -28t-11.5 -28t-28.5 -11t-28.5 11t-11.5 28t11.5 28
t28.5 11zM498 520q9 0 16 -4t7 -14v-483q0 -10 -7 -14t-16 -4q-8 0 -15 4t-7 14v483q0 10 7 14t15 4zM646 701q17 0 28.5 -11t11.5 -28t-11.5 -28t-28.5 -11t-28.5 11t-11.5 28t11.5 28t28.5 11zM646 520q9 0 16 -4t7 -14v-483q0 -10 -7 -14t-16 -4q-8 0 -15 4t-7 14v483
q0 10 7 14t15 4zM794 701q17 0 28.5 -11t11.5 -28t-11.5 -28t-28.5 -11t-28.5 11t-11.5 28t11.5 28t28.5 11zM794 520q9 0 16 -4t7 -14v-483q0 -10 -7 -14t-16 -4q-8 0 -15 4t-7 14v483q0 10 7 14t15 4z" />
    <glyph glyph-name="cid459" unicode="&#x2178;" 
d="M268 520q9 0 16 -4t7 -14v-483q0 -10 -7 -14t-16 -4q-8 0 -15 4t-7 14v483q0 10 7 14t15 4zM268 701q17 0 28.5 -11t11.5 -28t-11.5 -28t-28.5 -11t-28.5 11t-11.5 28t11.5 28t28.5 11zM712 517q8 -4 11 -11.5t-2 -15.5l-123 -222l136 -237q5 -8 1.5 -15.5t-11.5 -11.5
t-16 -2.5t-13 9.5l-128 228l-130 -228q-5 -8 -12.5 -9.5t-15.5 2.5t-11 11.5t2 15.5l138 234l-125 225q-5 8 -1.5 15.5t11.5 11.5t16 2.5t13 -9.5l117 -216l115 216q5 8 12.5 9.5t15.5 -2.5z" />
    <glyph glyph-name="cid460" unicode="&#x2179;" 
d="M271 516q8 5 16.5 4t15.5 -11l154 -215l152 215q13 19 32 6q7 -5 9 -12t-5 -17l-159 -218l172 -233q12 -18 -5 -30q-8 -5 -17 -4t-16 11l-165 227l-167 -227q-13 -19 -32 -6q-7 5 -9 12t5 17l174 230l-161 221q-7 10 -4.5 17.5t10.5 12.5z" />
    <glyph glyph-name="cid461" unicode="&#x2160;" 
d="M454 718q10 0 17 -4t7 -14v-681q0 -10 -7 -14t-17 -4q-8 0 -15 4t-7 14v681q0 10 7 14t15 4z" />
    <glyph glyph-name="cid462" unicode="&#x2161;" 
d="M334 718q10 0 17 -4t7 -14v-681q0 -10 -7 -14t-17 -4q-8 0 -15 4t-7 14v681q0 10 7 14t15 4zM574 718q10 0 17 -4t7 -14v-681q0 -10 -7 -14t-17 -4q-8 0 -15 4t-7 14v681q0 10 7 14t15 4z" />
    <glyph glyph-name="cid463" unicode="&#x2162;" 
d="M221 718q10 0 17 -4t7 -14v-681q0 -10 -7 -14t-17 -4q-8 0 -15 4t-7 14v681q0 10 7 14t15 4zM454 718q10 0 17 -4t7 -14v-681q0 -10 -7 -14t-17 -4q-8 0 -15 4t-7 14v681q0 10 7 14t15 4zM687 718q10 0 17 -4t7 -14v-681q0 -10 -7 -14t-17 -4q-8 0 -15 4t-7 14v681
q0 10 7 14t15 4z" />
    <glyph glyph-name="cid464" unicode="&#x2163;" 
d="M224 718q10 0 17 -4t7 -14v-681q0 -10 -7 -14t-17 -4q-8 0 -15 4t-7 14v681q0 10 7 14t15 4zM363 717q10 2 18 0t11 -13l186 -643l178 643q3 11 10 13t17 0q9 -2 14 -8.5t2 -17.5l-192 -671q-3 -10 -11 -14.5t-18 -4.5q-11 0 -19 4.5t-11 14.5l-201 670q-4 11 1.5 18
t14.5 9z" />
    <glyph glyph-name="cid465" unicode="&#x2164;" 
d="M723 716q9 -3 13.5 -9.5t0.5 -17.5l-252 -669q-7 -19 -29 -19q-23 0 -30 19l-253 668q-4 11 0.5 18t13.5 10q23 8 30 -11l239 -644l238 644q8 19 29 11z" />
    <glyph glyph-name="cid466" unicode="&#x2165;" 
d="M126 717q10 2 18 0t11 -13l186 -643l178 643q3 11 10 13t17 0q9 -2 14 -8.5t2 -17.5l-192 -671q-3 -10 -11 -14.5t-18 -4.5q-11 0 -19 4.5t-11 14.5l-201 670q-4 11 1.5 18t14.5 9zM683 718q10 0 17 -4t7 -14v-681q0 -10 -7 -14t-17 -4q-8 0 -15 4t-7 14v681q0 10 7 14
t15 4z" />
    <glyph glyph-name="cid467" unicode="&#x2166;" 
d="M72 717q10 2 18 0t11 -13l168 -643l161 642q4 19 26 14q9 -2 14 -8.5t2 -17.5l-174 -671q-3 -10 -11 -14.5t-18 -4.5q-11 0 -19 4.5t-11 14.5l-183 671q-3 11 2 17.5t14 8.5zM582 718q10 0 17 -4t7 -14v-681q0 -10 -7 -14t-17 -4q-8 0 -15 4t-7 14v681q0 10 7 14t15 4z
M763 718q10 0 17 -4t7 -14v-681q0 -10 -7 -14t-17 -4q-8 0 -15 4t-7 14v681q0 10 7 14t15 4z" />
    <glyph glyph-name="cid468" unicode="&#x2167;" 
d="M789 718q10 0 17 -4t7 -14v-681q0 -10 -7 -14t-17 -4q-8 0 -15 4t-7 14v681q0 10 7 14t15 4zM80 717q10 2 17 -1t9 -14l124 -641l117 641q2 11 8.5 14t16.5 1q9 -2 14 -7.5t3 -16.5l-130 -673q-2 -10 -10.5 -14.5t-18.5 -4.5q-11 0 -19.5 4.5t-10.5 14.5l-138 673
q-2 11 3.5 16.5t14.5 7.5zM632 718q10 0 17 -4t7 -14v-681q0 -10 -7 -14t-17 -4q-8 0 -15 4t-7 14v681q0 10 7 14t15 4zM475 718q10 0 17 -4t7 -14v-681q0 -10 -7 -14t-17 -4q-8 0 -15 4t-7 14v681q0 10 7 14t15 4z" />
    <glyph glyph-name="cid469" unicode="&#x2168;" 
d="M238 718q10 0 17 -4t7 -14v-681q0 -10 -7 -14t-17 -4q-8 0 -15 4t-7 14v681q0 10 7 14t15 4zM780 714q17 -11 7 -28l-173 -314l187 -339q9 -17 -8 -28q-8 -5 -17 -3.5t-14 9.5l-178 331l-186 -331q-5 -8 -13.5 -9.5t-16.5 3.5q-17 11 -7 28l195 339l-182 314q-9 17 8 28
q8 5 17 3.5t14 -9.5l174 -305l163 305q5 8 13.5 9.5t16.5 -3.5z" />
    <glyph glyph-name="cid470" unicode="&#x2169;" 
d="M692 714q8 -5 10.5 -12.5t-4.5 -17.5l-211 -312l225 -337q12 -18 -5 -30q-20 -12 -34 8l-216 329l-224 -329q-13 -19 -31 -8q-8 5 -10.5 12.5t4.5 17.5l233 337l-220 312q-12 18 5 30q20 12 34 -8l212 -303l201 303q13 19 31 8z" />
    <glyph glyph-name="cid471" unicode="&#x391;" horiz-adv-x="645" 
d="M324 718q20 0 28 -18l259 -670q4 -10 0 -17t-13 -10q-22 -8 -30 11l-83 218h-325l-84 -218q-8 -19 -30 -11q-20 7 -12 27l262 670q7 18 28 18zM324 667q-12 -39 -27 -80t-33 -88l-88 -227h294l-85 227q-17 44 -33 87t-28 81z" />
    <glyph glyph-name="cid472" unicode="&#x392;" horiz-adv-x="629" 
d="M324 715q114 0 167 -43t53 -132v-18q0 -24 -6.5 -46.5t-20.5 -41.5t-36.5 -33.5t-54.5 -22.5q72 -10 111.5 -49t39.5 -114v-22q0 -89 -51.5 -139t-168.5 -50h-201q-33 0 -46 12.5t-13 44.5v597q0 32 13 44.5t46 12.5h168zM142 45h219q170 0 170 148v19q0 70 -45 107
t-152 37h-192v-311zM142 397h191q75 0 120.5 30.5t45.5 97.5v15q0 63 -38.5 98.5t-132.5 35.5h-186v-277z" />
    <glyph glyph-name="cid473" unicode="&#x393;" horiz-adv-x="540" 
d="M495 715q9 0 13 -6t4 -15t-4 -15t-13 -6h-352v-654q0 -10 -7 -14t-17 -4q-8 0 -15 4t-7 14v639q0 32 13 44.5t46 12.5h339z" />
    <glyph glyph-name="cid474" unicode="&#x394;" horiz-adv-x="631" 
d="M93 45h445l-222 622zM316 718q22 0 29 -19l243 -657q8 -21 -6 -32q-7 -5 -20.5 -5.5t-24.5 -0.5h-444q-11 0 -24.5 0.5t-20.5 5.5q-14 11 -6 32l244 657q7 19 30 19z" />
    <glyph glyph-name="cid475" unicode="&#x395;" horiz-adv-x="604" 
d="M505 715q9 0 13 -6t4 -15t-4 -15t-13 -6h-362v-283h342q8 0 12 -6t4 -14q0 -9 -4 -15t-12 -6h-342v-303h369q9 0 13 -6t4 -15t-4 -15t-13 -6h-356q-33 0 -46 12.5t-13 44.5v597q0 32 13 44.5t46 12.5h349z" />
    <glyph glyph-name="cid476" unicode="&#x396;" horiz-adv-x="612" 
d="M507 715q22 0 30 -6t8 -18q0 -7 -3.5 -14t-17.5 -27l-428 -605h453q9 0 13 -6t4 -14q0 -9 -4 -15t-13 -6h-471q-22 0 -30 6t-8 18q0 7 3.5 14t17.5 27l428 605h-409q-9 0 -13 6t-4 15q0 8 4 14t13 6h427z" />
    <glyph glyph-name="cid477" unicode="&#x397;" horiz-adv-x="691" 
d="M119 718q10 0 17 -4t7 -14v-302h405v302q0 10 7 14t15 4q10 0 17 -4t7 -14v-681q0 -10 -7 -14t-17 -4q-8 0 -15 4t-7 14v338h-405v-338q0 -10 -7 -14t-17 -4q-8 0 -15 4t-7 14v681q0 10 7 14t15 4z" />
    <glyph glyph-name="cid478" unicode="&#x398;" horiz-adv-x="696" 
d="M348 726q142 0 210.5 -88t68.5 -248v-61q0 -160 -68.5 -248t-210.5 -88t-210.5 88t-68.5 248v61q0 160 68.5 248t210.5 88zM348 684q-122 0 -177.5 -77t-55.5 -223v-49q0 -146 55.5 -223t177.5 -77t177.5 77t55.5 223v49q0 146 -55.5 223t-177.5 77zM513 389
q10 0 14 -6.5t4 -16.5q0 -9 -4 -15.5t-14 -6.5h-320q-10 0 -14 6.5t-4 15.5q0 10 4 16.5t14 6.5h320z" />
    <glyph glyph-name="cid479" unicode="&#x399;" horiz-adv-x="240" 
d="M119 718q10 0 17 -4t7 -14v-681q0 -10 -7 -14t-17 -4q-8 0 -15 4t-7 14v681q0 10 7 14t15 4z" />
    <glyph glyph-name="cid480" unicode="&#x39a;" horiz-adv-x="645" 
d="M119 718q10 0 17 -4t7 -14v-374l379 385q7 8 16.5 7.5t15.5 -6.5t7.5 -14.5t-6.5 -16.5l-267 -268l292 -377q13 -18 -5 -31q-17 -13 -32 7l-288 370l-112 -113v-250q0 -10 -7 -14t-17 -4q-8 0 -15 4t-7 14v681q0 10 7 14t15 4z" />
    <glyph glyph-name="cid481" unicode="&#x39b;" horiz-adv-x="622" 
d="M312 718q22 0 29 -19l247 -669q4 -11 -0.5 -17.5t-13.5 -9.5q-23 -8 -29 11l-175 485q-17 48 -31.5 88.5t-26.5 79.5q-12 -39 -26.5 -80t-31.5 -88l-176 -485q-7 -19 -30 -11q-9 3 -13.5 10t-0.5 18l248 668q7 19 30 19z" />
    <glyph glyph-name="cid482" unicode="&#x39c;" horiz-adv-x="836" 
d="M130 716q11 0 17.5 -5.5t14.5 -19.5l258 -519l254 519q7 14 14 19.5t18 5.5h2q31 0 31 -47v-650q0 -10 -7 -14t-15 -4q-9 0 -15.5 4t-6.5 14v626q-14 -31 -26 -57.5t-27 -57.5l-196 -394q-9 -17 -27 -17q-19 0 -27 17l-197 394q-15 31 -27.5 57.5t-26.5 57.5v-626
q0 -10 -6.5 -14t-15.5 -4q-8 0 -15 4t-7 14v650q0 47 31 47h2z" />
    <glyph glyph-name="cid483" unicode="&#x39d;" horiz-adv-x="689" 
d="M569 718q9 0 16 -4t7 -14v-644q0 -29 -10.5 -41t-28.5 -12q-12 0 -20 5.5t-18 21.5l-345 577q-7 11 -14.5 26.5t-13.5 30.5v-645q0 -10 -7 -14t-16 -4q-8 0 -15 4t-7 14v644q0 29 10.5 41t28.5 12q12 0 20 -5.5t18 -21.5l345 -577q7 -11 14.5 -26.5t13.5 -30.5v645
q0 10 7 14t15 4z" />
    <glyph glyph-name="cid484" unicode="&#x39e;" horiz-adv-x="587" 
d="M491 715q9 0 13 -6t4 -15t-4 -15t-13 -6h-395q-9 0 -13 6t-4 15t4 15t13 6h395zM469 390q17 0 17 -20q0 -9 -4 -15t-13 -6h-351q-9 0 -13 6t-4 15q0 20 17 20h351zM495 46q9 0 13 -6t4 -15t-4 -15t-13 -6h-403q-9 0 -13 6t-4 15t4 15t13 6h403z" />
    <glyph glyph-name="cid485" unicode="&#x39f;" horiz-adv-x="696" 
d="M348 726q142 0 210.5 -88t68.5 -248v-61q0 -160 -68.5 -248t-210.5 -88t-210.5 88t-68.5 248v61q0 160 68.5 248t210.5 88zM348 684q-122 0 -177.5 -77t-55.5 -223v-49q0 -146 55.5 -223t177.5 -77t177.5 77t55.5 223v49q0 146 -55.5 223t-177.5 77z" />
    <glyph glyph-name="cid486" unicode="&#x3a0;" horiz-adv-x="673" 
d="M517 715q33 0 46 -12.5t13 -44.5v-639q0 -10 -7 -14t-15 -4q-10 0 -17 4t-7 14v654h-387v-654q0 -10 -7 -14t-17 -4q-8 0 -15 4t-7 14v639q0 32 13 44.5t46 12.5h361z" />
    <glyph glyph-name="cid487" unicode="&#x3a1;" horiz-adv-x="597" 
d="M322 715q114 0 173 -52t59 -152v-17q0 -102 -60.5 -153.5t-174.5 -51.5h-176v-270q0 -10 -7 -14t-17 -4q-8 0 -15 4t-7 14v639q0 32 13 44.5t46 12.5h166zM143 331h171q54 0 91 11.5t60 33t33 51.5t10 68v14q0 37 -10 67t-32.5 51.5t-57.5 33.5t-86 12h-179v-342z" />
    <glyph glyph-name="cid488" unicode="&#x3a3;" horiz-adv-x="597" 
d="M515 715q9 0 13 -6t4 -15t-4 -15t-13 -6h-379l204 -253q23 -29 30.5 -40.5t7.5 -19.5q0 -9 -7.5 -20.5t-30.5 -40.5l-204 -253h379q9 0 13 -6t4 -15t-4 -15t-13 -6h-397q-22 0 -30 6t-8 18q0 7 3 14.5t18 26.5l232 291l-232 290q-15 19 -18 26.5t-3 14.5q0 12 8 18t30 6
h397z" />
    <glyph glyph-name="cid489" unicode="&#x3a4;" horiz-adv-x="592" 
d="M547 715q9 0 13 -6t4 -15t-4 -15t-13 -6h-228v-654q0 -10 -7 -14t-17 -4q-8 0 -15 4t-7 14v654h-228q-9 0 -13 6t-4 15t4 15t13 6h502z" />
    <glyph glyph-name="cid490" unicode="&#x3a5;" horiz-adv-x="602" 
d="M546 715q8 -5 11.5 -12t-1.5 -15l-229 -389v-280q0 -10 -7 -14t-17 -4q-8 0 -15 4t-7 14v280l-233 386q-11 18 5 29q8 5 17 4t14 -10l221 -367l212 367q11 17 29 7z" />
    <glyph glyph-name="cid491" unicode="&#x3a6;" horiz-adv-x="744" 
d="M371 741q9 0 15.5 -4t6.5 -13v-75q134 -5 208 -68.5t74 -185.5v-51q0 -122 -74 -185.5t-208 -68.5v-72q0 -10 -6.5 -13.5t-15.5 -3.5q-8 0 -14.5 3.5t-6.5 13.5v72q-134 5 -207.5 68.5t-73.5 185.5v51q0 121 73.5 185t207.5 69v75q0 9 6.5 13t14.5 4zM393 132
q114 5 175 58t61 160v39q0 106 -61 159.5t-175 58.5v-475zM350 607q-113 -5 -174 -58.5t-61 -159.5v-39q0 -106 61 -159.5t174 -58.5v475z" />
    <glyph glyph-name="cid492" unicode="&#x3a7;" horiz-adv-x="621" 
d="M549 714q8 -5 10.5 -12.5t-4.5 -17.5l-211 -312l225 -337q12 -18 -5 -30q-20 -12 -34 8l-216 329l-224 -329q-13 -19 -31 -8q-8 5 -10.5 12.5t4.5 17.5l233 337l-220 312q-12 18 5 30q20 12 34 -8l212 -303l201 303q13 19 31 8z" />
    <glyph glyph-name="cid493" unicode="&#x3a8;" horiz-adv-x="696" 
d="M91 698q22 0 22 -18v-179q0 -130 51 -194t162 -72v445q0 10 6.5 14t14.5 4q10 0 16.5 -4t6.5 -14v-445q111 8 162 72t51 194v179q0 18 22 18q8 0 15 -4t7 -14v-171q0 -155 -63 -232.5t-194 -83.5v-174q0 -10 -6.5 -14t-16.5 -4q-8 0 -14.5 4t-6.5 14v174
q-131 6 -194 83.5t-63 232.5v171q0 10 7 14t15 4z" />
    <glyph glyph-name="cid494" unicode="&#x3a9;" horiz-adv-x="742" 
d="M371 726q138 0 203.5 -88t65.5 -248v-51q0 -118 -33.5 -190t-96.5 -105h184q8 0 12 -5.5t4 -13.5q0 -9 -4 -15t-12 -6h-208q-19 0 -26 7t-7 18q0 22 19 32q69 39 95.5 111.5t26.5 172.5v39q0 146 -52.5 223t-170.5 77t-170.5 -77t-52.5 -223v-39q0 -100 26.5 -172.5
t95.5 -111.5q19 -10 19 -32q0 -11 -7 -18t-26 -7h-208q-8 0 -12 6t-4 15q0 8 4 13.5t12 5.5h184q-63 33 -96.5 105t-33.5 190v51q0 160 65.5 248t203.5 88z" />
    <glyph glyph-name="cid495" unicode="&#x3b1;" horiz-adv-x="582" 
d="M278 487q-75 0 -120.5 -48t-45.5 -157v-40q0 -106 40.5 -155.5t124.5 -49.5q29 0 59 11t54 31.5t39.5 50.5t15.5 69v161q0 25 -12.5 48.5t-34.5 40.5t-52.5 27.5t-67.5 10.5zM280 528q51 0 96.5 -20t67.5 -58h1v52q0 10 7 14t15 4t15 -4t7 -14v-483q0 -10 -7 -14t-15 -4
q-9 0 -16 4t-7 14v74h-1q-20 -42 -64 -69.5t-106 -27.5q-101 0 -153.5 60.5t-52.5 180.5v50q0 122 57.5 181.5t155.5 59.5z" />
    <glyph glyph-name="cid496" unicode="&#x3b2;" horiz-adv-x="587" 
d="M283 756q49 0 84.5 -14t57.5 -37t32.5 -53.5t10.5 -64.5v-26q0 -74 -29.5 -113.5t-84.5 -56.5q77 -6 121.5 -48.5t44.5 -122.5v-43q0 -45 -15 -80.5t-42 -60t-63.5 -37.5t-79.5 -13q-71 0 -117.5 25t-66.5 56v-242q0 -10 -6.5 -14t-15.5 -4q-8 0 -14.5 4t-6.5 14v739
q0 53 16 89.5t42.5 59.5t60.5 33t71 10zM285 715q-69 0 -109 -40.5t-40 -117.5v-407q0 -22 13 -44t37 -39.5t58 -28.5t76 -11q49 0 79.5 17t47.5 41t23 50t6 44v38q0 43 -14 72t-39.5 46t-60.5 24t-78 7q-9 0 -13 6t-4 15t4 15t13 6q43 0 70 12.5t42.5 34t21.5 50t6 59.5v18
q0 66 -39.5 99.5t-99.5 33.5z" />
    <glyph glyph-name="cid497" unicode="&#x3b3;" horiz-adv-x="499" 
d="M46 518q8 3 16 1t12 -11l178 -451l174 451q4 9 11.5 11t15.5 -1t13 -9.5t0 -17.5l-191 -479v-187q0 -10 -7 -14t-17 -4q-8 0 -15 4t-7 14v184l-196 482q-5 11 0 17.5t13 9.5z" />
    <glyph glyph-name="cid498" unicode="&#x3b4;" horiz-adv-x="580" 
d="M307 756q36 0 68.5 -6.5t63.5 -22.5q17 -8 9 -25q-8 -18 -24 -10q-26 13 -55 19t-58 6q-61 0 -87 -18.5t-26 -49.5q0 -22 14.5 -39.5t40 -34.5t60 -36.5t73.5 -45.5q37 -24 61.5 -49.5t39 -52.5t20.5 -57.5t6 -64.5v-32q0 -119 -60.5 -180t-162.5 -61t-162.5 61
t-60.5 180v32q0 59 16.5 105.5t46.5 77.5t73 45t96 9q-75 37 -109.5 69.5t-34.5 67.5v12q0 18 9 36.5t28 32.5t47.5 23t67.5 9zM290 469q-82 0 -130 -49.5t-48 -155.5v-22q0 -106 48 -155.5t130 -49.5t130 49.5t48 155.5v22q0 106 -48 155.5t-130 49.5z" />
    <glyph glyph-name="cid499" unicode="&#x3b5;" horiz-adv-x="479" 
d="M263 535q42 0 75 -6t67 -20q8 -3 9.5 -10t-2.5 -15q-8 -15 -24 -9q-29 11 -61.5 15.5t-61.5 4.5q-66 0 -105.5 -19t-39.5 -61v-8q0 -29 11.5 -48t31 -31t45 -17t53.5 -5h52q9 0 13 -6t4 -15t-4 -15.5t-13 -6.5h-62q-64 0 -103.5 -25t-39.5 -81v-12q0 -21 8 -40.5
t25.5 -34.5t44 -24t63.5 -9q48 0 87.5 10.5t84.5 33.5q15 7 24 -8q5 -8 2.5 -15.5t-9.5 -11.5q-43 -23 -87.5 -36.5t-92.5 -13.5q-91 0 -142.5 38t-51.5 113v11q0 58 33.5 87.5t94.5 39.5q-57 14 -86.5 42.5t-29.5 76.5v9q0 32 14.5 55t40 38t59.5 22t73 7z" />
    <glyph glyph-name="cid500" unicode="&#x3b6;" horiz-adv-x="433" 
d="M357 750q20 0 27 -7t7 -16q0 -8 -4 -17t-18 -20q-58 -47 -106.5 -94t-84 -99.5t-55 -112t-19.5 -131.5v-3q0 -44 17 -74.5t45.5 -52.5t66.5 -37.5t81 -28.5q34 -11 57 -20.5t37 -19.5t19.5 -22.5t5.5 -29.5q0 -36 -17 -57.5t-41 -37.5q-17 -11 -29 4q-5 6 -4.5 13.5
t9.5 13.5q25 18 34 31.5t9 28.5q0 12 -9 21.5t-22.5 17t-29 12.5t-28.5 8q-50 13 -94.5 31t-78 45t-53 64.5t-19.5 88.5v6q0 67 21 130t58.5 120t90 108.5t114.5 96.5h-204q-8 0 -12 6t-4 14t4 14t12 6h217z" />
    <glyph glyph-name="cid501" unicode="&#x3b7;" horiz-adv-x="585" 
d="M312 528q93 0 139.5 -49.5t46.5 -127.5v-526q0 -10 -7 -14t-16 -4q-8 0 -15 4t-7 14v513q0 72 -34 110.5t-114 38.5q-43 0 -74.5 -15t-52 -37t-30.5 -46.5t-10 -42.5v-327q0 -10 -7 -14t-16 -4q-8 0 -15 4t-7 14v483q0 10 7 14t15 4t15 -4t7 -14v-68h1q5 13 18.5 29.5
t35 30.5t51.5 24t69 10z" />
    <glyph glyph-name="cid502" unicode="&#x3b8;" horiz-adv-x="546" 
d="M273 756q110 0 158 -84t48 -252v-91q0 -168 -48 -252t-158 -84t-158 84t-48 252v91q0 168 48 252t158 84zM112 335q0 -152 36 -226t125 -74t125 74t36 226v28h-322v-28zM273 714q-89 0 -125 -74t-36 -226v-13h322v13q0 152 -36 226t-125 74z" />
    <glyph glyph-name="cid503" unicode="&#x3b9;" horiz-adv-x="238" 
d="M109 520q9 0 16 -4t7 -14v-412q0 -29 10 -41.5t36 -12.5q8 0 16 1t14 3q8 2 13.5 -2.5t7.5 -12.5t-0.5 -14t-11.5 -9t-20 -4.5t-22 -1.5q-18 0 -34 4t-28 14.5t-19 28.5t-7 45v414q0 10 7 14t15 4z" />
    <glyph glyph-name="cid504" unicode="&#x3ba;" horiz-adv-x="505" 
d="M115 520q9 0 16 -4t7 -14v-265l272 276q7 8 16.5 7.5t15.5 -6.5t7 -14.5t-7 -16.5l-185 -185l201 -261q14 -18 -4 -31q-8 -6 -16 -5t-13 8l-200 258l-87 -87v-161q0 -10 -7 -14t-16 -4q-8 0 -15 4t-7 14v483q0 10 7 14t15 4z" />
    <glyph glyph-name="cid505" unicode="&#x3bb;" horiz-adv-x="494" 
d="M130 756q29 0 45 -13.5t27 -41.5l259 -672q4 -10 -0.5 -16.5t-12.5 -9.5t-16 -0.5t-11 10.5l-171 446h-1l-175 -447q-3 -8 -11.5 -10t-16.5 1t-12.5 9.5t-0.5 16.5l194 482l-61 171q-8 20 -15.5 27.5t-21.5 7.5q-10 0 -17 -3q-8 -3 -14.5 1t-8.5 11t-0.5 14t9.5 10
q7 2 15.5 4t16.5 2z" />
    <glyph glyph-name="cid506" unicode="&#x3bc;" horiz-adv-x="589" 
d="M116 520q8 0 15 -4t7 -14v-316q0 -73 32.5 -111t107.5 -38q45 0 77.5 15.5t54 37t31.5 44.5t10 38v330q0 10 7 14t16 4q8 0 15 -4t7 -14v-483q0 -10 -7 -14t-15 -4t-15 4t-7 14v69h-1q-6 -13 -20.5 -29t-36.5 -30t-51 -23.5t-63 -9.5q-102 0 -142 66v-237q0 -10 -6.5 -14
t-16.5 -4q-8 0 -15 4t-7 14v677q0 10 7 14t16 4z" />
    <glyph glyph-name="cid507" unicode="&#x3bd;" horiz-adv-x="500" 
d="M46 518q8 3 16 1t12 -11l178 -449h1l174 449q4 9 11.5 11t15.5 -1t13 -9.5t0 -17.5l-188 -471q-8 -19 -28 -19q-19 0 -26 18l-192 472q-5 11 0 17.5t13 9.5z" />
    <glyph glyph-name="cid508" unicode="&#x3be;" horiz-adv-x="434" 
d="M271 756q37 0 72.5 -5t76.5 -27q6 -3 8 -10t-3 -15q-9 -15 -23 -6q-29 17 -63 21.5t-66 4.5q-27 0 -53 -6.5t-46.5 -21t-33 -38t-12.5 -57.5v-10q0 -33 12 -60t33.5 -46.5t52 -30t66.5 -10.5h57q15 0 15 -19q0 -8 -3.5 -14t-11.5 -6h-60q-41 0 -75 -9.5t-59 -28.5
t-38.5 -47t-13.5 -64v-11q0 -44 17 -72.5t46 -48t67 -33.5t81 -27q34 -11 57.5 -20t37 -19t19.5 -22.5t6 -31.5q0 -35 -18.5 -56t-40.5 -38q-17 -12 -29 3q-5 6 -4 13.5t10 13.5q24 17 33 30.5t9 29.5q0 12 -9 21.5t-22.5 17t-29 12.5t-28.5 8q-50 13 -94.5 29t-78 40.5
t-53 60t-19.5 87.5v18q0 42 13 71t35 48.5t51.5 30.5t62.5 16q-26 4 -50.5 15.5t-43.5 31t-30.5 48.5t-11.5 68v9q0 35 11.5 64.5t35 51.5t58 34t80.5 12z" />
    <glyph glyph-name="cid509" unicode="&#x3bf;" horiz-adv-x="580" 
d="M290 528q102 0 162.5 -61t60.5 -180v-50q0 -119 -60.5 -180t-162.5 -61t-162.5 61t-60.5 180v50q0 119 60.5 180t162.5 61zM290 487q-82 0 -130 -49.5t-48 -155.5v-40q0 -106 48 -155.5t130 -49.5t130 49.5t48 155.5v40q0 106 -48 155.5t-130 49.5z" />
    <glyph glyph-name="cid510" unicode="&#x3c0;" horiz-adv-x="564" 
d="M529 528q9 0 13 -6t4 -15t-4 -15t-13 -6h-110v-396q0 -29 10 -41.5t36 -12.5q8 0 16 1t14 3q8 2 13.5 -2.5t7.5 -12.5t-0.5 -14t-11.5 -9t-20 -4.5t-22 -1.5q-18 0 -34 4t-28 14.5t-19 28.5t-7 45v398h-186v-467q0 -10 -6.5 -14t-16.5 -4q-8 0 -14.5 4t-6.5 14v467h-109
q-9 0 -13 6t-4 15t4 15t13 6h494z" />
    <glyph glyph-name="cid511" unicode="&#x3c1;" horiz-adv-x="600" 
d="M310 528q102 0 162.5 -61t60.5 -180v-50q0 -119 -60.5 -180t-162.5 -61q-29 0 -56 6.5t-50.5 18t-42 28.5t-28.5 38h-1v-262q0 -10 -6.5 -14t-16.5 -4q-8 0 -15 4t-7 14v462q0 119 60.5 180t162.5 61zM310 487q-82 0 -130 -49.5t-48 -155.5v-40q0 -106 48 -155.5
t130 -49.5t130 49.5t48 155.5v40q0 106 -48 155.5t-130 49.5z" />
    </font>
</defs>
</svg>
